<?xml version="1.0" standalone="no"?>
 <!DOCTYPE svg PUBLIC "-//W3C//DTD SVG 1.1//EN" 
 "http://www.w3.org/Graphics/SVG/1.1/DTD/svg11.dtd"> 
<svg xmlns="http://www.w3.org/2000/svg" version="1.1" 
    width="41.9989cm" height="29.7002cm" viewBox="0 0 165350 116930 ">
<title>SVG Picture created as motoplygas-F_SilkS.svg date 2013/03/09 15:19:02 </title>
  <desc>Picture generated by PCBNEW </desc>
<g style="fill:#000000; fill-opacity:1;stroke:#000000; stroke-opacity:1;
stroke-linecap:round; stroke-linejoin:round; "
 transform="translate(0 0) scale(1 1)">
</g>
<g style="fill:#000000; fill-opacity:0.0; 
stroke:#000000; stroke-width:39; stroke-opacity:1; 
stroke-linecap:round; stroke-linejoin:round;">
<path d="M4000 4000
L161350 4000
L161350 112930
L4000 112930
L4000 4000
" />
<path d="M4700 4700
L160650 4700
L160650 112230
L4700 112230
L4700 4700
" />
<path d="M26470 4000
L26470 4700
" />
<path d="M15383 4552
L15097 4552
" />
<path d="M15240 4552
L15240 4052
L15192 4124
L15145 4171
L15097 4195
" />
<path d="M26470 112930
L26470 112230
" />
<path d="M15383 112782
L15097 112782
" />
<path d="M15240 112782
L15240 112282
L15192 112354
L15145 112401
L15097 112425
" />
<path d="M48940 4000
L48940 4700
" />
<path d="M37567 4100
L37591 4076
L37639 4052
L37758 4052
L37805 4076
L37829 4100
L37853 4148
L37853 4195
L37829 4267
L37543 4552
L37853 4552
" />
<path d="M48940 112930
L48940 112230
" />
<path d="M37567 112330
L37591 112306
L37639 112282
L37758 112282
L37805 112306
L37829 112330
L37853 112378
L37853 112425
L37829 112497
L37543 112782
L37853 112782
" />
<path d="M71410 4000
L71410 4700
" />
<path d="M60013 4052
L60323 4052
L60156 4243
L60228 4243
L60275 4267
L60299 4290
L60323 4338
L60323 4457
L60299 4505
L60275 4529
L60228 4552
L60085 4552
L60037 4529
L60013 4505
" />
<path d="M71410 112930
L71410 112230
" />
<path d="M60013 112282
L60323 112282
L60156 112473
L60228 112473
L60275 112497
L60299 112520
L60323 112568
L60323 112687
L60299 112735
L60275 112759
L60228 112782
L60085 112782
L60037 112759
L60013 112735
" />
<path d="M93880 4000
L93880 4700
" />
<path d="M82745 4219
L82745 4552
" />
<path d="M82626 4029
L82507 4386
L82817 4386
" />
<path d="M93880 112930
L93880 112230
" />
<path d="M82745 112449
L82745 112782
" />
<path d="M82626 112259
L82507 112616
L82817 112616
" />
<path d="M116350 4000
L116350 4700
" />
<path d="M105239 4052
L105001 4052
L104977 4290
L105001 4267
L105049 4243
L105168 4243
L105215 4267
L105239 4290
L105263 4338
L105263 4457
L105239 4505
L105215 4529
L105168 4552
L105049 4552
L105001 4529
L104977 4505
" />
<path d="M116350 112930
L116350 112230
" />
<path d="M105239 112282
L105001 112282
L104977 112520
L105001 112497
L105049 112473
L105168 112473
L105215 112497
L105239 112520
L105263 112568
L105263 112687
L105239 112735
L105215 112759
L105168 112782
L105049 112782
L105001 112759
L104977 112735
" />
<path d="M138820 4000
L138820 4700
" />
<path d="M127685 4052
L127590 4052
L127542 4076
L127519 4100
L127471 4171
L127447 4267
L127447 4457
L127471 4505
L127495 4529
L127542 4552
L127638 4552
L127685 4529
L127709 4505
L127733 4457
L127733 4338
L127709 4290
L127685 4267
L127638 4243
L127542 4243
L127495 4267
L127471 4290
L127447 4338
" />
<path d="M138820 112930
L138820 112230
" />
<path d="M127685 112282
L127590 112282
L127542 112306
L127519 112330
L127471 112401
L127447 112497
L127447 112687
L127471 112735
L127495 112759
L127542 112782
L127638 112782
L127685 112759
L127709 112735
L127733 112687
L127733 112568
L127709 112520
L127685 112497
L127638 112473
L127542 112473
L127495 112497
L127471 112520
L127447 112568
" />
<path d="M149893 4052
L150227 4052
L150012 4552
" />
<path d="M149893 112282
L150227 112282
L150012 112782
" />
<path d="M4000 25780
L4700 25780
" />
<path d="M4231 14950
L4469 14950
" />
<path d="M4184 15092
L4350 14592
L4517 15092
" />
<path d="M161350 25780
L160650 25780
" />
<path d="M160881 14950
L161119 14950
" />
<path d="M160834 15092
L161000 14592
L161167 15092
" />
<path d="M4000 47560
L4700 47560
" />
<path d="M4386 36610
L4457 36634
L4481 36658
L4505 36706
L4505 36777
L4481 36825
L4457 36849
L4410 36872
L4219 36872
L4219 36372
L4386 36372
L4433 36396
L4457 36420
L4481 36468
L4481 36515
L4457 36563
L4433 36587
L4386 36610
L4219 36610
" />
<path d="M161350 47560
L160650 47560
" />
<path d="M161036 36610
L161107 36634
L161131 36658
L161155 36706
L161155 36777
L161131 36825
L161107 36849
L161060 36872
L160869 36872
L160869 36372
L161036 36372
L161083 36396
L161107 36420
L161131 36468
L161131 36515
L161107 36563
L161083 36587
L161036 36610
L160869 36610
" />
<path d="M4000 69340
L4700 69340
" />
<path d="M4505 58605
L4481 58629
L4410 58652
L4362 58652
L4290 58629
L4243 58581
L4219 58533
L4195 58438
L4195 58367
L4219 58271
L4243 58224
L4290 58176
L4362 58152
L4410 58152
L4481 58176
L4505 58200
" />
<path d="M161350 69340
L160650 69340
" />
<path d="M161155 58605
L161131 58629
L161060 58652
L161012 58652
L160940 58629
L160893 58581
L160869 58533
L160845 58438
L160845 58367
L160869 58271
L160893 58224
L160940 58176
L161012 58152
L161060 58152
L161131 58176
L161155 58200
" />
<path d="M4000 91120
L4700 91120
" />
<path d="M4219 80432
L4219 79932
L4338 79932
L4410 79956
L4457 80004
L4481 80051
L4505 80147
L4505 80218
L4481 80313
L4457 80361
L4410 80409
L4338 80432
L4219 80432
" />
<path d="M161350 91120
L160650 91120
" />
<path d="M160869 80432
L160869 79932
L160988 79932
L161060 79956
L161107 80004
L161131 80051
L161155 80147
L161155 80218
L161131 80313
L161107 80361
L161060 80409
L160988 80432
L160869 80432
" />
<path d="M4243 101950
L4410 101950
" />
<path d="M4481 102212
L4243 102212
L4243 101712
L4481 101712
" />
<path d="M160893 101950
L161060 101950
" />
<path d="M161131 102212
L160893 102212
L160893 101712
L161131 101712
" />
<path d="M127800 110673
L127875 110073
L128018 110073
L128100 110101
L128150 110159
L128171 110216
L128186 110330
L128175 110416
L128132 110530
L128097 110587
L128032 110644
L127943 110673
L127800 110673
" />
<path d="M128657 110673
L128696 110359
L128675 110301
L128621 110273
L128507 110273
L128447 110301
" />
<path d="M128661 110644
L128600 110673
L128457 110673
L128404 110644
L128382 110587
L128389 110530
L128425 110473
L128486 110444
L128629 110444
L128689 110416
" />
<path d="M128907 110273
L129136 110273
" />
<path d="M129018 110073
L128954 110587
L128975 110644
L129029 110673
L129086 110673
" />
<path d="M129518 110644
L129457 110673
L129343 110673
L129290 110644
L129268 110587
L129296 110359
L129333 110301
L129393 110273
L129507 110273
L129561 110301
L129582 110359
L129575 110416
L129282 110473
" />
<path d="M129807 110616
L129832 110644
L129800 110673
L129775 110644
L129807 110616
L129800 110673
" />
<path d="M129847 110301
L129871 110330
L129839 110359
L129814 110330
L129847 110301
L129839 110359
" />
<path d="M130571 110673
L130686 110673
L130747 110644
L130778 110616
L130847 110530
L130889 110416
L130918 110187
L130897 110130
L130872 110101
L130818 110073
L130704 110073
L130643 110101
L130611 110130
L130575 110187
L130557 110330
L130579 110387
L130603 110416
L130658 110444
L130772 110444
L130832 110416
L130865 110387
L130900 110330
" />
<path d="M131571 110673
L131621 110273
" />
<path d="M131614 110330
L131646 110301
L131707 110273
L131792 110273
L131846 110301
L131867 110359
L131828 110673
" />
<path d="M131867 110359
L131904 110301
L131964 110273
L132049 110273
L132104 110301
L132124 110359
L132085 110673
" />
<path d="M132628 110673
L132667 110359
L132646 110301
L132592 110273
L132478 110273
L132418 110301
" />
<path d="M132632 110644
L132571 110673
L132428 110673
L132375 110644
L132353 110587
L132360 110530
L132396 110473
L132457 110444
L132600 110444
L132660 110416
" />
<path d="M132914 110673
L132964 110273
" />
<path d="M132950 110387
L132985 110330
L133018 110301
L133078 110273
L133135 110273
" />
<path d="M133781 110130
L133814 110101
L133874 110073
L134017 110073
L134071 110101
L134096 110130
L134117 110187
L134110 110244
L134071 110330
L133685 110673
L134056 110673
" />
<path d="M134502 110073
L134559 110073
L134613 110101
L134638 110130
L134660 110187
L134674 110301
L134656 110444
L134613 110559
L134577 110616
L134545 110644
L134484 110673
L134427 110673
L134374 110644
L134348 110616
L134327 110559
L134313 110444
L134331 110301
L134374 110187
L134409 110130
L134442 110101
L134502 110073
" />
<path d="M135198 110673
L134855 110673
" />
<path d="M135027 110673
L135102 110073
L135034 110159
L134969 110216
L134909 110244
" />
<path d="M135473 110073
L135844 110073
L135616 110301
L135702 110301
L135755 110330
L135780 110359
L135801 110416
L135783 110559
L135748 110616
L135716 110644
L135655 110673
L135483 110673
L135430 110644
L135405 110616
" />
<path d="M119393 111873
L119393 111273
" />
<path d="M119736 111873
L119479 111530
" />
<path d="M119736 111273
L119393 111616
" />
<path d="M119993 111873
L119993 111473
" />
<path d="M119993 111273
L119964 111301
L119993 111330
L120021 111301
L119993 111273
L119993 111330
" />
<path d="M120622 111816
L120593 111844
L120507 111873
L120450 111873
L120365 111844
L120307 111787
L120279 111730
L120250 111616
L120250 111530
L120279 111416
L120307 111359
L120365 111301
L120450 111273
L120507 111273
L120593 111301
L120622 111330
" />
<path d="M121136 111873
L121136 111559
L121107 111501
L121050 111473
L120936 111473
L120879 111501
" />
<path d="M121136 111844
L121079 111873
L120936 111873
L120879 111844
L120850 111787
L120850 111730
L120879 111673
L120936 111644
L121079 111644
L121136 111616
" />
<path d="M121679 111873
L121679 111273
" />
<path d="M121679 111844
L121622 111873
L121508 111873
L121450 111844
L121422 111816
L121393 111759
L121393 111587
L121422 111530
L121450 111501
L121508 111473
L121622 111473
L121679 111501
" />
<path d="M122422 111559
L122622 111559
" />
<path d="M122708 111873
L122422 111873
L122422 111273
L122708 111273
" />
<path d="M122965 111816
L122993 111844
L122965 111873
L122936 111844
L122965 111816
L122965 111873
" />
<path d="M123251 111873
L123251 111273
L123394 111273
L123479 111301
L123537 111359
L123565 111416
L123594 111530
L123594 111616
L123565 111730
L123537 111787
L123479 111844
L123394 111873
L123251 111873
" />
<path d="M123851 111816
L123879 111844
L123851 111873
L123822 111844
L123851 111816
L123851 111873
" />
<path d="M124108 111701
L124394 111701
" />
<path d="M124051 111873
L124251 111273
L124451 111873
" />
<path d="M124651 111816
L124679 111844
L124651 111873
L124622 111844
L124651 111816
L124651 111873
" />
<path d="M152943 110673
L152779 110387
" />
<path d="M152600 110673
L152675 110073
L152903 110073
L152958 110101
L152982 110130
L153004 110187
L152993 110273
L152957 110330
L152925 110359
L152864 110387
L152636 110387
" />
<path d="M153432 110644
L153371 110673
L153257 110673
L153204 110644
L153182 110587
L153210 110359
L153247 110301
L153307 110273
L153421 110273
L153475 110301
L153496 110359
L153489 110416
L153196 110473
" />
<path d="M153707 110273
L153800 110673
L153992 110273
" />
<path d="M154178 110616
L154203 110644
L154171 110673
L154146 110644
L154178 110616
L154171 110673
" />
<path d="M154218 110301
L154242 110330
L154210 110359
L154185 110330
L154218 110301
L154210 110359
" />
<path d="M119364 110644
L119450 110673
L119593 110673
L119650 110644
L119679 110616
L119707 110559
L119707 110501
L119679 110444
L119650 110416
L119593 110387
L119479 110359
L119421 110330
L119393 110301
L119364 110244
L119364 110187
L119393 110130
L119421 110101
L119479 110073
L119621 110073
L119707 110101
" />
<path d="M119964 110673
L119964 110273
" />
<path d="M119964 110073
L119935 110101
L119964 110130
L119992 110101
L119964 110073
L119964 110130
" />
<path d="M120193 110273
L120507 110273
L120193 110673
L120507 110673
" />
<path d="M120964 110644
L120907 110673
L120793 110673
L120736 110644
L120707 110587
L120707 110359
L120736 110301
L120793 110273
L120907 110273
L120964 110301
L120993 110359
L120993 110416
L120707 110473
" />
<path d="M121250 110616
L121278 110644
L121250 110673
L121221 110644
L121250 110616
L121250 110673
" />
<path d="M121250 110301
L121278 110330
L121250 110359
L121221 110330
L121250 110301
L121250 110359
" />
<path d="M121964 110501
L122250 110501
" />
<path d="M121907 110673
L122107 110073
L122307 110673
" />
<path d="M122450 110073
L122821 110073
L122621 110301
L122707 110301
L122764 110330
L122793 110359
L122821 110416
L122821 110559
L122793 110616
L122764 110644
L122707 110673
L122535 110673
L122478 110644
L122450 110616
" />
<path d="M152593 111873
L152593 111273
" />
<path d="M153136 111873
L153136 111273
" />
<path d="M153136 111844
L153079 111873
L152965 111873
L152907 111844
L152879 111816
L152850 111759
L152850 111587
L152879 111530
L152907 111501
L152965 111473
L153079 111473
L153136 111501
" />
<path d="M153422 111816
L153450 111844
L153422 111873
L153393 111844
L153422 111816
L153422 111873
" />
<path d="M153422 111501
L153450 111530
L153422 111559
L153393 111530
L153422 111501
L153422 111559
" />
<path d="M154479 111873
L154136 111873
" />
<path d="M154308 111873
L154308 111273
L154251 111359
L154193 111416
L154136 111444
" />
<path d="M155164 111244
L154650 112016
" />
<path d="M155679 111873
L155336 111873
" />
<path d="M155508 111873
L155508 111273
L155451 111359
L155393 111416
L155336 111444
" />
<path d="M119389 108873
L119732 108873
" />
<path d="M119486 109473
L119561 108873
" />
<path d="M119857 109473
L119907 109073
" />
<path d="M119932 108873
L119900 108901
L119925 108930
L119957 108901
L119932 108873
L119925 108930
" />
<path d="M120107 109073
L120336 109073
" />
<path d="M120218 108873
L120154 109387
L120175 109444
L120229 109473
L120286 109473
" />
<path d="M120572 109473
L120518 109444
L120497 109387
L120561 108873
" />
<path d="M121032 109444
L120971 109473
L120857 109473
L120804 109444
L120782 109387
L120810 109159
L120847 109101
L120907 109073
L121021 109073
L121075 109101
L121096 109159
L121089 109216
L120796 109273
" />
<path d="M121321 109416
L121346 109444
L121314 109473
L121289 109444
L121321 109416
L121314 109473
" />
<path d="M121361 109101
L121385 109130
L121353 109159
L121328 109130
L121361 109101
L121353 109159
" />
<path d="M119593 106759
L119393 106759
" />
<path d="M119393 107073
L119393 106473
L119679 106473
" />
<path d="M119907 107073
L119907 106673
" />
<path d="M119907 106473
L119878 106501
L119907 106530
L119935 106501
L119907 106473
L119907 106530
" />
<path d="M120279 107073
L120221 107044
L120193 106987
L120193 106473
" />
<path d="M120735 107044
L120678 107073
L120564 107073
L120507 107044
L120478 106987
L120478 106759
L120507 106701
L120564 106673
L120678 106673
L120735 106701
L120764 106759
L120764 106816
L120478 106873
" />
<path d="M121021 107016
L121049 107044
L121021 107073
L120992 107044
L121021 107016
L121021 107073
" />
<path d="M121021 106701
L121049 106730
L121021 106759
L120992 106730
L121021 106701
L121021 106759
" />
<path d="M121764 107073
L121764 106673
" />
<path d="M121764 106730
L121792 106701
L121850 106673
L121935 106673
L121992 106701
L122021 106759
L122021 107073
" />
<path d="M122021 106759
L122050 106701
L122107 106673
L122192 106673
L122250 106701
L122278 106759
L122278 107073
" />
<path d="M122650 107073
L122592 107044
L122564 107016
L122535 106959
L122535 106787
L122564 106730
L122592 106701
L122650 106673
L122735 106673
L122792 106701
L122821 106730
L122850 106787
L122850 106959
L122821 107016
L122792 107044
L122735 107073
L122650 107073
" />
<path d="M123021 106673
L123250 106673
" />
<path d="M123107 106473
L123107 106987
L123135 107044
L123193 107073
L123250 107073
" />
<path d="M123536 107073
L123478 107044
L123450 107016
L123421 106959
L123421 106787
L123450 106730
L123478 106701
L123536 106673
L123621 106673
L123678 106701
L123707 106730
L123736 106787
L123736 106959
L123707 107016
L123678 107044
L123621 107073
L123536 107073
" />
<path d="M123993 106673
L123993 107273
" />
<path d="M123993 106701
L124050 106673
L124164 106673
L124221 106701
L124250 106730
L124279 106787
L124279 106959
L124250 107016
L124221 107044
L124164 107073
L124050 107073
L123993 107044
" />
<path d="M124622 107073
L124564 107044
L124536 106987
L124536 106473
" />
<path d="M124793 106673
L124936 107073
" />
<path d="M125078 106673
L124936 107073
L124878 107216
L124850 107244
L124793 107273
" />
<path d="M125564 106673
L125564 107159
L125535 107216
L125507 107244
L125450 107273
L125364 107273
L125307 107244
" />
<path d="M125564 107044
L125507 107073
L125393 107073
L125335 107044
L125307 107016
L125278 106959
L125278 106787
L125307 106730
L125335 106701
L125393 106673
L125507 106673
L125564 106701
" />
<path d="M126107 107073
L126107 106759
L126078 106701
L126021 106673
L125907 106673
L125850 106701
" />
<path d="M126107 107044
L126050 107073
L125907 107073
L125850 107044
L125821 106987
L125821 106930
L125850 106873
L125907 106844
L126050 106844
L126107 106816
" />
<path d="M126364 107044
L126421 107073
L126536 107073
L126593 107044
L126621 106987
L126621 106959
L126593 106901
L126536 106873
L126450 106873
L126393 106844
L126364 106787
L126364 106759
L126393 106701
L126450 106673
L126536 106673
L126593 106701
" />
<path d="M126879 107016
L126907 107044
L126879 107073
L126850 107044
L126879 107016
L126879 107073
" />
<path d="M127165 107073
L127165 106473
" />
<path d="M127222 106844
L127393 107073
" />
<path d="M127393 106673
L127165 106901
" />
<path d="M127651 107073
L127651 106673
" />
<path d="M127651 106473
L127622 106501
L127651 106530
L127679 106501
L127651 106473
L127651 106530
" />
<path d="M128194 107044
L128137 107073
L128023 107073
L127965 107044
L127937 107016
L127908 106959
L127908 106787
L127937 106730
L127965 106701
L128023 106673
L128137 106673
L128194 106701
" />
<path d="M128708 107073
L128708 106759
L128679 106701
L128622 106673
L128508 106673
L128451 106701
" />
<path d="M128708 107044
L128651 107073
L128508 107073
L128451 107044
L128422 106987
L128422 106930
L128451 106873
L128508 106844
L128651 106844
L128708 106816
" />
<path d="M129251 107073
L129251 106473
" />
<path d="M129251 107044
L129194 107073
L129080 107073
L129022 107044
L128994 107016
L128965 106959
L128965 106787
L128994 106730
L129022 106701
L129080 106673
L129194 106673
L129251 106701
" />
<path d="M129394 107130
L129851 107130
" />
<path d="M129994 106673
L129994 107273
" />
<path d="M129994 106701
L130051 106673
L130165 106673
L130222 106701
L130251 106730
L130280 106787
L130280 106959
L130251 107016
L130222 107044
L130165 107073
L130051 107073
L129994 107044
" />
<path d="M130794 107044
L130737 107073
L130623 107073
L130565 107044
L130537 107016
L130508 106959
L130508 106787
L130537 106730
L130565 106701
L130623 106673
L130737 106673
L130794 106701
" />
<path d="M131051 107073
L131051 106473
" />
<path d="M131051 106701
L131108 106673
L131222 106673
L131279 106701
L131308 106730
L131337 106787
L131337 106959
L131308 107016
L131279 107044
L131222 107073
L131108 107073
L131051 107044
" />
<path d="M119364 108244
L119450 108273
L119593 108273
L119650 108244
L119679 108216
L119707 108159
L119707 108101
L119679 108044
L119650 108016
L119593 107987
L119479 107959
L119421 107930
L119393 107901
L119364 107844
L119364 107787
L119393 107730
L119421 107701
L119479 107673
L119621 107673
L119707 107701
" />
<path d="M119964 108273
L119964 107673
" />
<path d="M120221 108273
L120221 107959
L120192 107901
L120135 107873
L120050 107873
L119992 107901
L119964 107930
" />
<path d="M120735 108244
L120678 108273
L120564 108273
L120507 108244
L120478 108187
L120478 107959
L120507 107901
L120564 107873
L120678 107873
L120735 107901
L120764 107959
L120764 108016
L120478 108073
" />
<path d="M121249 108244
L121192 108273
L121078 108273
L121021 108244
L120992 108187
L120992 107959
L121021 107901
L121078 107873
L121192 107873
L121249 107901
L121278 107959
L121278 108016
L120992 108073
" />
<path d="M121449 107873
L121678 107873
" />
<path d="M121535 107673
L121535 108187
L121563 108244
L121621 108273
L121678 108273
" />
<path d="M121878 108216
L121906 108244
L121878 108273
L121849 108244
L121878 108216
L121878 108273
" />
<path d="M121878 107901
L121906 107930
L121878 107959
L121849 107930
L121878 107901
L121878 107959
" />
<path d="M118650 106230
L118650 112230
" />
<path d="M118650 106230
L160650 106230
" />
<path d="M118650 106230
L160650 106230
" />
<path d="M118650 108630
L160650 108630
" />
<path d="M151850 109830
L151850 112230
" />
<path d="M118650 111030
L160650 111030
" />
<path d="M118650 109830
L160650 109830
" />
<path d="M125250 109830
L125250 111030
" />
</g>
<g style="fill:#00A0A0; fill-opacity:0.0; 
stroke:#00A0A0; stroke-width:80; stroke-opacity:1; 
stroke-linecap:round; stroke-linejoin:round;">
<path d="M73310 56802
L73310 56302
" />
<path d="M73729 56755
L73710 56779
L73653 56802
L73615 56802
L73557 56779
L73519 56731
L73500 56683
L73481 56588
L73481 56517
L73500 56421
L73519 56374
L73557 56326
L73615 56302
L73653 56302
L73710 56326
L73729 56350
" />
<path d="M74110 56802
L73881 56802
" />
<path d="M73995 56802
L73995 56302
L73957 56374
L73919 56421
L73881 56445
" />
<path d="M71967 57910
L72158 57910
" />
<path d="M71929 58052
L72062 57552
L72196 58052
" />
<path d="M72272 57552
L72501 57552
" />
<path d="M72386 58052
L72386 57552
" />
<path d="M72634 58052
L72634 57552
L72768 57910
L72901 57552
L72901 58052
" />
<path d="M73091 57790
L73225 57790
" />
<path d="M73282 58052
L73091 58052
L73091 57552
L73282 57552
" />
<path d="M73663 57576
L73625 57552
L73568 57552
L73510 57576
L73472 57624
L73453 57671
L73434 57767
L73434 57838
L73453 57933
L73472 57981
L73510 58029
L73568 58052
L73606 58052
L73663 58029
L73682 58005
L73682 57838
L73606 57838
" />
<path d="M73834 57910
L74025 57910
" />
<path d="M73796 58052
L73929 57552
L74063 58052
" />
<path d="M74253 57767
L74215 57743
L74196 57719
L74177 57671
L74177 57648
L74196 57600
L74215 57576
L74253 57552
L74330 57552
L74368 57576
L74387 57600
L74406 57648
L74406 57671
L74387 57719
L74368 57743
L74330 57767
L74253 57767
L74215 57790
L74196 57814
L74177 57862
L74177 57957
L74196 58005
L74215 58029
L74253 58052
L74330 58052
L74368 58029
L74387 58005
L74406 57957
L74406 57862
L74387 57814
L74368 57790
L74330 57767
" />
<path d="M74577 57862
L74882 57862
" />
<path d="M75053 57910
L75244 57910
" />
<path d="M75015 58052
L75148 57552
L75282 58052
" />
<path d="M75415 58052
L75415 57552
" />
</g>
<g style="fill:#00A0A0; fill-opacity:0.0; 
stroke:#00A0A0; stroke-width:45; stroke-opacity:1; 
stroke-linecap:round; stroke-linejoin:round;">
<path d="M80221 56581
L80161 56486
" />
<path d="M80118 56581
L80118 56381
L80186 56381
L80204 56390
L80212 56400
L80221 56419
L80221 56448
L80212 56467
L80204 56476
L80186 56486
L80118 56486
" />
<path d="M80289 56400
L80298 56390
L80315 56381
L80358 56381
L80375 56390
L80384 56400
L80392 56419
L80392 56438
L80384 56467
L80281 56581
L80392 56581
" />
<path d="M80221 54581
L80161 54486
" />
<path d="M80118 54581
L80118 54381
L80186 54381
L80204 54390
L80212 54400
L80221 54419
L80221 54448
L80212 54467
L80204 54476
L80186 54486
L80118 54486
" />
<path d="M80281 54381
L80392 54381
L80332 54457
L80358 54457
L80375 54467
L80384 54476
L80392 54495
L80392 54543
L80384 54562
L80375 54571
L80358 54581
L80306 54581
L80289 54571
L80281 54562
" />
<path d="M80221 52581
L80161 52486
" />
<path d="M80118 52581
L80118 52381
L80186 52381
L80204 52390
L80212 52400
L80221 52419
L80221 52448
L80212 52467
L80204 52476
L80186 52486
L80118 52486
" />
<path d="M80375 52381
L80341 52381
L80324 52390
L80315 52400
L80298 52429
L80289 52467
L80289 52543
L80298 52562
L80306 52571
L80324 52581
L80358 52581
L80375 52571
L80384 52562
L80392 52543
L80392 52495
L80384 52476
L80375 52467
L80358 52457
L80324 52457
L80306 52467
L80298 52476
L80289 52495
" />
<path d="M73581 53029
L73486 53089
" />
<path d="M73581 53132
L73381 53132
L73381 53064
L73390 53046
L73400 53038
L73419 53029
L73448 53029
L73467 53038
L73476 53046
L73486 53064
L73486 53132
" />
<path d="M73581 52858
L73581 52961
" />
<path d="M73581 52909
L73381 52909
L73410 52926
L73429 52944
L73438 52961
" />
<path d="M67331 69779
L67236 69839
" />
<path d="M67331 69882
L67131 69882
L67131 69814
L67140 69796
L67150 69788
L67169 69779
L67198 69779
L67217 69788
L67226 69796
L67236 69814
L67236 69882
" />
<path d="M67198 69625
L67331 69625
" />
<path d="M67121 69668
L67264 69711
L67264 69599
" />
<path d="M64331 69779
L64236 69839
" />
<path d="M64331 69882
L64131 69882
L64131 69814
L64140 69796
L64150 69788
L64169 69779
L64198 69779
L64217 69788
L64226 69796
L64236 69814
L64236 69882
" />
<path d="M64131 69616
L64131 69702
L64226 69711
L64217 69702
L64207 69685
L64207 69642
L64217 69625
L64226 69616
L64245 69608
L64293 69608
L64312 69616
L64321 69625
L64331 69642
L64331 69685
L64321 69702
L64312 69711
" />
<path d="M66331 63415
L66236 63475
" />
<path d="M66331 63518
L66131 63518
L66131 63450
L66140 63432
L66150 63424
L66169 63415
L66198 63415
L66217 63424
L66226 63432
L66236 63450
L66236 63518
" />
<path d="M66331 63244
L66331 63347
" />
<path d="M66331 63295
L66131 63295
L66160 63312
L66179 63330
L66188 63347
" />
<path d="M66131 63133
L66131 63116
L66140 63099
L66150 63090
L66169 63081
L66207 63073
L66255 63073
L66293 63081
L66312 63090
L66321 63099
L66331 63116
L66331 63133
L66321 63150
L66312 63159
L66293 63167
L66255 63176
L66207 63176
L66169 63167
L66150 63159
L66140 63150
L66131 63133
" />
<path d="M87221 62312
L87212 62321
L87186 62331
L87169 62331
L87144 62321
L87126 62302
L87118 62283
L87109 62245
L87109 62217
L87118 62179
L87126 62160
L87144 62140
L87169 62131
L87186 62131
L87212 62140
L87221 62150
" />
<path d="M87324 62217
L87306 62207
L87298 62198
L87289 62179
L87289 62169
L87298 62150
L87306 62140
L87324 62131
L87358 62131
L87375 62140
L87384 62150
L87392 62169
L87392 62179
L87384 62198
L87375 62207
L87358 62217
L87324 62217
L87306 62226
L87298 62236
L87289 62255
L87289 62293
L87298 62312
L87306 62321
L87324 62331
L87358 62331
L87375 62321
L87384 62312
L87392 62293
L87392 62255
L87384 62236
L87375 62226
L87358 62217
" />
<path d="M69971 59812
L69962 59821
L69936 59831
L69919 59831
L69894 59821
L69876 59802
L69868 59783
L69859 59745
L69859 59717
L69868 59679
L69876 59660
L69894 59640
L69919 59631
L69936 59631
L69962 59640
L69971 59650
" />
<path d="M70031 59631
L70151 59631
L70074 59831
" />
<path d="M77621 57012
L77612 57021
L77586 57031
L77569 57031
L77544 57021
L77526 57002
L77518 56983
L77509 56945
L77509 56917
L77518 56879
L77526 56860
L77544 56840
L77569 56831
L77586 56831
L77612 56840
L77621 56850
" />
<path d="M77784 56831
L77698 56831
L77689 56926
L77698 56917
L77715 56907
L77758 56907
L77775 56917
L77784 56926
L77792 56945
L77792 56993
L77784 57012
L77775 57021
L77758 57031
L77715 57031
L77698 57021
L77689 57012
" />
<path d="M76612 58179
L76621 58188
L76631 58214
L76631 58231
L76621 58256
L76602 58274
L76583 58282
L76545 58291
L76517 58291
L76479 58282
L76460 58274
L76440 58256
L76431 58231
L76431 58214
L76440 58188
L76450 58179
" />
<path d="M76498 58025
L76631 58025
" />
<path d="M76421 58068
L76564 58111
L76564 57999
" />
<path d="M70421 57812
L70412 57821
L70386 57831
L70369 57831
L70344 57821
L70326 57802
L70318 57783
L70309 57745
L70309 57717
L70318 57679
L70326 57660
L70344 57640
L70369 57631
L70386 57631
L70412 57640
L70421 57650
" />
<path d="M70575 57631
L70541 57631
L70524 57640
L70515 57650
L70498 57679
L70489 57717
L70489 57793
L70498 57812
L70506 57821
L70524 57831
L70558 57831
L70575 57821
L70584 57812
L70592 57793
L70592 57745
L70584 57726
L70575 57717
L70558 57707
L70524 57707
L70506 57717
L70498 57726
L70489 57745
" />
<path d="M68721 58562
L68712 58571
L68686 58581
L68669 58581
L68644 58571
L68626 58552
L68618 58533
L68609 58495
L68609 58467
L68618 58429
L68626 58410
L68644 58390
L68669 58381
L68686 58381
L68712 58390
L68721 58400
" />
<path d="M68781 58381
L68892 58381
L68832 58457
L68858 58457
L68875 58467
L68884 58476
L68892 58495
L68892 58543
L68884 58562
L68875 58571
L68858 58581
L68806 58581
L68789 58571
L68781 58562
" />
<path d="M72812 53029
L72821 53038
L72831 53064
L72831 53081
L72821 53106
L72802 53124
L72783 53132
L72745 53141
L72717 53141
L72679 53132
L72660 53124
L72640 53106
L72631 53081
L72631 53064
L72640 53038
L72650 53029
" />
<path d="M72831 52858
L72831 52961
" />
<path d="M72831 52909
L72631 52909
L72660 52926
L72679 52944
L72688 52961
" />
<path d="M70421 56812
L70412 56821
L70386 56831
L70369 56831
L70344 56821
L70326 56802
L70318 56783
L70309 56745
L70309 56717
L70318 56679
L70326 56660
L70344 56640
L70369 56631
L70386 56631
L70412 56640
L70421 56650
" />
<path d="M70489 56650
L70498 56640
L70515 56631
L70558 56631
L70575 56640
L70584 56650
L70592 56669
L70592 56688
L70584 56717
L70481 56831
L70592 56831
" />
</g>
<g style="fill:#00A0A0; fill-opacity:0.0; 
stroke:#00A0A0; stroke-width:80; stroke-opacity:1; 
stroke-linecap:round; stroke-linejoin:round;">
</g>
<g style="fill:#00A0A0; fill-opacity:0.0; 
stroke:#00A0A0; stroke-width:75; stroke-opacity:1; 
stroke-linecap:round; stroke-linejoin:round;">
<path d="M66250 63279
L66236 63307
L66207 63336
L66164 63379
L66150 63407
L66150 63436
" />
<path d="M66221 63421
L66207 63450
L66179 63479
L66121 63493
L66021 63493
L65964 63479
L65936 63450
L65921 63421
L65921 63364
L65936 63336
L65964 63307
L66021 63293
L66121 63293
L66179 63307
L66207 63336
L66221 63364
L66221 63421
" />
<path d="M65921 63193
L65921 63007
L66036 63107
L66036 63065
L66050 63036
L66064 63022
L66093 63007
L66164 63007
L66193 63022
L66207 63036
L66221 63065
L66221 63150
L66207 63179
L66193 63193
" />
</g>
<g style="fill:#00A0A0; fill-opacity:0.0; 
stroke:#00A0A0; stroke-width:80; stroke-opacity:1; 
stroke-linecap:round; stroke-linejoin:round;">
</g>
<g style="fill:#00A0A0; fill-opacity:0.0; 
stroke:#00A0A0; stroke-width:75; stroke-opacity:1; 
stroke-linecap:round; stroke-linejoin:round;">
<path d="M65371 64300
L65071 64300
L65286 64200
L65071 64100
L65371 64100
" />
<path d="M65071 63899
L65071 63842
L65086 63814
L65114 63785
L65171 63771
L65271 63771
L65329 63785
L65357 63814
L65371 63842
L65371 63899
L65357 63928
L65329 63957
L65271 63971
L65171 63971
L65114 63957
L65086 63928
L65071 63899
" />
<path d="M65357 63657
L65371 63614
L65371 63543
L65357 63514
L65343 63500
L65314 63485
L65286 63485
L65257 63500
L65243 63514
L65229 63543
L65214 63600
L65200 63628
L65186 63643
L65157 63657
L65129 63657
L65100 63643
L65086 63628
L65071 63600
L65071 63528
L65086 63485
" />
<path d="M65214 63257
L65214 63357
" />
<path d="M65371 63357
L65071 63357
L65071 63214
" />
<path d="M65214 63100
L65214 63000
" />
<path d="M65371 62957
L65371 63100
L65071 63100
L65071 62957
" />
<path d="M65071 62871
L65071 62700
" />
<path d="M65371 62786
L65071 62786
" />
<path d="M65400 62671
L65400 62442
" />
<path d="M65371 62371
L65071 62371
L65371 62199
L65071 62199
" />
</g>
<g style="fill:#00A0A0; fill-opacity:0.0; 
stroke:#00A0A0; stroke-width:80; stroke-opacity:1; 
stroke-linecap:round; stroke-linejoin:round;">
</g>
<g style="fill:#00A0A0; fill-opacity:0.0; 
stroke:#00A0A0; stroke-width:120; stroke-opacity:1; 
stroke-linecap:round; stroke-linejoin:round;">
<path d="M76772 94493
L76772 93893
L77000 93893
L77058 93921
L77086 93950
L77115 94007
L77115 94093
L77086 94150
L77058 94179
L77000 94207
L76772 94207
" />
<path d="M77686 94493
L77343 94493
" />
<path d="M77515 94493
L77515 93893
L77458 93979
L77400 94036
L77343 94064
" />
<path d="M78257 94493
L77914 94493
" />
<path d="M78086 94493
L78086 93893
L78029 93979
L77971 94036
L77914 94064
" />
<path d="M76619 98115
L76648 98086
L76705 98058
L76848 98058
L76905 98086
L76934 98115
L76962 98172
L76962 98229
L76934 98315
L76591 98658
L76962 98658
" />
<path d="M77476 98258
L77476 98658
" />
<path d="M77333 98029
L77190 98458
L77562 98458
" />
<path d="M77904 98058
L77961 98058
L78018 98086
L78047 98115
L78076 98172
L78104 98286
L78104 98429
L78076 98544
L78047 98601
L78018 98629
L77961 98658
L77904 98658
L77847 98629
L77818 98601
L77790 98544
L77761 98429
L77761 98286
L77790 98172
L77818 98115
L77847 98086
L77904 98058
" />
<path d="M78275 98058
L78475 98658
L78675 98058
" />
</g>
<g style="fill:#00A0A0; fill-opacity:0.0; 
stroke:#00A0A0; stroke-width:60; stroke-opacity:1; 
stroke-linecap:round; stroke-linejoin:round;">
<path d="M89500 80121
L89500 79821
" />
<path d="M89500 79964
L89672 79964
" />
<path d="M89672 80121
L89672 79821
" />
<path d="M89872 79821
L89929 79821
L89957 79836
L89986 79864
L90000 79921
L90000 80021
L89986 80079
L89957 80107
L89929 80121
L89872 80121
L89843 80107
L89814 80079
L89800 80021
L89800 79921
L89814 79864
L89843 79836
L89872 79821
" />
<path d="M90271 80121
L90128 80121
L90128 79821
" />
<path d="M90371 79964
L90471 79964
" />
<path d="M90514 80121
L90371 80121
L90371 79821
L90514 79821
" />
<path d="M89500 50121
L89500 49821
" />
<path d="M89500 49964
L89672 49964
" />
<path d="M89672 50121
L89672 49821
" />
<path d="M89872 49821
L89929 49821
L89957 49836
L89986 49864
L90000 49921
L90000 50021
L89986 50079
L89957 50107
L89929 50121
L89872 50121
L89843 50107
L89814 50079
L89800 50021
L89800 49921
L89814 49864
L89843 49836
L89872 49821
" />
<path d="M90271 50121
L90128 50121
L90128 49821
" />
<path d="M90371 49964
L90471 49964
" />
<path d="M90514 50121
L90371 50121
L90371 49821
L90514 49821
" />
<path d="M57500 50121
L57500 49821
" />
<path d="M57500 49964
L57672 49964
" />
<path d="M57672 50121
L57672 49821
" />
<path d="M57872 49821
L57929 49821
L57957 49836
L57986 49864
L58000 49921
L58000 50021
L57986 50079
L57957 50107
L57929 50121
L57872 50121
L57843 50107
L57814 50079
L57800 50021
L57800 49921
L57814 49864
L57843 49836
L57872 49821
" />
<path d="M58271 50121
L58128 50121
L58128 49821
" />
<path d="M58371 49964
L58471 49964
" />
<path d="M58514 50121
L58371 50121
L58371 49821
L58514 49821
" />
<path d="M57500 80121
L57500 79821
" />
<path d="M57500 79964
L57672 79964
" />
<path d="M57672 80121
L57672 79821
" />
<path d="M57872 79821
L57929 79821
L57957 79836
L57986 79864
L58000 79921
L58000 80021
L57986 80079
L57957 80107
L57929 80121
L57872 80121
L57843 80107
L57814 80079
L57800 80021
L57800 79921
L57814 79864
L57843 79836
L57872 79821
" />
<path d="M58271 80121
L58128 80121
L58128 79821
" />
<path d="M58371 79964
L58471 79964
" />
<path d="M58514 80121
L58371 80121
L58371 79821
L58514 79821
" />
</g>
<g style="fill:#00A0A0; fill-opacity:0.0; 
stroke:#00A0A0; stroke-width:45; stroke-opacity:1; 
stroke-linecap:round; stroke-linejoin:round;">
<path d="M85831 61529
L85736 61589
" />
<path d="M85831 61632
L85631 61632
L85631 61564
L85640 61546
L85650 61538
L85669 61529
L85698 61529
L85717 61538
L85726 61546
L85736 61564
L85736 61632
" />
<path d="M85631 61469
L85631 61349
L85831 61426
" />
</g>
<g style="fill:#00A0A0; fill-opacity:0.0; 
stroke:#00A0A0; stroke-width:26; stroke-opacity:1; 
stroke-linecap:round; stroke-linejoin:round;">
<path d="M84735 61250
L84794 61250
" />
<path d="M84794 61250
L84794 61132
" />
<path d="M84735 61132
L84794 61132
" />
<path d="M84735 61250
L84735 61132
" />
<path d="M85206 61250
L85265 61250
" />
<path d="M85265 61250
L85265 61132
" />
<path d="M85206 61132
L85265 61132
" />
<path d="M85206 61250
L85206 61132
" />
<path d="M84941 61250
L85059 61250
" />
<path d="M85059 61250
L85059 61132
" />
<path d="M84941 61132
L85059 61132
" />
<path d="M84941 61250
L84941 61132
" />
<path d="M84735 61073
L85265 61073
" />
<path d="M85265 61073
L85265 60837
" />
<path d="M84735 60837
L85265 60837
" />
<path d="M84735 61073
L84735 60837
" />
<path d="M84735 61663
L85265 61663
" />
<path d="M85265 61663
L85265 61427
" />
<path d="M84735 61427
L85265 61427
" />
<path d="M84735 61663
L84735 61427
" />
</g>
<g style="fill:#00A0A0; fill-opacity:0.0; 
stroke:#00A0A0; stroke-width:40; stroke-opacity:1; 
stroke-linecap:round; stroke-linejoin:round;">
<path d="M84754 61073
L84754 61427
" />
<path d="M85246 61073
L85246 61437
" />
</g>
<g style="fill:#00A0A0; fill-opacity:0.0; 
stroke:#00A0A0; stroke-width:60; stroke-opacity:1; 
stroke-linecap:round; stroke-linejoin:round;">
<path d="M75680 58190
L75230 58190
" />
<path d="M75680 56010
L75240 56010
" />
<path d="M75680 58190
L75680 56010
" />
<path d="M74800 58660
L74800 59090
" />
<path d="M72590 58670
L72590 59090
" />
<path d="M72580 59090
L74800 59100
" />
<path d="M72600 55120
L74770 55110
" />
<path d="M72170 55810
L72170 58640
" />
<path d="M74780 55120
L74780 55530
" />
<path d="M72420 55570
L75200 55570
" />
<path d="M75220 58650
L75220 55610
" />
<path d="M72170 58650
L75170 58650
" />
<path d="M71720 55980
L71720 58200
" />
<path d="M71720 58200
L72170 58200
" />
<path d="M72174 55800
L72404 55570
" />
<path d="M71722 55980
L72174 55980
" />
<path d="M72600 55570
L72600 55118
" />
<circle cx="72582" cy="55974" r="188" /> 
</g>
<g style="fill:#00A0A0; fill-opacity:0.0; 
stroke:#00A0A0; stroke-width:50; stroke-opacity:1; 
stroke-linecap:round; stroke-linejoin:round;">
<path d="M79800 56250
L80700 56250
" />
<path d="M80700 56250
L80700 56750
" />
<path d="M80700 56750
L79800 56750
" />
<path d="M79800 56750
L79800 56250
" />
<path d="M79800 54250
L80700 54250
" />
<path d="M80700 54250
L80700 54750
" />
<path d="M80700 54750
L79800 54750
" />
<path d="M79800 54750
L79800 54250
" />
<path d="M79800 52250
L80700 52250
" />
<path d="M80700 52250
L80700 52750
" />
<path d="M80700 52750
L79800 52750
" />
<path d="M79800 52750
L79800 52250
" />
<path d="M73250 53450
L73250 52550
" />
<path d="M73250 52550
L73750 52550
" />
<path d="M73750 52550
L73750 53450
" />
<path d="M73750 53450
L73250 53450
" />
<path d="M67500 69300
L67500 70200
" />
<path d="M67500 70200
L67000 70200
" />
<path d="M67000 70200
L67000 69300
" />
<path d="M67000 69300
L67500 69300
" />
<path d="M64500 69300
L64500 70200
" />
<path d="M64500 70200
L64000 70200
" />
<path d="M64000 70200
L64000 69300
" />
<path d="M64000 69300
L64500 69300
" />
<path d="M66000 63750
L66000 62850
" />
<path d="M66000 62850
L66500 62850
" />
<path d="M66500 62850
L66500 63750
" />
<path d="M66500 63750
L66000 63750
" />
<path d="M86800 62000
L87700 62000
" />
<path d="M87700 62000
L87700 62500
" />
<path d="M87700 62500
L86800 62500
" />
<path d="M86800 62500
L86800 62000
" />
<path d="M69550 59500
L70450 59500
" />
<path d="M70450 59500
L70450 60000
" />
<path d="M70450 60000
L69550 60000
" />
<path d="M69550 60000
L69550 59500
" />
<path d="M78100 57200
L77200 57200
" />
<path d="M77200 57200
L77200 56700
" />
<path d="M77200 56700
L78100 56700
" />
<path d="M78100 56700
L78100 57200
" />
<path d="M76300 58600
L76300 57700
" />
<path d="M76300 57700
L76800 57700
" />
<path d="M76800 57700
L76800 58600
" />
<path d="M76800 58600
L76300 58600
" />
<path d="M70000 57500
L70900 57500
" />
<path d="M70900 57500
L70900 58000
" />
<path d="M70900 58000
L70000 58000
" />
<path d="M70000 58000
L70000 57500
" />
<path d="M68300 58250
L69200 58250
" />
<path d="M69200 58250
L69200 58750
" />
<path d="M69200 58750
L68300 58750
" />
<path d="M68300 58750
L68300 58250
" />
<path d="M72500 53450
L72500 52550
" />
<path d="M72500 52550
L73000 52550
" />
<path d="M73000 52550
L73000 53450
" />
<path d="M73000 53450
L72500 53450
" />
<path d="M70900 57000
L70000 57000
" />
<path d="M70000 57000
L70000 56500
" />
<path d="M70000 56500
L70900 56500
" />
<path d="M70900 56500
L70900 57000
" />
</g>
<g style="fill:#00A0A0; fill-opacity:0.0; 
stroke:#00A0A0; stroke-width:26; stroke-opacity:1; 
stroke-linecap:round; stroke-linejoin:round;">
<path d="M64554 66475
L64554 66265
" />
<path d="M64554 66265
L63696 66265
" />
<path d="M63696 66475
L63696 66265
" />
<path d="M64554 66475
L63696 66475
" />
<path d="M64554 64485
L64554 64275
" />
<path d="M64554 64275
L63696 64275
" />
<path d="M63696 64485
L63696 64275
" />
<path d="M64554 64485
L63696 64485
" />
<path d="M64873 65906
L64873 65689
" />
<path d="M64873 65689
L63377 65689
" />
<path d="M63377 65906
L63377 65689
" />
<path d="M64873 65906
L63377 65906
" />
</g>
<g style="fill:#00A0A0; fill-opacity:0.0; 
stroke:#00A0A0; stroke-width:40; stroke-opacity:1; 
stroke-linecap:round; stroke-linejoin:round;">
<path d="M63375 66265
L63375 64485
" />
<path d="M64875 66265
L64875 64485
" />
<path d="M64875 66265
L63375 66265
" />
<path d="M64875 64485
L63375 64485
" />
</g>
<g style="fill:#00A0A0; fill-opacity:0.0; 
stroke:#00A0A0; stroke-width:80; stroke-opacity:1; 
stroke-linecap:round; stroke-linejoin:round;">
<path d="M63732 65300
L64125 65701
" />
<path d="M64125 65701
L64518 65300
" />
<path d="M64518 65300
L63732 65300
" />
</g>
<g style="fill:#00A0A0; fill-opacity:0.0; 
stroke:#00A0A0; stroke-width:50; stroke-opacity:1; 
stroke-linecap:round; stroke-linejoin:round;">
<path d="M65400 62650
L65400 63850
" />
<path d="M65400 63850
L65100 63850
" />
<path d="M65100 63850
L65100 62650
" />
<path d="M65100 62650
L65400 62650
" />
</g>
<g style="fill:#00A0A0; fill-opacity:0.0; 
stroke:#00A0A0; stroke-width:60; stroke-opacity:1; 
stroke-linecap:round; stroke-linejoin:round;">
<path d="M62600 73550
L64600 73550
" />
<path d="M64600 71250
L62600 71250
" />
<path d="M62600 73550
L62600 71250
" />
<path d="M64600 73550
L64600 72800
" />
<path d="M64600 71250
L64600 72000
" />
<path d="M64600 72000 A400 400 0.0 0 0 64600 72800 " />
<path d="M65600 73550
L67600 73550
" />
<path d="M67600 71250
L65600 71250
" />
<path d="M65600 73550
L65600 71250
" />
<path d="M67600 73550
L67600 72800
" />
<path d="M67600 71250
L67600 72000
" />
<path d="M67600 72000 A400 400 0.0 0 0 67600 72800 " />
</g>
<g style="fill:#00A0A0; fill-opacity:0.0; 
stroke:#00A0A0; stroke-width:120; stroke-opacity:1; 
stroke-linecap:round; stroke-linejoin:round;">
<path d="M78878 97250
L76122 97250
" />
<path d="M78878 97825
L78878 95069
" />
<path d="M78878 95069
L76122 95069
" />
<path d="M76122 95069
L76122 97825
" />
<path d="M76122 97825
L78878 97825
" />
</g>
<g style="fill:#00A0A0; fill-opacity:0.0; 
stroke:#00A0A0; stroke-width:80; stroke-opacity:1; 
stroke-linecap:round; stroke-linejoin:round;">
<circle cx="90000" cy="80000" r="1200" /> 
<circle cx="90000" cy="80000" r="630" /> 
<circle cx="90000" cy="50000" r="1200" /> 
<circle cx="90000" cy="50000" r="630" /> 
<circle cx="58000" cy="50000" r="1200" /> 
<circle cx="58000" cy="50000" r="630" /> 
<circle cx="58000" cy="80000" r="1200" /> 
<circle cx="58000" cy="80000" r="630" /> 
</g>
<g style="fill:#00A0A0; fill-opacity:0.0; 
stroke:#00A0A0; stroke-width:50; stroke-opacity:1; 
stroke-linecap:round; stroke-linejoin:round;">
<path d="M85500 61950
L85500 61050
" />
<path d="M85500 61050
L86000 61050
" />
<path d="M86000 61050
L86000 61950
" />
<path d="M86000 61950
L85500 61950
" />
</g>
<g style="fill:#808000; fill-opacity:0.0; 
stroke:#808000; stroke-width:39; stroke-opacity:1; 
stroke-linecap:round; stroke-linejoin:round;">
</g>
<g style="fill:#808000; fill-opacity:1.0; 
stroke:#808000; stroke-width:39; stroke-opacity:1; 
stroke-linecap:round; stroke-linejoin:round;">
<polyline style="fill-rule:evenodd;"
points="89480,56480
86020,56480
86020,53020
89480,53020
89480,56480
" /> 
<circle cx="85750" cy="76250" r="280.5" /> 
<circle cx="85750" cy="74250" r="280.5" /> 
<circle cx="87750" cy="74250" r="280.5" /> 
<circle cx="87750" cy="76250" r="280.5" /> 
</g>
<g style="fill:#808000; fill-opacity:1.0; 
stroke:#808000; stroke-width:520; stroke-opacity:1; 
stroke-linecap:round; stroke-linejoin:round;">
<path d="M64100 71160
L64100 70640
" />
<path d="M63100 71160
L63100 70640
" />
<path d="M63100 74160
L63100 73640
" />
<path d="M64100 74160
L64100 73640
" />
<path d="M67100 71160
L67100 70640
" />
<path d="M66100 71160
L66100 70640
" />
<path d="M66100 74160
L66100 73640
" />
<path d="M67100 74160
L67100 73640
" />
</g>
<g style="fill:#808000; fill-opacity:1.0; 
stroke:#808000; stroke-width:39; stroke-opacity:1; 
stroke-linecap:round; stroke-linejoin:round;">
<polyline style="fill-rule:evenodd;"
points="76331,96730
76331,95770
77291,95770
77291,96730
76331,96730
" /> 
<circle cx="78189" cy="96250" r="480.5" /> 
<circle cx="90000" cy="80000" r="1161.5" /> 
<circle cx="90000" cy="50000" r="1161.5" /> 
<circle cx="58000" cy="50000" r="1161.5" /> 
<circle cx="58000" cy="80000" r="1161.5" /> 
</g> 
</svg>
