<?xml version="1.0" standalone="no"?>
 <!DOCTYPE svg PUBLIC "-//W3C//DTD SVG 1.1//EN" 
 "http://www.w3.org/Graphics/SVG/1.1/DTD/svg11.dtd"> 
<svg xmlns="http://www.w3.org/2000/svg" version="1.1" 
    width="41.9989cm" height="29.7002cm" viewBox="0 0 165350 116930 ">
<title>SVG Picture created as motoplygas-B_SilkS.svg date 2013/03/09 15:19:02 </title>
  <desc>Picture generated by PCBNEW </desc>
<g style="fill:#000000; fill-opacity:1;stroke:#000000; stroke-opacity:1;
stroke-linecap:round; stroke-linejoin:round; "
 transform="translate(0 0) scale(1 1)">
</g>
<g style="fill:#000000; fill-opacity:0.0; 
stroke:#000000; stroke-width:39; stroke-opacity:1; 
stroke-linecap:round; stroke-linejoin:round;">
<path d="M4000 4000
L161350 4000
L161350 112930
L4000 112930
L4000 4000
" />
<path d="M4700 4700
L160650 4700
L160650 112230
L4700 112230
L4700 4700
" />
<path d="M26470 4000
L26470 4700
" />
<path d="M15383 4552
L15097 4552
" />
<path d="M15240 4552
L15240 4052
L15192 4124
L15145 4171
L15097 4195
" />
<path d="M26470 112930
L26470 112230
" />
<path d="M15383 112782
L15097 112782
" />
<path d="M15240 112782
L15240 112282
L15192 112354
L15145 112401
L15097 112425
" />
<path d="M48940 4000
L48940 4700
" />
<path d="M37567 4100
L37591 4076
L37639 4052
L37758 4052
L37805 4076
L37829 4100
L37853 4148
L37853 4195
L37829 4267
L37543 4552
L37853 4552
" />
<path d="M48940 112930
L48940 112230
" />
<path d="M37567 112330
L37591 112306
L37639 112282
L37758 112282
L37805 112306
L37829 112330
L37853 112378
L37853 112425
L37829 112497
L37543 112782
L37853 112782
" />
<path d="M71410 4000
L71410 4700
" />
<path d="M60013 4052
L60323 4052
L60156 4243
L60228 4243
L60275 4267
L60299 4290
L60323 4338
L60323 4457
L60299 4505
L60275 4529
L60228 4552
L60085 4552
L60037 4529
L60013 4505
" />
<path d="M71410 112930
L71410 112230
" />
<path d="M60013 112282
L60323 112282
L60156 112473
L60228 112473
L60275 112497
L60299 112520
L60323 112568
L60323 112687
L60299 112735
L60275 112759
L60228 112782
L60085 112782
L60037 112759
L60013 112735
" />
<path d="M93880 4000
L93880 4700
" />
<path d="M82745 4219
L82745 4552
" />
<path d="M82626 4029
L82507 4386
L82817 4386
" />
<path d="M93880 112930
L93880 112230
" />
<path d="M82745 112449
L82745 112782
" />
<path d="M82626 112259
L82507 112616
L82817 112616
" />
<path d="M116350 4000
L116350 4700
" />
<path d="M105239 4052
L105001 4052
L104977 4290
L105001 4267
L105049 4243
L105168 4243
L105215 4267
L105239 4290
L105263 4338
L105263 4457
L105239 4505
L105215 4529
L105168 4552
L105049 4552
L105001 4529
L104977 4505
" />
<path d="M116350 112930
L116350 112230
" />
<path d="M105239 112282
L105001 112282
L104977 112520
L105001 112497
L105049 112473
L105168 112473
L105215 112497
L105239 112520
L105263 112568
L105263 112687
L105239 112735
L105215 112759
L105168 112782
L105049 112782
L105001 112759
L104977 112735
" />
<path d="M138820 4000
L138820 4700
" />
<path d="M127685 4052
L127590 4052
L127542 4076
L127519 4100
L127471 4171
L127447 4267
L127447 4457
L127471 4505
L127495 4529
L127542 4552
L127638 4552
L127685 4529
L127709 4505
L127733 4457
L127733 4338
L127709 4290
L127685 4267
L127638 4243
L127542 4243
L127495 4267
L127471 4290
L127447 4338
" />
<path d="M138820 112930
L138820 112230
" />
<path d="M127685 112282
L127590 112282
L127542 112306
L127519 112330
L127471 112401
L127447 112497
L127447 112687
L127471 112735
L127495 112759
L127542 112782
L127638 112782
L127685 112759
L127709 112735
L127733 112687
L127733 112568
L127709 112520
L127685 112497
L127638 112473
L127542 112473
L127495 112497
L127471 112520
L127447 112568
" />
<path d="M149893 4052
L150227 4052
L150012 4552
" />
<path d="M149893 112282
L150227 112282
L150012 112782
" />
<path d="M4000 25780
L4700 25780
" />
<path d="M4231 14950
L4469 14950
" />
<path d="M4184 15092
L4350 14592
L4517 15092
" />
<path d="M161350 25780
L160650 25780
" />
<path d="M160881 14950
L161119 14950
" />
<path d="M160834 15092
L161000 14592
L161167 15092
" />
<path d="M4000 47560
L4700 47560
" />
<path d="M4386 36610
L4457 36634
L4481 36658
L4505 36706
L4505 36777
L4481 36825
L4457 36849
L4410 36872
L4219 36872
L4219 36372
L4386 36372
L4433 36396
L4457 36420
L4481 36468
L4481 36515
L4457 36563
L4433 36587
L4386 36610
L4219 36610
" />
<path d="M161350 47560
L160650 47560
" />
<path d="M161036 36610
L161107 36634
L161131 36658
L161155 36706
L161155 36777
L161131 36825
L161107 36849
L161060 36872
L160869 36872
L160869 36372
L161036 36372
L161083 36396
L161107 36420
L161131 36468
L161131 36515
L161107 36563
L161083 36587
L161036 36610
L160869 36610
" />
<path d="M4000 69340
L4700 69340
" />
<path d="M4505 58605
L4481 58629
L4410 58652
L4362 58652
L4290 58629
L4243 58581
L4219 58533
L4195 58438
L4195 58367
L4219 58271
L4243 58224
L4290 58176
L4362 58152
L4410 58152
L4481 58176
L4505 58200
" />
<path d="M161350 69340
L160650 69340
" />
<path d="M161155 58605
L161131 58629
L161060 58652
L161012 58652
L160940 58629
L160893 58581
L160869 58533
L160845 58438
L160845 58367
L160869 58271
L160893 58224
L160940 58176
L161012 58152
L161060 58152
L161131 58176
L161155 58200
" />
<path d="M4000 91120
L4700 91120
" />
<path d="M4219 80432
L4219 79932
L4338 79932
L4410 79956
L4457 80004
L4481 80051
L4505 80147
L4505 80218
L4481 80313
L4457 80361
L4410 80409
L4338 80432
L4219 80432
" />
<path d="M161350 91120
L160650 91120
" />
<path d="M160869 80432
L160869 79932
L160988 79932
L161060 79956
L161107 80004
L161131 80051
L161155 80147
L161155 80218
L161131 80313
L161107 80361
L161060 80409
L160988 80432
L160869 80432
" />
<path d="M4243 101950
L4410 101950
" />
<path d="M4481 102212
L4243 102212
L4243 101712
L4481 101712
" />
<path d="M160893 101950
L161060 101950
" />
<path d="M161131 102212
L160893 102212
L160893 101712
L161131 101712
" />
<path d="M127800 110673
L127875 110073
L128018 110073
L128100 110101
L128150 110159
L128171 110216
L128186 110330
L128175 110416
L128132 110530
L128097 110587
L128032 110644
L127943 110673
L127800 110673
" />
<path d="M128657 110673
L128696 110359
L128675 110301
L128621 110273
L128507 110273
L128447 110301
" />
<path d="M128661 110644
L128600 110673
L128457 110673
L128404 110644
L128382 110587
L128389 110530
L128425 110473
L128486 110444
L128629 110444
L128689 110416
" />
<path d="M128907 110273
L129136 110273
" />
<path d="M129018 110073
L128954 110587
L128975 110644
L129029 110673
L129086 110673
" />
<path d="M129518 110644
L129457 110673
L129343 110673
L129290 110644
L129268 110587
L129296 110359
L129333 110301
L129393 110273
L129507 110273
L129561 110301
L129582 110359
L129575 110416
L129282 110473
" />
<path d="M129807 110616
L129832 110644
L129800 110673
L129775 110644
L129807 110616
L129800 110673
" />
<path d="M129847 110301
L129871 110330
L129839 110359
L129814 110330
L129847 110301
L129839 110359
" />
<path d="M130571 110673
L130686 110673
L130747 110644
L130778 110616
L130847 110530
L130889 110416
L130918 110187
L130897 110130
L130872 110101
L130818 110073
L130704 110073
L130643 110101
L130611 110130
L130575 110187
L130557 110330
L130579 110387
L130603 110416
L130658 110444
L130772 110444
L130832 110416
L130865 110387
L130900 110330
" />
<path d="M131571 110673
L131621 110273
" />
<path d="M131614 110330
L131646 110301
L131707 110273
L131792 110273
L131846 110301
L131867 110359
L131828 110673
" />
<path d="M131867 110359
L131904 110301
L131964 110273
L132049 110273
L132104 110301
L132124 110359
L132085 110673
" />
<path d="M132628 110673
L132667 110359
L132646 110301
L132592 110273
L132478 110273
L132418 110301
" />
<path d="M132632 110644
L132571 110673
L132428 110673
L132375 110644
L132353 110587
L132360 110530
L132396 110473
L132457 110444
L132600 110444
L132660 110416
" />
<path d="M132914 110673
L132964 110273
" />
<path d="M132950 110387
L132985 110330
L133018 110301
L133078 110273
L133135 110273
" />
<path d="M133781 110130
L133814 110101
L133874 110073
L134017 110073
L134071 110101
L134096 110130
L134117 110187
L134110 110244
L134071 110330
L133685 110673
L134056 110673
" />
<path d="M134502 110073
L134559 110073
L134613 110101
L134638 110130
L134660 110187
L134674 110301
L134656 110444
L134613 110559
L134577 110616
L134545 110644
L134484 110673
L134427 110673
L134374 110644
L134348 110616
L134327 110559
L134313 110444
L134331 110301
L134374 110187
L134409 110130
L134442 110101
L134502 110073
" />
<path d="M135198 110673
L134855 110673
" />
<path d="M135027 110673
L135102 110073
L135034 110159
L134969 110216
L134909 110244
" />
<path d="M135473 110073
L135844 110073
L135616 110301
L135702 110301
L135755 110330
L135780 110359
L135801 110416
L135783 110559
L135748 110616
L135716 110644
L135655 110673
L135483 110673
L135430 110644
L135405 110616
" />
<path d="M119393 111873
L119393 111273
" />
<path d="M119736 111873
L119479 111530
" />
<path d="M119736 111273
L119393 111616
" />
<path d="M119993 111873
L119993 111473
" />
<path d="M119993 111273
L119964 111301
L119993 111330
L120021 111301
L119993 111273
L119993 111330
" />
<path d="M120622 111816
L120593 111844
L120507 111873
L120450 111873
L120365 111844
L120307 111787
L120279 111730
L120250 111616
L120250 111530
L120279 111416
L120307 111359
L120365 111301
L120450 111273
L120507 111273
L120593 111301
L120622 111330
" />
<path d="M121136 111873
L121136 111559
L121107 111501
L121050 111473
L120936 111473
L120879 111501
" />
<path d="M121136 111844
L121079 111873
L120936 111873
L120879 111844
L120850 111787
L120850 111730
L120879 111673
L120936 111644
L121079 111644
L121136 111616
" />
<path d="M121679 111873
L121679 111273
" />
<path d="M121679 111844
L121622 111873
L121508 111873
L121450 111844
L121422 111816
L121393 111759
L121393 111587
L121422 111530
L121450 111501
L121508 111473
L121622 111473
L121679 111501
" />
<path d="M122422 111559
L122622 111559
" />
<path d="M122708 111873
L122422 111873
L122422 111273
L122708 111273
" />
<path d="M122965 111816
L122993 111844
L122965 111873
L122936 111844
L122965 111816
L122965 111873
" />
<path d="M123251 111873
L123251 111273
L123394 111273
L123479 111301
L123537 111359
L123565 111416
L123594 111530
L123594 111616
L123565 111730
L123537 111787
L123479 111844
L123394 111873
L123251 111873
" />
<path d="M123851 111816
L123879 111844
L123851 111873
L123822 111844
L123851 111816
L123851 111873
" />
<path d="M124108 111701
L124394 111701
" />
<path d="M124051 111873
L124251 111273
L124451 111873
" />
<path d="M124651 111816
L124679 111844
L124651 111873
L124622 111844
L124651 111816
L124651 111873
" />
<path d="M152943 110673
L152779 110387
" />
<path d="M152600 110673
L152675 110073
L152903 110073
L152958 110101
L152982 110130
L153004 110187
L152993 110273
L152957 110330
L152925 110359
L152864 110387
L152636 110387
" />
<path d="M153432 110644
L153371 110673
L153257 110673
L153204 110644
L153182 110587
L153210 110359
L153247 110301
L153307 110273
L153421 110273
L153475 110301
L153496 110359
L153489 110416
L153196 110473
" />
<path d="M153707 110273
L153800 110673
L153992 110273
" />
<path d="M154178 110616
L154203 110644
L154171 110673
L154146 110644
L154178 110616
L154171 110673
" />
<path d="M154218 110301
L154242 110330
L154210 110359
L154185 110330
L154218 110301
L154210 110359
" />
<path d="M119364 110644
L119450 110673
L119593 110673
L119650 110644
L119679 110616
L119707 110559
L119707 110501
L119679 110444
L119650 110416
L119593 110387
L119479 110359
L119421 110330
L119393 110301
L119364 110244
L119364 110187
L119393 110130
L119421 110101
L119479 110073
L119621 110073
L119707 110101
" />
<path d="M119964 110673
L119964 110273
" />
<path d="M119964 110073
L119935 110101
L119964 110130
L119992 110101
L119964 110073
L119964 110130
" />
<path d="M120193 110273
L120507 110273
L120193 110673
L120507 110673
" />
<path d="M120964 110644
L120907 110673
L120793 110673
L120736 110644
L120707 110587
L120707 110359
L120736 110301
L120793 110273
L120907 110273
L120964 110301
L120993 110359
L120993 110416
L120707 110473
" />
<path d="M121250 110616
L121278 110644
L121250 110673
L121221 110644
L121250 110616
L121250 110673
" />
<path d="M121250 110301
L121278 110330
L121250 110359
L121221 110330
L121250 110301
L121250 110359
" />
<path d="M121964 110501
L122250 110501
" />
<path d="M121907 110673
L122107 110073
L122307 110673
" />
<path d="M122450 110073
L122821 110073
L122621 110301
L122707 110301
L122764 110330
L122793 110359
L122821 110416
L122821 110559
L122793 110616
L122764 110644
L122707 110673
L122535 110673
L122478 110644
L122450 110616
" />
<path d="M152593 111873
L152593 111273
" />
<path d="M153136 111873
L153136 111273
" />
<path d="M153136 111844
L153079 111873
L152965 111873
L152907 111844
L152879 111816
L152850 111759
L152850 111587
L152879 111530
L152907 111501
L152965 111473
L153079 111473
L153136 111501
" />
<path d="M153422 111816
L153450 111844
L153422 111873
L153393 111844
L153422 111816
L153422 111873
" />
<path d="M153422 111501
L153450 111530
L153422 111559
L153393 111530
L153422 111501
L153422 111559
" />
<path d="M154479 111873
L154136 111873
" />
<path d="M154308 111873
L154308 111273
L154251 111359
L154193 111416
L154136 111444
" />
<path d="M155164 111244
L154650 112016
" />
<path d="M155679 111873
L155336 111873
" />
<path d="M155508 111873
L155508 111273
L155451 111359
L155393 111416
L155336 111444
" />
<path d="M119389 108873
L119732 108873
" />
<path d="M119486 109473
L119561 108873
" />
<path d="M119857 109473
L119907 109073
" />
<path d="M119932 108873
L119900 108901
L119925 108930
L119957 108901
L119932 108873
L119925 108930
" />
<path d="M120107 109073
L120336 109073
" />
<path d="M120218 108873
L120154 109387
L120175 109444
L120229 109473
L120286 109473
" />
<path d="M120572 109473
L120518 109444
L120497 109387
L120561 108873
" />
<path d="M121032 109444
L120971 109473
L120857 109473
L120804 109444
L120782 109387
L120810 109159
L120847 109101
L120907 109073
L121021 109073
L121075 109101
L121096 109159
L121089 109216
L120796 109273
" />
<path d="M121321 109416
L121346 109444
L121314 109473
L121289 109444
L121321 109416
L121314 109473
" />
<path d="M121361 109101
L121385 109130
L121353 109159
L121328 109130
L121361 109101
L121353 109159
" />
<path d="M119593 106759
L119393 106759
" />
<path d="M119393 107073
L119393 106473
L119679 106473
" />
<path d="M119907 107073
L119907 106673
" />
<path d="M119907 106473
L119878 106501
L119907 106530
L119935 106501
L119907 106473
L119907 106530
" />
<path d="M120279 107073
L120221 107044
L120193 106987
L120193 106473
" />
<path d="M120735 107044
L120678 107073
L120564 107073
L120507 107044
L120478 106987
L120478 106759
L120507 106701
L120564 106673
L120678 106673
L120735 106701
L120764 106759
L120764 106816
L120478 106873
" />
<path d="M121021 107016
L121049 107044
L121021 107073
L120992 107044
L121021 107016
L121021 107073
" />
<path d="M121021 106701
L121049 106730
L121021 106759
L120992 106730
L121021 106701
L121021 106759
" />
<path d="M121764 107073
L121764 106673
" />
<path d="M121764 106730
L121792 106701
L121850 106673
L121935 106673
L121992 106701
L122021 106759
L122021 107073
" />
<path d="M122021 106759
L122050 106701
L122107 106673
L122192 106673
L122250 106701
L122278 106759
L122278 107073
" />
<path d="M122650 107073
L122592 107044
L122564 107016
L122535 106959
L122535 106787
L122564 106730
L122592 106701
L122650 106673
L122735 106673
L122792 106701
L122821 106730
L122850 106787
L122850 106959
L122821 107016
L122792 107044
L122735 107073
L122650 107073
" />
<path d="M123021 106673
L123250 106673
" />
<path d="M123107 106473
L123107 106987
L123135 107044
L123193 107073
L123250 107073
" />
<path d="M123536 107073
L123478 107044
L123450 107016
L123421 106959
L123421 106787
L123450 106730
L123478 106701
L123536 106673
L123621 106673
L123678 106701
L123707 106730
L123736 106787
L123736 106959
L123707 107016
L123678 107044
L123621 107073
L123536 107073
" />
<path d="M123993 106673
L123993 107273
" />
<path d="M123993 106701
L124050 106673
L124164 106673
L124221 106701
L124250 106730
L124279 106787
L124279 106959
L124250 107016
L124221 107044
L124164 107073
L124050 107073
L123993 107044
" />
<path d="M124622 107073
L124564 107044
L124536 106987
L124536 106473
" />
<path d="M124793 106673
L124936 107073
" />
<path d="M125078 106673
L124936 107073
L124878 107216
L124850 107244
L124793 107273
" />
<path d="M125564 106673
L125564 107159
L125535 107216
L125507 107244
L125450 107273
L125364 107273
L125307 107244
" />
<path d="M125564 107044
L125507 107073
L125393 107073
L125335 107044
L125307 107016
L125278 106959
L125278 106787
L125307 106730
L125335 106701
L125393 106673
L125507 106673
L125564 106701
" />
<path d="M126107 107073
L126107 106759
L126078 106701
L126021 106673
L125907 106673
L125850 106701
" />
<path d="M126107 107044
L126050 107073
L125907 107073
L125850 107044
L125821 106987
L125821 106930
L125850 106873
L125907 106844
L126050 106844
L126107 106816
" />
<path d="M126364 107044
L126421 107073
L126536 107073
L126593 107044
L126621 106987
L126621 106959
L126593 106901
L126536 106873
L126450 106873
L126393 106844
L126364 106787
L126364 106759
L126393 106701
L126450 106673
L126536 106673
L126593 106701
" />
<path d="M126879 107016
L126907 107044
L126879 107073
L126850 107044
L126879 107016
L126879 107073
" />
<path d="M127165 107073
L127165 106473
" />
<path d="M127222 106844
L127393 107073
" />
<path d="M127393 106673
L127165 106901
" />
<path d="M127651 107073
L127651 106673
" />
<path d="M127651 106473
L127622 106501
L127651 106530
L127679 106501
L127651 106473
L127651 106530
" />
<path d="M128194 107044
L128137 107073
L128023 107073
L127965 107044
L127937 107016
L127908 106959
L127908 106787
L127937 106730
L127965 106701
L128023 106673
L128137 106673
L128194 106701
" />
<path d="M128708 107073
L128708 106759
L128679 106701
L128622 106673
L128508 106673
L128451 106701
" />
<path d="M128708 107044
L128651 107073
L128508 107073
L128451 107044
L128422 106987
L128422 106930
L128451 106873
L128508 106844
L128651 106844
L128708 106816
" />
<path d="M129251 107073
L129251 106473
" />
<path d="M129251 107044
L129194 107073
L129080 107073
L129022 107044
L128994 107016
L128965 106959
L128965 106787
L128994 106730
L129022 106701
L129080 106673
L129194 106673
L129251 106701
" />
<path d="M129394 107130
L129851 107130
" />
<path d="M129994 106673
L129994 107273
" />
<path d="M129994 106701
L130051 106673
L130165 106673
L130222 106701
L130251 106730
L130280 106787
L130280 106959
L130251 107016
L130222 107044
L130165 107073
L130051 107073
L129994 107044
" />
<path d="M130794 107044
L130737 107073
L130623 107073
L130565 107044
L130537 107016
L130508 106959
L130508 106787
L130537 106730
L130565 106701
L130623 106673
L130737 106673
L130794 106701
" />
<path d="M131051 107073
L131051 106473
" />
<path d="M131051 106701
L131108 106673
L131222 106673
L131279 106701
L131308 106730
L131337 106787
L131337 106959
L131308 107016
L131279 107044
L131222 107073
L131108 107073
L131051 107044
" />
<path d="M119364 108244
L119450 108273
L119593 108273
L119650 108244
L119679 108216
L119707 108159
L119707 108101
L119679 108044
L119650 108016
L119593 107987
L119479 107959
L119421 107930
L119393 107901
L119364 107844
L119364 107787
L119393 107730
L119421 107701
L119479 107673
L119621 107673
L119707 107701
" />
<path d="M119964 108273
L119964 107673
" />
<path d="M120221 108273
L120221 107959
L120192 107901
L120135 107873
L120050 107873
L119992 107901
L119964 107930
" />
<path d="M120735 108244
L120678 108273
L120564 108273
L120507 108244
L120478 108187
L120478 107959
L120507 107901
L120564 107873
L120678 107873
L120735 107901
L120764 107959
L120764 108016
L120478 108073
" />
<path d="M121249 108244
L121192 108273
L121078 108273
L121021 108244
L120992 108187
L120992 107959
L121021 107901
L121078 107873
L121192 107873
L121249 107901
L121278 107959
L121278 108016
L120992 108073
" />
<path d="M121449 107873
L121678 107873
" />
<path d="M121535 107673
L121535 108187
L121563 108244
L121621 108273
L121678 108273
" />
<path d="M121878 108216
L121906 108244
L121878 108273
L121849 108244
L121878 108216
L121878 108273
" />
<path d="M121878 107901
L121906 107930
L121878 107959
L121849 107930
L121878 107901
L121878 107959
" />
<path d="M118650 106230
L118650 112230
" />
<path d="M118650 106230
L160650 106230
" />
<path d="M118650 106230
L160650 106230
" />
<path d="M118650 108630
L160650 108630
" />
<path d="M151850 109830
L151850 112230
" />
<path d="M118650 111030
L160650 111030
" />
<path d="M118650 109830
L160650 109830
" />
<path d="M125250 109830
L125250 111030
" />
</g>
<g style="fill:#A000A0; fill-opacity:0.0; 
stroke:#A000A0; stroke-width:35; stroke-opacity:1; 
stroke-linecap:round; stroke-linejoin:round;">
<path d="M84452 60869
L83952 60869
L83952 60750
L83976 60678
L84024 60631
L84071 60607
L84167 60583
L84238 60583
L84333 60607
L84381 60631
L84429 60678
L84452 60750
L84452 60869
" />
<path d="M83952 60417
L83952 60107
L84143 60274
L84143 60202
L84167 60155
L84190 60131
L84238 60107
L84357 60107
L84405 60131
L84429 60155
L84452 60202
L84452 60345
L84429 60393
L84405 60417
" />
<path d="M85952 62119
L85452 62119
L85452 61928
L85476 61881
L85500 61857
L85548 61833
L85619 61833
L85667 61857
L85690 61881
L85714 61928
L85714 62119
" />
<path d="M85452 61524
L85452 61428
L85476 61381
L85524 61333
L85619 61309
L85786 61309
L85881 61333
L85929 61381
L85952 61428
L85952 61524
L85929 61571
L85881 61619
L85786 61643
L85619 61643
L85524 61619
L85476 61571
L85452 61524
" />
<path d="M85452 61143
L85952 61024
L85595 60928
L85952 60833
L85452 60714
" />
<path d="M85690 60524
L85690 60357
" />
<path d="M85952 60286
L85952 60524
L85452 60524
L85452 60286
" />
<path d="M85952 59786
L85714 59953
" />
<path d="M85952 60072
L85452 60072
L85452 59881
L85476 59834
L85500 59810
L85548 59786
L85619 59786
L85667 59810
L85690 59834
L85714 59881
L85714 60072
" />
<path d="M86000 59691
L86000 59310
" />
<path d="M85452 59096
L85452 59000
L85476 58953
L85524 58905
L85619 58881
L85786 58881
L85881 58905
L85929 58953
L85952 59000
L85952 59096
L85929 59143
L85881 59191
L85786 59215
L85619 59215
L85524 59191
L85476 59143
L85452 59096
" />
<path d="M85952 58667
L85452 58667
L85952 58381
L85452 58381
" />
<path d="M75600 77434
L75600 76734
L75334 76734
L75267 76768
L75234 76801
L75200 76868
L75200 76968
L75234 77034
L75267 77068
L75334 77101
L75600 77101
" />
<path d="M74534 77434
L74934 77434
" />
<path d="M74734 77434
L74734 76734
L74800 76834
L74867 76901
L74934 76934
" />
<path d="M74300 76734
L73867 76734
L74100 77001
L74000 77001
L73933 77034
L73900 77068
L73867 77134
L73867 77301
L73900 77368
L73933 77401
L74000 77434
L74200 77434
L74267 77401
L74300 77368
" />
<path d="M75766 82933
L76000 82600
" />
<path d="M76166 82933
L76166 82233
L75900 82233
L75833 82267
L75800 82300
L75766 82367
L75766 82467
L75800 82533
L75833 82567
L75900 82600
L76166 82600
" />
<path d="M75133 82933
L75466 82933
L75466 82233
" />
<path d="M74766 82600
L74766 82933
" />
<path d="M74999 82233
L74766 82600
L74533 82233
" />
<path d="M74466 83000
L73933 83000
" />
<path d="M73633 82233
L73500 82233
L73433 82267
L73366 82333
L73333 82467
L73333 82700
L73366 82833
L73433 82900
L73500 82933
L73633 82933
L73700 82900
L73766 82833
L73800 82700
L73800 82467
L73766 82333
L73700 82267
L73633 82233
" />
<path d="M73033 82933
L73033 82233
L72633 82933
L72633 82233
" />
<path d="M77405 61393
L77429 61369
L77452 61298
L77452 61250
L77429 61178
L77381 61131
L77333 61107
L77238 61083
L77167 61083
L77071 61107
L77024 61131
L76976 61178
L76952 61250
L76952 61298
L76976 61369
L77000 61393
" />
<path d="M76952 61702
L76952 61798
L76976 61845
L77024 61893
L77119 61917
L77286 61917
L77381 61893
L77429 61845
L77452 61798
L77452 61702
L77429 61655
L77381 61607
L77286 61583
L77119 61583
L77024 61607
L76976 61655
L76952 61702
" />
<path d="M77452 62131
L76952 62131
L77452 62417
L76952 62417
" />
<path d="M77452 62917
L77452 62631
" />
<path d="M77452 62774
L76952 62774
L77024 62726
L77071 62679
L77095 62631
" />
<path d="M74310 60202
L74310 60440
" />
<path d="M74452 60155
L73952 60321
L74452 60488
" />
<path d="M73952 60584
L74452 60750
L73952 60917
" />
<path d="M74452 61370
L74214 61203
" />
<path d="M74452 61084
L73952 61084
L73952 61275
L73976 61322
L74000 61346
L74048 61370
L74119 61370
L74167 61346
L74190 61322
L74214 61275
L74214 61084
" />
<path d="M74262 61584
L74262 61965
" />
<path d="M74452 62203
L73952 62203
" />
<path d="M74429 62417
L74452 62489
L74452 62608
L74429 62655
L74405 62679
L74357 62703
L74310 62703
L74262 62679
L74238 62655
L74214 62608
L74190 62512
L74167 62465
L74143 62441
L74095 62417
L74048 62417
L74000 62441
L73976 62465
L73952 62512
L73952 62632
L73976 62703
" />
<path d="M74452 62917
L73952 62917
L73952 63108
L73976 63155
L74000 63179
L74048 63203
L74119 63203
L74167 63179
L74190 63155
L74214 63108
L74214 62917
" />
<path d="M74262 63417
L74262 63798
" />
<path d="M73952 64250
L73952 64155
L73976 64107
L74000 64084
L74071 64036
L74167 64012
L74357 64012
L74405 64036
L74429 64060
L74452 64107
L74452 64203
L74429 64250
L74405 64274
L74357 64298
L74238 64298
L74190 64274
L74167 64250
L74143 64203
L74143 64107
L74167 64060
L74190 64036
L74238 64012
" />
</g>
<g style="fill:#A000A0; fill-opacity:0.0; 
stroke:#A000A0; stroke-width:80; stroke-opacity:1; 
stroke-linecap:round; stroke-linejoin:round;">
<path d="M88055 58262
L88055 58586
L88036 58624
L88017 58643
L87979 58662
L87902 58662
L87864 58643
L87845 58624
L87826 58586
L87826 58262
" />
<path d="M87426 58662
L87655 58662
" />
<path d="M87541 58662
L87541 58262
L87579 58319
L87617 58357
L87655 58376
" />
<path d="M88455 56762
L88188 56762
L88360 57162
" />
<path d="M87979 56933
L88017 56914
L88036 56895
L88055 56857
L88055 56838
L88036 56800
L88017 56781
L87979 56762
L87902 56762
L87864 56781
L87845 56800
L87826 56838
L87826 56857
L87845 56895
L87864 56914
L87902 56933
L87979 56933
L88017 56952
L88036 56971
L88055 57010
L88055 57086
L88036 57124
L88017 57143
L87979 57162
L87902 57162
L87864 57143
L87845 57124
L87826 57086
L87826 57010
L87845 56971
L87864 56952
L87902 56933
" />
<path d="M87579 56762
L87540 56762
L87502 56781
L87483 56800
L87464 56838
L87445 56914
L87445 57010
L87464 57086
L87483 57124
L87502 57143
L87540 57162
L87579 57162
L87617 57143
L87636 57124
L87655 57086
L87674 57010
L87674 56914
L87655 56838
L87636 56800
L87617 56781
L87579 56762
" />
<path d="M87083 56762
L87274 56762
L87293 56952
L87274 56933
L87236 56914
L87140 56914
L87102 56933
L87083 56952
L87064 56990
L87064 57086
L87083 57124
L87102 57143
L87140 57162
L87236 57162
L87274 57143
L87293 57124
" />
</g>
<g style="fill:#A000A0; fill-opacity:0.0; 
stroke:#A000A0; stroke-width:60; stroke-opacity:1; 
stroke-linecap:round; stroke-linejoin:round;">
<path d="M81371 49778
L81071 49778
L81071 49893
L81086 49921
L81100 49936
L81129 49950
L81171 49950
L81200 49936
L81214 49921
L81229 49893
L81229 49778
" />
<path d="M81171 50207
L81371 50207
" />
<path d="M81057 50136
L81271 50064
L81271 50250
" />
<path d="M81371 55778
L81071 55778
L81071 55893
L81086 55921
L81100 55936
L81129 55950
L81171 55950
L81200 55936
L81214 55921
L81229 55893
L81229 55778
" />
<path d="M81371 56236
L81371 56064
" />
<path d="M81371 56150
L81071 56150
L81114 56121
L81143 56093
L81157 56064
" />
<path d="M81371 51778
L81071 51778
L81071 51893
L81086 51921
L81100 51936
L81129 51950
L81171 51950
L81200 51936
L81214 51921
L81229 51893
L81229 51778
" />
<path d="M81071 52050
L81071 52236
L81186 52136
L81186 52178
L81200 52207
L81214 52221
L81243 52236
L81314 52236
L81343 52221
L81357 52207
L81371 52178
L81371 52093
L81357 52064
L81343 52050
" />
<path d="M81371 53778
L81071 53778
L81071 53893
L81086 53921
L81100 53936
L81129 53950
L81171 53950
L81200 53936
L81214 53921
L81229 53893
L81229 53778
" />
<path d="M81100 54064
L81086 54078
L81071 54107
L81071 54178
L81086 54207
L81100 54221
L81129 54236
L81157 54236
L81200 54221
L81371 54050
L81371 54236
" />
</g>
<g style="fill:#A000A0; fill-opacity:0.0; 
stroke:#A000A0; stroke-width:35; stroke-opacity:1; 
stroke-linecap:round; stroke-linejoin:round;">
<path d="M63227 65344
L62727 65344
L62727 65225
L62751 65153
L62799 65106
L62846 65082
L62942 65058
L63013 65058
L63108 65082
L63156 65106
L63204 65153
L63227 65225
L63227 65344
" />
<path d="M62775 64868
L62751 64844
L62727 64796
L62727 64677
L62751 64630
L62775 64606
L62823 64582
L62870 64582
L62942 64606
L63227 64892
L63227 64582
" />
<path d="M65427 65713
L64927 65713
L64927 65594
L64951 65522
L64999 65475
L65046 65451
L65142 65427
L65213 65427
L65308 65451
L65356 65475
L65404 65522
L65427 65594
L65427 65713
" />
<path d="M65427 65213
L64927 65213
" />
<path d="M64927 64880
L64927 64784
L64951 64737
L64999 64689
L65094 64665
L65261 64665
L65356 64689
L65404 64737
L65427 64784
L65427 64880
L65404 64927
L65356 64975
L65261 64999
L65094 64999
L64999 64975
L64951 64927
L64927 64880
" />
<path d="M65427 64451
L64927 64451
L64927 64332
L64951 64260
L64999 64213
L65046 64189
L65142 64165
L65213 64165
L65308 64189
L65356 64213
L65404 64260
L65427 64332
L65427 64451
" />
<path d="M65165 63951
L65165 63784
" />
<path d="M65427 63713
L65427 63951
L64927 63951
L64927 63713
" />
</g>
<g style="fill:#A000A0; fill-opacity:0.0; 
stroke:#A000A0; stroke-width:100; stroke-opacity:1; 
stroke-linecap:round; stroke-linejoin:round;">
<path d="M90071 63655
L90095 63679
L90166 63702
L90214 63702
L90286 63679
L90333 63631
L90357 63583
L90381 63488
L90381 63417
L90357 63321
L90333 63274
L90286 63226
L90214 63202
L90166 63202
L90095 63226
L90071 63250
" />
<path d="M89595 63702
L89881 63702
" />
<path d="M89738 63702
L89738 63202
L89786 63274
L89833 63321
L89881 63345
" />
<path d="M89286 63202
L89238 63202
L89190 63226
L89167 63250
L89143 63298
L89119 63393
L89119 63512
L89143 63607
L89167 63655
L89190 63679
L89238 63702
L89286 63702
L89333 63679
L89357 63655
L89381 63607
L89405 63512
L89405 63393
L89381 63298
L89357 63250
L89333 63226
L89286 63202
" />
<path d="M90988 65655
L91012 65679
L91083 65702
L91131 65702
L91203 65679
L91250 65631
L91274 65583
L91298 65488
L91298 65417
L91274 65321
L91250 65274
L91203 65226
L91131 65202
L91083 65202
L91012 65226
L90988 65250
" />
<path d="M90798 65560
L90560 65560
" />
<path d="M90845 65702
L90679 65202
L90512 65702
" />
<path d="M90345 65702
L90345 65202
L90154 65202
L90107 65226
L90083 65250
L90059 65298
L90059 65369
L90083 65417
L90107 65440
L90154 65464
L90345 65464
" />
<path d="M89869 65560
L89631 65560
" />
<path d="M89916 65702
L89750 65202
L89583 65702
" />
<path d="M89416 65702
L89416 65202
L89225 65202
L89178 65226
L89154 65250
L89130 65298
L89130 65369
L89154 65417
L89178 65440
L89225 65464
L89416 65464
" />
<path d="M88821 65202
L88725 65202
L88678 65226
L88630 65274
L88606 65369
L88606 65536
L88630 65631
L88678 65679
L88725 65702
L88821 65702
L88868 65679
L88916 65631
L88940 65536
L88940 65369
L88916 65274
L88868 65226
L88821 65202
" />
<path d="M88154 65702
L88392 65702
L88392 65202
" />
<path d="M84833 65405
L84857 65429
L84928 65452
L84976 65452
L85048 65429
L85095 65381
L85119 65333
L85143 65238
L85143 65167
L85119 65071
L85095 65024
L85048 64976
L84976 64952
L84928 64952
L84857 64976
L84833 65000
" />
<path d="M84595 65452
L84500 65452
L84452 65429
L84428 65405
L84381 65333
L84357 65238
L84357 65048
L84381 65000
L84405 64976
L84452 64952
L84548 64952
L84595 64976
L84619 65000
L84643 65048
L84643 65167
L84619 65214
L84595 65238
L84548 65262
L84452 65262
L84405 65238
L84381 65214
L84357 65167
" />
<path d="M85988 63405
L86012 63429
L86083 63452
L86131 63452
L86203 63429
L86250 63381
L86274 63333
L86298 63238
L86298 63167
L86274 63071
L86250 63024
L86203 62976
L86131 62952
L86083 62952
L86012 62976
L85988 63000
" />
<path d="M85798 63310
L85560 63310
" />
<path d="M85845 63452
L85679 62952
L85512 63452
" />
<path d="M85345 63452
L85345 62952
L85154 62952
L85107 62976
L85083 63000
L85059 63048
L85059 63119
L85083 63167
L85107 63190
L85154 63214
L85345 63214
" />
<path d="M84869 63310
L84631 63310
" />
<path d="M84916 63452
L84750 62952
L84583 63452
" />
<path d="M84416 63452
L84416 62952
L84225 62952
L84178 62976
L84154 63000
L84130 63048
L84130 63119
L84154 63167
L84178 63190
L84225 63214
L84416 63214
" />
<path d="M83821 62952
L83725 62952
L83678 62976
L83630 63024
L83606 63119
L83606 63286
L83630 63381
L83678 63429
L83725 63452
L83821 63452
L83868 63429
L83916 63381
L83940 63286
L83940 63119
L83916 63024
L83868 62976
L83821 62952
" />
<path d="M83154 63452
L83392 63452
L83392 62952
" />
</g>
<g style="fill:#A000A0; fill-opacity:0.0; 
stroke:#A000A0; stroke-width:120; stroke-opacity:1; 
stroke-linecap:round; stroke-linejoin:round;">
<path d="M89993 71308
L89393 71308
L89393 71451
L89421 71536
L89479 71594
L89536 71622
L89650 71651
L89736 71651
L89850 71622
L89907 71594
L89964 71536
L89993 71451
L89993 71308
" />
<path d="M89993 72222
L89993 71879
" />
<path d="M89993 72051
L89393 72051
L89479 71994
L89536 71936
L89564 71879
" />
<path d="M88679 72479
L88707 72565
L88736 72593
L88793 72622
L88879 72622
L88936 72593
L88964 72565
L88993 72507
L88993 72279
L88393 72279
L88393 72479
L88421 72536
L88450 72565
L88507 72593
L88564 72593
L88621 72565
L88650 72536
L88679 72479
L88679 72279
" />
<path d="M88993 73222
L88707 73022
" />
<path d="M88993 72879
L88393 72879
L88393 73107
L88421 73165
L88450 73193
L88507 73222
L88593 73222
L88650 73193
L88679 73165
L88707 73107
L88707 72879
" />
<path d="M88993 73479
L88393 73479
" />
<path d="M88993 73765
L88393 73765
L88393 73908
L88421 73993
L88479 74051
L88536 74079
L88650 74108
L88736 74108
L88850 74079
L88907 74051
L88964 73993
L88993 73908
L88993 73765
" />
<path d="M88421 74679
L88393 74622
L88393 74536
L88421 74451
L88479 74393
L88536 74365
L88650 74336
L88736 74336
L88850 74365
L88907 74393
L88964 74451
L88993 74536
L88993 74593
L88964 74679
L88936 74708
L88736 74708
L88736 74593
" />
<path d="M88679 74965
L88679 75165
" />
<path d="M88993 75251
L88993 74965
L88393 74965
L88393 75251
" />
<path d="M87024 73619
L87024 74381
" />
<path d="M87405 74000
L86643 74000
" />
<path d="M86274 75869
L86274 76631
" />
</g>
<g style="fill:#A000A0; fill-opacity:0.0; 
stroke:#A000A0; stroke-width:35; stroke-opacity:1; 
stroke-linecap:round; stroke-linejoin:round;">
<path d="M72197 58687
L71607 58804
" />
<path d="M71961 58450
L71844 59040
" />
<path d="M71288 58484
L71490 58687
" />
<path d="M71389 58586
L71742 58232
L71725 58317
L71725 58383
L71742 58434
" />
<path d="M70139 61013
L70341 61216
" />
<path d="M70240 61114
L70593 60761
L70576 60846
L70576 60912
L70593 60963
" />
<path d="M70190 60357
L70257 60424
L70274 60475
L70273 60508
L70257 60593
L70206 60677
L70071 60812
L70021 60829
L69987 60829
L69937 60812
L69869 60744
L69852 60694
L69852 60660
L69869 60610
L69953 60525
L70004 60508
L70038 60509
L70088 60525
L70156 60593
L70172 60644
L70173 60677
L70156 60728
" />
<path d="M69651 60525
L70004 60172
L69633 60307
L69769 59936
L69415 60290
" />
<path d="M69247 60122
L69601 59768
" />
<path d="M69432 59936
L69230 59734
" />
<path d="M69045 59919
L69398 59566
" />
<path d="M69146 59550
L68961 59364
L68910 59785
L68725 59600
" />
<path d="M61902 73131
L62307 73131
L62355 73107
L62379 73083
L62402 73036
L62402 72940
L62379 72893
L62355 72869
L62307 72845
L61902 72845
" />
<path d="M61902 72655
L61902 72345
L62093 72512
L62093 72440
L62117 72393
L62140 72369
L62188 72345
L62307 72345
L62355 72369
L62379 72393
L62402 72440
L62402 72583
L62379 72631
L62355 72655
" />
<path d="M64702 77124
L64702 77028
L64726 76981
L64774 76933
L64869 76909
L65036 76909
L65131 76933
L65179 76981
L65202 77028
L65202 77124
L65179 77171
L65131 77219
L65036 77243
L64869 77243
L64774 77219
L64726 77171
L64702 77124
" />
<path d="M65202 76695
L64702 76695
L64702 76504
L64726 76457
L64750 76433
L64798 76409
L64869 76409
L64917 76433
L64940 76457
L64964 76504
L64964 76695
" />
<path d="M64702 76266
L64702 75981
" />
<path d="M65202 76124
L64702 76124
" />
<path d="M64702 75719
L64702 75623
L64726 75576
L64774 75528
L64869 75504
L65036 75504
L65131 75528
L65179 75576
L65202 75623
L65202 75719
L65179 75766
L65131 75814
L65036 75838
L64869 75838
L64774 75814
L64726 75766
L64702 75719
" />
<path d="M65012 75290
L65012 74909
" />
<path d="M64702 74742
L64702 74457
" />
<path d="M65202 74600
L64702 74600
" />
<path d="M65202 74004
L64964 74171
" />
<path d="M65202 74290
L64702 74290
L64702 74099
L64726 74052
L64750 74028
L64798 74004
L64869 74004
L64917 74028
L64940 74052
L64964 74099
L64964 74290
" />
<path d="M65060 73814
L65060 73576
" />
<path d="M65202 73861
L64702 73695
L65202 73528
" />
<path d="M65202 73361
L64702 73361
L65202 73075
L64702 73075
" />
<path d="M65179 72861
L65202 72789
L65202 72670
L65179 72623
L65155 72599
L65107 72575
L65060 72575
L65012 72599
L64988 72623
L64964 72670
L64940 72766
L64917 72813
L64893 72837
L64845 72861
L64798 72861
L64750 72837
L64726 72813
L64702 72766
L64702 72646
L64726 72575
" />
<path d="M65202 72361
L64702 72361
" />
<path d="M65179 72147
L65202 72075
L65202 71956
L65179 71909
L65155 71885
L65107 71861
L65060 71861
L65012 71885
L64988 71909
L64964 71956
L64940 72052
L64917 72099
L64893 72123
L64845 72147
L64798 72147
L64750 72123
L64726 72099
L64702 72052
L64702 71932
L64726 71861
" />
<path d="M64702 71718
L64702 71433
" />
<path d="M65202 71576
L64702 71576
" />
<path d="M64702 71171
L64702 71075
L64726 71028
L64774 70980
L64869 70956
L65036 70956
L65131 70980
L65179 71028
L65202 71075
L65202 71171
L65179 71218
L65131 71266
L65036 71290
L64869 71290
L64774 71266
L64726 71218
L64702 71171
" />
<path d="M65202 70456
L64964 70623
" />
<path d="M65202 70742
L64702 70742
L64702 70551
L64726 70504
L64750 70480
L64798 70456
L64869 70456
L64917 70480
L64940 70504
L64964 70551
L64964 70742
" />
<path d="M65250 70361
L65250 69980
" />
<path d="M64869 69647
L65202 69647
" />
<path d="M64679 69766
L65036 69885
L65036 69575
" />
<path d="M65250 69504
L65250 69123
" />
<path d="M65202 69004
L64702 69004
L64702 68813
L64726 68766
L64750 68742
L64798 68718
L64869 68718
L64917 68742
L64940 68766
L64964 68813
L64964 69004
" />
<path d="M65202 68504
L64702 68504
" />
<path d="M65202 68266
L64702 68266
L65202 67980
L64702 67980
" />
<path d="M64902 73131
L65307 73131
L65355 73107
L65379 73083
L65402 73036
L65402 72940
L65379 72893
L65355 72869
L65307 72845
L64902 72845
" />
<path d="M64950 72631
L64926 72607
L64902 72559
L64902 72440
L64926 72393
L64950 72369
L64998 72345
L65045 72345
L65117 72369
L65402 72655
L65402 72345
" />
<path d="M67702 77124
L67702 77028
L67726 76981
L67774 76933
L67869 76909
L68036 76909
L68131 76933
L68179 76981
L68202 77028
L68202 77124
L68179 77171
L68131 77219
L68036 77243
L67869 77243
L67774 77219
L67726 77171
L67702 77124
" />
<path d="M68202 76695
L67702 76695
L67702 76504
L67726 76457
L67750 76433
L67798 76409
L67869 76409
L67917 76433
L67940 76457
L67964 76504
L67964 76695
" />
<path d="M67702 76266
L67702 75981
" />
<path d="M68202 76124
L67702 76124
" />
<path d="M67702 75719
L67702 75623
L67726 75576
L67774 75528
L67869 75504
L68036 75504
L68131 75528
L68179 75576
L68202 75623
L68202 75719
L68179 75766
L68131 75814
L68036 75838
L67869 75838
L67774 75814
L67726 75766
L67702 75719
" />
<path d="M68012 75290
L68012 74909
" />
<path d="M67702 74742
L67702 74457
" />
<path d="M68202 74600
L67702 74600
" />
<path d="M68202 74004
L67964 74171
" />
<path d="M68202 74290
L67702 74290
L67702 74099
L67726 74052
L67750 74028
L67798 74004
L67869 74004
L67917 74028
L67940 74052
L67964 74099
L67964 74290
" />
<path d="M68060 73814
L68060 73576
" />
<path d="M68202 73861
L67702 73695
L68202 73528
" />
<path d="M68202 73361
L67702 73361
L68202 73075
L67702 73075
" />
<path d="M68179 72861
L68202 72789
L68202 72670
L68179 72623
L68155 72599
L68107 72575
L68060 72575
L68012 72599
L67988 72623
L67964 72670
L67940 72766
L67917 72813
L67893 72837
L67845 72861
L67798 72861
L67750 72837
L67726 72813
L67702 72766
L67702 72646
L67726 72575
" />
<path d="M68202 72361
L67702 72361
" />
<path d="M68179 72147
L68202 72075
L68202 71956
L68179 71909
L68155 71885
L68107 71861
L68060 71861
L68012 71885
L67988 71909
L67964 71956
L67940 72052
L67917 72099
L67893 72123
L67845 72147
L67798 72147
L67750 72123
L67726 72099
L67702 72052
L67702 71932
L67726 71861
" />
<path d="M67702 71718
L67702 71433
" />
<path d="M68202 71576
L67702 71576
" />
<path d="M67702 71171
L67702 71075
L67726 71028
L67774 70980
L67869 70956
L68036 70956
L68131 70980
L68179 71028
L68202 71075
L68202 71171
L68179 71218
L68131 71266
L68036 71290
L67869 71290
L67774 71266
L67726 71218
L67702 71171
" />
<path d="M68202 70456
L67964 70623
" />
<path d="M68202 70742
L67702 70742
L67702 70551
L67726 70504
L67750 70480
L67798 70456
L67869 70456
L67917 70480
L67940 70504
L67964 70551
L67964 70742
" />
<path d="M68250 70361
L68250 69980
" />
<path d="M67869 69647
L68202 69647
" />
<path d="M67679 69766
L68036 69885
L68036 69575
" />
<path d="M68250 69504
L68250 69123
" />
<path d="M68202 69004
L67702 69004
L67702 68813
L67726 68766
L67750 68742
L67798 68718
L67869 68718
L67917 68742
L67940 68766
L67964 68813
L67964 69004
" />
<path d="M68202 68504
L67702 68504
" />
<path d="M68202 68266
L67702 68266
L68202 67980
L67702 67980
" />
</g>
<g style="fill:#A000A0; fill-opacity:0.0; 
stroke:#A000A0; stroke-width:59; stroke-opacity:1; 
stroke-linecap:round; stroke-linejoin:round;">
<path d="M75225 72909
L75356 72722
" />
<path d="M75450 72909
L75450 72515
L75300 72515
L75263 72534
L75244 72553
L75225 72591
L75225 72647
L75244 72684
L75263 72703
L75300 72722
L75450 72722
" />
<path d="M74869 72909
L75056 72909
L75056 72515
" />
<path d="M74531 72909
L74756 72909
" />
<path d="M74643 72909
L74643 72515
L74681 72572
L74718 72609
L74756 72628
" />
<path d="M76012 73909
L75937 73909
L75900 73891
L75881 73872
L75844 73816
L75825 73741
L75825 73591
L75844 73553
L75862 73534
L75900 73515
L75975 73515
L76012 73534
L76031 73553
L76050 73591
L76050 73684
L76031 73722
L76012 73741
L75975 73759
L75900 73759
L75862 73741
L75844 73722
L75825 73684
" />
<path d="M75487 73647
L75487 73909
" />
<path d="M75581 73497
L75675 73778
L75431 73778
" />
<path d="M75281 73872
L75262 73891
L75281 73909
L75300 73891
L75281 73872
L75281 73909
" />
<path d="M74887 73909
L75112 73909
" />
<path d="M74999 73909
L74999 73515
L75037 73572
L75074 73609
L75112 73628
" />
<path d="M74549 73647
L74549 73909
" />
<path d="M74643 73497
L74737 73778
L74493 73778
" />
<path d="M74343 73872
L74324 73891
L74343 73909
L74362 73891
L74343 73872
L74343 73909
" />
<path d="M74080 73515
L74043 73515
L74005 73534
L73986 73553
L73968 73591
L73949 73666
L73949 73759
L73968 73834
L73986 73872
L74005 73891
L74043 73909
L74080 73909
L74118 73891
L74136 73872
L74155 73834
L74174 73759
L74174 73666
L74155 73591
L74136 73553
L74118 73534
L74080 73515
" />
</g>
<g style="fill:#A000A0; fill-opacity:0.0; 
stroke:#A000A0; stroke-width:120; stroke-opacity:1; 
stroke-linecap:round; stroke-linejoin:round;">
<path d="M84192 78493
L84192 77893
L83964 77893
L83906 77921
L83878 77950
L83849 78007
L83849 78093
L83878 78150
L83906 78179
L83964 78207
L84192 78207
" />
<path d="M83649 77893
L83249 77893
L83506 78493
" />
<path d="M86018 82658
L86018 82058
" />
<path d="M86018 82629
L86075 82658
L86189 82658
L86247 82629
L86275 82601
L86304 82544
L86304 82372
L86275 82315
L86247 82286
L86189 82258
L86075 82258
L86018 82286
" />
<path d="M85646 82658
L85704 82629
L85732 82601
L85761 82544
L85761 82372
L85732 82315
L85704 82286
L85646 82258
L85561 82258
L85504 82286
L85475 82315
L85446 82372
L85446 82544
L85475 82601
L85504 82629
L85561 82658
L85646 82658
" />
<path d="M85246 82258
L85132 82658
L85018 82372
L84903 82658
L84789 82258
" />
<path d="M84560 82258
L84560 82658
" />
<path d="M84560 82315
L84532 82286
L84474 82258
L84389 82258
L84332 82286
L84303 82344
L84303 82658
" />
<path d="M84160 82715
L83703 82715
" />
<path d="M83560 82658
L83560 82058
" />
<path d="M83560 82286
L83503 82258
L83389 82258
L83332 82286
L83303 82315
L83274 82372
L83274 82544
L83303 82601
L83332 82629
L83389 82658
L83503 82658
L83560 82629
" />
<path d="M82760 82258
L82760 82658
" />
<path d="M83017 82258
L83017 82572
L82989 82629
L82931 82658
L82846 82658
L82789 82629
L82760 82601
" />
<path d="M82560 82258
L82331 82258
" />
<path d="M82474 82058
L82474 82572
L82446 82629
L82388 82658
L82331 82658
" />
<path d="M82217 82258
L81988 82258
" />
<path d="M82131 82058
L82131 82572
L82103 82629
L82045 82658
L81988 82658
" />
<path d="M81702 82658
L81760 82629
L81788 82601
L81817 82544
L81817 82372
L81788 82315
L81760 82286
L81702 82258
L81617 82258
L81560 82286
L81531 82315
L81502 82372
L81502 82544
L81531 82601
L81560 82629
L81617 82658
L81702 82658
" />
<path d="M81245 82258
L81245 82658
" />
<path d="M81245 82315
L81217 82286
L81159 82258
L81074 82258
L81017 82286
L80988 82344
L80988 82658
" />
<path d="M87478 78493
L87478 77893
L87250 77893
L87192 77921
L87164 77950
L87135 78007
L87135 78093
L87164 78150
L87192 78179
L87250 78207
L87478 78207
" />
<path d="M86564 78493
L86907 78493
" />
<path d="M86735 78493
L86735 77893
L86792 77979
L86850 78036
L86907 78064
" />
<path d="M86193 77893
L86136 77893
L86079 77921
L86050 77950
L86021 78007
L85993 78121
L85993 78264
L86021 78379
L86050 78436
L86079 78464
L86136 78493
L86193 78493
L86250 78464
L86279 78436
L86307 78379
L86336 78264
L86336 78121
L86307 78007
L86279 77950
L86250 77921
L86193 77893
" />
<path d="M87303 82658
L87646 82658
" />
<path d="M87474 82658
L87474 82058
L87531 82144
L87589 82201
L87646 82229
" />
<path d="M87075 82115
L87046 82086
L86989 82058
L86846 82058
L86789 82086
L86760 82115
L86732 82172
L86732 82229
L86760 82315
L87103 82658
L86732 82658
" />
<path d="M86504 82486
L86218 82486
" />
<path d="M86561 82658
L86361 82058
L86161 82658
" />
<path d="M85618 82601
L85647 82629
L85733 82658
L85790 82658
L85875 82629
L85933 82572
L85961 82515
L85990 82401
L85990 82315
L85961 82201
L85933 82144
L85875 82086
L85790 82058
L85733 82058
L85647 82086
L85618 82115
" />
<path d="M81192 78493
L81192 77893
L80964 77893
L80906 77921
L80878 77950
L80849 78007
L80849 78093
L80878 78150
L80906 78179
L80964 78207
L81192 78207
" />
<path d="M80335 77893
L80449 77893
L80506 77921
L80535 77950
L80592 78036
L80621 78150
L80621 78379
L80592 78436
L80564 78464
L80506 78493
L80392 78493
L80335 78464
L80306 78436
L80278 78379
L80278 78236
L80306 78179
L80335 78150
L80392 78121
L80506 78121
L80564 78150
L80592 78179
L80621 78236
" />
<path d="M82432 82258
L82432 82658
" />
<path d="M82689 82258
L82689 82572
L82661 82629
L82603 82658
L82518 82658
L82461 82629
L82432 82601
" />
<path d="M82146 82258
L82146 82858
" />
<path d="M82146 82286
L82089 82258
L81975 82258
L81918 82286
L81889 82315
L81860 82372
L81860 82544
L81889 82601
L81918 82629
L81975 82658
L82089 82658
L82146 82629
" />
<path d="M81746 82715
L81289 82715
" />
<path d="M81146 82658
L81146 82058
" />
<path d="M81146 82286
L81089 82258
L80975 82258
L80918 82286
L80889 82315
L80860 82372
L80860 82544
L80889 82601
L80918 82629
L80975 82658
L81089 82658
L81146 82629
" />
<path d="M80346 82258
L80346 82658
" />
<path d="M80603 82258
L80603 82572
L80575 82629
L80517 82658
L80432 82658
L80375 82629
L80346 82601
" />
<path d="M80146 82258
L79917 82258
" />
<path d="M80060 82058
L80060 82572
L80032 82629
L79974 82658
L79917 82658
" />
<path d="M79803 82258
L79574 82258
" />
<path d="M79717 82058
L79717 82572
L79689 82629
L79631 82658
L79574 82658
" />
<path d="M79288 82658
L79346 82629
L79374 82601
L79403 82544
L79403 82372
L79374 82315
L79346 82286
L79288 82258
L79203 82258
L79146 82286
L79117 82315
L79088 82372
L79088 82544
L79117 82601
L79146 82629
L79203 82658
L79288 82658
" />
<path d="M78831 82258
L78831 82658
" />
<path d="M78831 82315
L78803 82286
L78745 82258
L78660 82258
L78603 82286
L78574 82344
L78574 82658
" />
<path d="M62442 78493
L62442 77893
L62214 77893
L62156 77921
L62128 77950
L62099 78007
L62099 78093
L62128 78150
L62156 78179
L62214 78207
L62442 78207
" />
<path d="M61814 78493
L61699 78493
L61642 78464
L61614 78436
L61556 78350
L61528 78236
L61528 78007
L61556 77950
L61585 77921
L61642 77893
L61756 77893
L61814 77921
L61842 77950
L61871 78007
L61871 78150
L61842 78207
L61814 78236
L61756 78264
L61642 78264
L61585 78236
L61556 78207
L61528 78150
" />
<path d="M63153 82058
L62953 82658
L62753 82058
" />
<path d="M62353 82344
L62553 82344
" />
<path d="M62553 82658
L62553 82058
L62267 82058
" />
<path d="M62039 82658
L62039 82058
L61896 82058
L61811 82086
L61753 82144
L61725 82201
L61696 82315
L61696 82401
L61725 82515
L61753 82572
L61811 82629
L61896 82658
L62039 82658
" />
<path d="M61582 82715
L61125 82715
" />
<path d="M60668 82658
L61011 82658
" />
<path d="M60839 82658
L60839 82058
L60896 82144
L60954 82201
L61011 82229
" />
<path d="M66192 78493
L66192 77893
" />
<path d="M65849 78493
L66106 78150
" />
<path d="M65849 77893
L66192 78236
" />
<path d="M65335 77893
L65449 77893
L65506 77921
L65535 77950
L65592 78036
L65621 78150
L65621 78379
L65592 78436
L65564 78464
L65506 78493
L65392 78493
L65335 78464
L65306 78436
L65278 78379
L65278 78236
L65306 78179
L65335 78150
L65392 78121
L65506 78121
L65564 78150
L65592 78179
L65621 78236
" />
<path d="M67021 81893
L66821 82493
L66621 81893
" />
<path d="M66221 82179
L66421 82179
" />
<path d="M66421 82493
L66421 81893
L66135 81893
" />
<path d="M65907 82493
L65907 81893
L65764 81893
L65679 81921
L65621 81979
L65593 82036
L65564 82150
L65564 82236
L65593 82350
L65621 82407
L65679 82464
L65764 82493
L65907 82493
" />
<path d="M65450 82550
L64993 82550
" />
<path d="M64879 81950
L64850 81921
L64793 81893
L64650 81893
L64593 81921
L64564 81950
L64536 82007
L64536 82064
L64564 82150
L64907 82493
L64536 82493
" />
<path d="M70228 78493
L70228 77893
L70000 77893
L69942 77921
L69914 77950
L69885 78007
L69885 78093
L69914 78150
L69942 78179
L70000 78207
L70228 78207
" />
<path d="M69314 78493
L69657 78493
" />
<path d="M69485 78493
L69485 77893
L69542 77979
L69600 78036
L69657 78064
" />
<path d="M69086 77950
L69057 77921
L69000 77893
L68857 77893
L68800 77921
L68771 77950
L68743 78007
L68743 78064
L68771 78150
L69114 78493
L68743 78493
" />
<path d="M71654 82658
L71654 82058
L71454 82486
L71254 82058
L71254 82658
" />
<path d="M70625 82601
L70654 82629
L70740 82658
L70797 82658
L70882 82629
L70940 82572
L70968 82515
L70997 82401
L70997 82315
L70968 82201
L70940 82144
L70882 82086
L70797 82058
L70740 82058
L70654 82086
L70625 82115
" />
<path d="M70368 82058
L70368 82544
L70340 82601
L70311 82629
L70254 82658
L70140 82658
L70082 82629
L70054 82601
L70025 82544
L70025 82058
" />
<path d="M69882 82715
L69425 82715
" />
<path d="M69282 82658
L69282 82058
L69082 82486
L68882 82058
L68882 82658
" />
<path d="M68482 82058
L68368 82058
L68310 82086
L68253 82144
L68225 82258
L68225 82458
L68253 82572
L68310 82629
L68368 82658
L68482 82658
L68539 82629
L68596 82572
L68625 82458
L68625 82258
L68596 82144
L68539 82086
L68482 82058
" />
<path d="M67967 82658
L67967 82058
L67824 82058
L67739 82086
L67681 82144
L67653 82201
L67624 82315
L67624 82401
L67653 82515
L67681 82572
L67739 82629
L67824 82658
L67967 82658
" />
<path d="M67367 82344
L67167 82344
" />
<path d="M67081 82658
L67367 82658
L67367 82058
L67081 82058
" />
</g>
<g style="fill:#A000A0; fill-opacity:0.0; 
stroke:#A000A0; stroke-width:113; stroke-opacity:1; 
stroke-linecap:round; stroke-linejoin:round;">
<path d="M62368 63043
L61768 63043
" />
<path d="M62368 63300
L62025 63107
" />
<path d="M61768 63300
L62111 63043
" />
<path d="M61825 63472
L61796 63493
L61768 63536
L61768 63643
L61796 63686
L61825 63707
L61882 63729
L61939 63729
L62025 63707
L62368 63450
L62368 63729
" />
</g>
<g style="fill:#A000A0; fill-opacity:0.0; 
stroke:#A000A0; stroke-width:120; stroke-opacity:1; 
stroke-linecap:round; stroke-linejoin:round;">
</g>
<g style="fill:#A000A0; fill-opacity:0.0; 
stroke:#A000A0; stroke-width:113; stroke-opacity:1; 
stroke-linecap:round; stroke-linejoin:round;">
<path d="M63368 62445
L62768 62445
L63196 62595
L62768 62745
L63368 62745
" />
<path d="M63054 62959
L63054 63109
" />
<path d="M63368 63173
L63368 62959
L62768 62959
L62768 63173
" />
<path d="M63368 63366
L62768 63366
L62768 63473
L62796 63538
L62854 63580
L62911 63602
L63025 63623
L63111 63623
L63225 63602
L63282 63580
L63339 63538
L63368 63473
L63368 63366
" />
<path d="M63054 63816
L63054 63966
" />
<path d="M63368 64030
L63368 63816
L62768 63816
L62768 64030
" />
<path d="M63368 64480
L63082 64330
" />
<path d="M63368 64223
L62768 64223
L62768 64395
L62796 64437
L62825 64459
L62882 64480
L62968 64480
L63025 64459
L63054 64437
L63082 64395
L63082 64223
" />
<path d="M63425 64566
L63425 64909
" />
<path d="M63368 65016
L62768 65016
L62768 65123
L62796 65188
L62854 65230
L62911 65252
L63025 65273
L63111 65273
L63225 65252
L63282 65230
L63339 65188
L63368 65123
L63368 65016
" />
<path d="M63368 65466
L62768 65466
" />
<path d="M63368 65680
L62768 65680
L62768 65852
L62796 65894
L62825 65916
L62882 65937
L62968 65937
L63025 65916
L63054 65894
L63082 65852
L63082 65680
" />
<path d="M62768 66216
L62768 66259
L62796 66302
L62825 66323
L62882 66344
L62996 66366
L63139 66366
L63254 66344
L63311 66323
L63339 66302
L63368 66259
L63368 66216
L63339 66173
L63311 66152
L63254 66130
L63139 66109
L62996 66109
L62882 66130
L62825 66152
L62796 66173
L62768 66216
" />
<path d="M62768 66773
L62768 66559
L63054 66538
L63025 66559
L62996 66602
L62996 66709
L63025 66752
L63054 66773
L63111 66795
L63254 66795
L63311 66773
L63339 66752
L63368 66709
L63368 66602
L63339 66559
L63311 66538
" />
<path d="M63368 67224
L63368 66967
" />
<path d="M63368 67095
L62768 67095
L62854 67052
L62911 67010
L62939 66967
" />
<path d="M63196 67396
L63196 67610
" />
<path d="M63368 67353
L62768 67503
L63368 67653
" />
<path d="M62768 67760
L62768 68060
L63368 67867
" />
<path d="M62825 68211
L62796 68232
L62768 68275
L62768 68382
L62796 68425
L62825 68446
L62882 68468
L62939 68468
L63025 68446
L63368 68189
L63368 68468
" />
<path d="M63368 68897
L63368 68640
" />
<path d="M63368 68768
L62768 68768
L62854 68725
L62911 68683
L62939 68640
" />
<path d="M62825 69069
L62796 69090
L62768 69133
L62768 69240
L62796 69283
L62825 69304
L62882 69326
L62939 69326
L63025 69304
L63368 69047
L63368 69326
" />
</g>
<g style="fill:#A000A0; fill-opacity:0.0; 
stroke:#A000A0; stroke-width:35; stroke-opacity:1; 
stroke-linecap:round; stroke-linejoin:round;">
<path d="M69179 51619
L69202 51691
L69202 51810
L69179 51857
L69155 51881
L69107 51905
L69060 51905
L69012 51881
L68988 51857
L68964 51810
L68940 51714
L68917 51667
L68893 51643
L68845 51619
L68798 51619
L68750 51643
L68726 51667
L68702 51714
L68702 51834
L68726 51905
" />
<path d="M69202 52381
L69202 52095
" />
<path d="M69202 52238
L68702 52238
L68774 52190
L68821 52143
L68845 52095
" />
<path d="M72702 50858
L72202 50858
L72202 50977
L72226 51049
L72274 51096
L72321 51120
L72417 51144
L72488 51144
L72583 51120
L72631 51096
L72679 51049
L72702 50977
L72702 50858
" />
<path d="M72202 51287
L72202 51572
" />
<path d="M72702 51429
L72202 51429
" />
<path d="M72679 51715
L72702 51787
L72702 51906
L72679 51953
L72655 51977
L72607 52001
L72560 52001
L72512 51977
L72488 51953
L72464 51906
L72440 51810
L72417 51763
L72393 51739
L72345 51715
L72298 51715
L72250 51739
L72226 51763
L72202 51810
L72202 51930
L72226 52001
" />
<path d="M72702 52215
L72202 52215
L72560 52382
L72202 52548
L72702 52548
" />
<path d="M72512 52786
L72512 53167
" />
<path d="M72202 53619
L72202 53524
L72226 53476
L72250 53453
L72321 53405
L72417 53381
L72607 53381
L72655 53405
L72679 53429
L72702 53476
L72702 53572
L72679 53619
L72655 53643
L72607 53667
L72488 53667
L72440 53643
L72417 53619
L72393 53572
L72393 53476
L72417 53429
L72440 53405
L72488 53381
" />
</g>
<g style="fill:#A000A0; fill-opacity:0.0; 
stroke:#A000A0; stroke-width:120; stroke-opacity:1; 
stroke-linecap:round; stroke-linejoin:round;">
<path d="M75442 51993
L75442 51393
" />
<path d="M75099 51993
L75356 51650
" />
<path d="M75099 51393
L75442 51736
" />
<path d="M74899 51393
L74528 51393
L74728 51621
L74642 51621
L74585 51650
L74556 51679
L74528 51736
L74528 51879
L74556 51936
L74585 51964
L74642 51993
L74814 51993
L74871 51964
L74899 51936
" />
<path d="M75914 47993
L75914 47393
" />
<path d="M75914 47679
L75571 47679
" />
<path d="M75571 47993
L75571 47393
" />
<path d="M75314 47821
L75028 47821
" />
<path d="M75371 47993
L75171 47393
L74971 47993
" />
<path d="M74485 47993
L74771 47993
L74771 47393
" />
<path d="M73999 47993
L74285 47993
L74285 47393
" />
</g>
<g style="fill:#A000A0; fill-opacity:0.0; 
stroke:#A000A0; stroke-width:80; stroke-opacity:1; 
stroke-linecap:round; stroke-linejoin:round;">
<path d="M68012 54705
L67612 54705
L67612 54858
L67631 54896
L67650 54915
L67688 54934
L67745 54934
L67783 54915
L67802 54896
L67821 54858
L67821 54705
" />
<path d="M67612 55296
L67612 55105
L67802 55086
L67783 55105
L67764 55143
L67764 55239
L67783 55277
L67802 55296
L67840 55315
L67936 55315
L67974 55296
L67993 55277
L68012 55239
L68012 55143
L67993 55105
L67974 55086
" />
</g>
<g style="fill:#A000A0; fill-opacity:0.0; 
stroke:#A000A0; stroke-width:50; stroke-opacity:1; 
stroke-linecap:round; stroke-linejoin:round;">
<path d="M73270 77921
L73270 81921
" />
<path d="M76577 77921
L76577 81921
" />
<path d="M76577 77921
L73270 77921
" />
<path d="M73270 81921
L76577 81921
" />
</g>
<g style="fill:#A000A0; fill-opacity:0.0; 
stroke:#A000A0; stroke-width:26; stroke-opacity:1; 
stroke-linecap:round; stroke-linejoin:round;">
<path d="M76350 61150
L76350 61350
" />
<path d="M76350 61350
L76150 61350
" />
<path d="M76150 61150
L76150 61350
" />
<path d="M76350 61150
L76150 61150
" />
<path d="M75350 61150
L75350 61350
" />
<path d="M75350 61350
L75150 61350
" />
<path d="M75150 61150
L75150 61350
" />
<path d="M75350 61150
L75150 61150
" />
<path d="M75350 62150
L75350 62350
" />
<path d="M75350 62350
L75150 62350
" />
<path d="M75150 62150
L75150 62350
" />
<path d="M75350 62150
L75150 62150
" />
<path d="M76350 62150
L76350 62350
" />
<path d="M76350 62350
L76150 62350
" />
<path d="M76150 62150
L76150 62350
" />
<path d="M76350 62150
L76150 62150
" />
<path d="M75350 63150
L75350 63350
" />
<path d="M75350 63350
L75150 63350
" />
<path d="M75150 63150
L75150 63350
" />
<path d="M75350 63150
L75150 63150
" />
<path d="M76350 63150
L76350 63350
" />
<path d="M76350 63350
L76150 63350
" />
<path d="M76150 63150
L76150 63350
" />
<path d="M76350 63150
L76150 63150
" />
</g>
<g style="fill:#A000A0; fill-opacity:0.0; 
stroke:#A000A0; stroke-width:100; stroke-opacity:1; 
stroke-linecap:round; stroke-linejoin:round;">
<path d="M74750 60750
L74750 63750
" />
<path d="M74750 63750
L76750 63750
" />
<path d="M76750 63750
L76750 60750
" />
<path d="M76750 60750
L74750 60750
" />
</g>
<g style="fill:#A000A0; fill-opacity:0.0; 
stroke:#A000A0; stroke-width:120; stroke-opacity:1; 
stroke-linecap:round; stroke-linejoin:round;">
<path d="M88750 61250
L88750 59250
" />
<path d="M87750 61250
L87750 59250
" />
<path d="M86750 61250
L86750 59250
" />
<path d="M85750 59250
L85750 53250
" />
<path d="M85750 53250
L89750 53250
" />
<path d="M89750 53250
L89750 59250
" />
<path d="M89750 59250
L85750 59250
" />
<path d="M86250 56250
L89750 56250
" />
<path d="M86250 56250
L85750 56250
" />
</g>
<g style="fill:#A000A0; fill-opacity:0.0; 
stroke:#A000A0; stroke-width:60; stroke-opacity:1; 
stroke-linecap:round; stroke-linejoin:round;">
<path d="M80750 51000
L81750 51000
" />
<path d="M81750 51000
L81750 49000
" />
<path d="M81750 49000
L80750 49000
" />
<path d="M80750 49000
L80750 51000
" />
<path d="M80750 57000
L81750 57000
" />
<path d="M81750 57000
L81750 55000
" />
<path d="M81750 55000
L80750 55000
" />
<path d="M80750 55000
L80750 57000
" />
<path d="M80750 53000
L81750 53000
" />
<path d="M81750 53000
L81750 51000
" />
<path d="M81750 51000
L80750 51000
" />
<path d="M80750 51000
L80750 53000
" />
<path d="M80750 55000
L81750 55000
" />
<path d="M81750 55000
L81750 53000
" />
<path d="M81750 53000
L80750 53000
" />
<path d="M80750 53000
L80750 55000
" />
</g>
<g style="fill:#A000A0; fill-opacity:0.0; 
stroke:#A000A0; stroke-width:120; stroke-opacity:1; 
stroke-linecap:round; stroke-linejoin:round;">
<circle cx="89750" cy="64500" r="2195" /> 
<circle cx="84750" cy="64250" r="2195" /> 
</g>
<g style="fill:#A000A0; fill-opacity:0.0; 
stroke:#A000A0; stroke-width:150; stroke-opacity:1; 
stroke-linecap:round; stroke-linejoin:round;">
<circle cx="86750" cy="75250" r="1802" /> 
</g>
<g style="fill:#A000A0; fill-opacity:0.0; 
stroke:#A000A0; stroke-width:26; stroke-opacity:1; 
stroke-linecap:round; stroke-linejoin:round;">
<path d="M70780 60945
L68305 58470
" />
<path d="M68305 58470
L69720 57055
" />
<path d="M72195 59530
L69720 57055
" />
<path d="M70780 60945
L72195 59530
" />
<path d="M71134 60945
L70957 60768
" />
<path d="M70957 60768
L72018 59707
" />
<path d="M72195 59884
L72018 59707
" />
<path d="M71134 60945
L72195 59884
" />
<path d="M71487 60945
L71311 60768
" />
<path d="M71311 60768
L72018 60061
" />
<path d="M72195 60237
L72018 60061
" />
<path d="M71487 60945
L72195 60237
" />
<path d="M68482 58293
L68305 58116
" />
<path d="M68305 58116
L69366 57055
" />
<path d="M69543 57232
L69366 57055
" />
<path d="M68482 58293
L69543 57232
" />
<path d="M68482 57939
L68305 57763
" />
<path d="M68305 57763
L69013 57055
" />
<path d="M69189 57232
L69013 57055
" />
<path d="M68482 57939
L69189 57232
" />
</g>
<g style="fill:#A000A0; fill-opacity:0.0; 
stroke:#A000A0; stroke-width:160; stroke-opacity:1; 
stroke-linecap:round; stroke-linejoin:round;">
<path d="M70497 60450
L68800 58753
" />
<path d="M71700 59247
L70003 57550
" />
</g>
<g style="fill:#A000A0; fill-opacity:0.0; 
stroke:#A000A0; stroke-width:60; stroke-opacity:1; 
stroke-linecap:round; stroke-linejoin:round;">
<path d="M70639 60308
L68942 58611
" />
<path d="M69861 57692
L71558 59389
" />
<path d="M70533 58859
L70391 58717
" />
<path d="M70391 58717
L69967 59141
" />
<path d="M69967 59141
L70109 59283
" />
<path d="M70109 59283
L70533 58859
" />
<path d="M70285 58611
L70073 58823
" />
<path d="M70073 58823
L69861 59035
" />
<path d="M70639 58965
L70427 59177
" />
<path d="M70427 59177
L70215 59389
" />
<path d="M70073 58823
L69896 58646
" />
<path d="M70427 59177
L70604 59354
" />
</g>
<g style="fill:#A000A0; fill-opacity:0.0; 
stroke:#A000A0; stroke-width:160; stroke-opacity:1; 
stroke-linecap:round; stroke-linejoin:round;">
<path d="M70498 60450 A850 850 0.0 0 0 71700 59248 " />
<path d="M70002 57550 A850 850 0.0 0 0 68800 58752 " />
</g>
<g style="fill:#A000A0; fill-opacity:0.0; 
stroke:#A000A0; stroke-width:60; stroke-opacity:1; 
stroke-linecap:round; stroke-linejoin:round;">
<path d="M70639.3 60307.1 A649 649 0.0 0 0 71558.7 59390.9 " />
<path d="M69860.7 57692.9 A649 649 0.0 0 0 68941.3 58609.1 " />
</g>
<g style="fill:#A000A0; fill-opacity:0.0; 
stroke:#A000A0; stroke-width:59; stroke-opacity:1; 
stroke-linecap:round; stroke-linejoin:round;">
<path d="M79094 66963
L79094 77907
" />
<path d="M79094 66963
L70906 66963
" />
<path d="M70906 66963
L70906 77907
" />
<path d="M70906 77907
L79094 77907
" />
</g>
<g style="fill:#A000A0; fill-opacity:0.0; 
stroke:#A000A0; stroke-width:120; stroke-opacity:1; 
stroke-linecap:round; stroke-linejoin:round;">
<path d="M82372 81250
L85128 81250
" />
<path d="M82372 81825
L82372 79069
" />
<path d="M82372 79069
L85128 79069
" />
<path d="M85128 79069
L85128 81825
" />
<path d="M85128 81825
L82372 81825
" />
<path d="M85372 81250
L88128 81250
" />
<path d="M85372 81825
L85372 79069
" />
<path d="M85372 79069
L88128 79069
" />
<path d="M88128 79069
L88128 81825
" />
<path d="M88128 81825
L85372 81825
" />
<path d="M79372 81250
L82128 81250
" />
<path d="M79372 81825
L79372 79069
" />
<path d="M79372 79069
L82128 79069
" />
<path d="M82128 79069
L82128 81825
" />
<path d="M82128 81825
L79372 81825
" />
<path d="M60622 81250
L63378 81250
" />
<path d="M60622 81825
L60622 79069
" />
<path d="M60622 79069
L63378 79069
" />
<path d="M63378 79069
L63378 81825
" />
<path d="M63378 81825
L60622 81825
" />
<path d="M67817 81825
L67817 79069
" />
<path d="M63683 81825
L63683 79069
" />
<path d="M67817 81250
L63683 81250
" />
<path d="M67817 79069
L63683 79069
" />
<path d="M67817 81825
L63683 81825
" />
<path d="M68122 81250
L70878 81250
" />
<path d="M68122 81825
L68122 79069
" />
<path d="M68122 79069
L70878 79069
" />
<path d="M70878 79069
L70878 81825
" />
<path d="M70878 81825
L68122 81825
" />
</g>
<g style="fill:#A000A0; fill-opacity:0.0; 
stroke:#A000A0; stroke-width:150; stroke-opacity:1; 
stroke-linecap:round; stroke-linejoin:round;">
<path d="M61625 61375
L61625 69375
" />
<path d="M63625 69375
L63625 61375
" />
<path d="M63625 61375
L61625 61375
" />
<path d="M62125 61375
L62125 61875
" />
<path d="M62125 61875
L63125 61875
" />
<path d="M63125 61875
L63125 61375
" />
<path d="M61625 69375
L63625 69375
" />
</g>
<g style="fill:#A000A0; fill-opacity:0.0; 
stroke:#A000A0; stroke-width:80; stroke-opacity:1; 
stroke-linecap:round; stroke-linejoin:round;">
<path d="M69530 50530
L69530 52970
" />
<path d="M69530 52970
L71970 52970
" />
<path d="M71970 52970
L71970 50530
" />
<path d="M71970 50530
L69530 50530
" />
<path d="M69530 52340
L69530 51160
" />
<path d="M71143 52970
L70357 52970
" />
<path d="M71970 52340
L71970 51160
" />
<path d="M71143 50530
L70357 50530
" />
</g>
<g style="fill:#A000A0; fill-opacity:0.0; 
stroke:#A000A0; stroke-width:40; stroke-opacity:1; 
stroke-linecap:round; stroke-linejoin:round;">
<circle cx="70750" cy="51750" r="486" /> 
<circle cx="70750" cy="51750" r="486" /> 
</g>
<g style="fill:#A000A0; fill-opacity:0.0; 
stroke:#A000A0; stroke-width:120; stroke-opacity:1; 
stroke-linecap:round; stroke-linejoin:round;">
<path d="M72933 48175
L72933 50931
" />
<path d="M77067 48175
L77067 50931
" />
<path d="M72933 48750
L77067 48750
" />
<path d="M72933 50931
L77067 50931
" />
<path d="M72933 48175
L77067 48175
" />
<path d="M66500 58000
L67500 58000
" />
<path d="M67500 58000
L67500 52000
" />
<path d="M67500 52000
L66500 52000
" />
<path d="M66500 52000
L66500 58000
" />
<path d="M66500 57000
L67500 57000
" />
</g>
<g style="fill:#808000; fill-opacity:0.0; 
stroke:#808000; stroke-width:39; stroke-opacity:1; 
stroke-linecap:round; stroke-linejoin:round;">
</g>
<g style="fill:#808000; fill-opacity:1.0; 
stroke:#808000; stroke-width:39; stroke-opacity:1; 
stroke-linecap:round; stroke-linejoin:round;">
<circle cx="75750" cy="80000" r="480.5" /> 
<circle cx="74096" cy="80000" r="480.5" /> 
<circle cx="75250" cy="61250" r="280.5" /> 
<circle cx="76250" cy="62250" r="280.5" /> 
<circle cx="75250" cy="62250" r="280.5" /> 
<circle cx="76250" cy="63250" r="280.5" /> 
<circle cx="75250" cy="63250" r="280.5" /> 
<polyline style="fill-rule:evenodd;"
points="75970,60970
76530,60970
76530,61530
75970,61530
75970,60970
" /> 
<polyline style="fill-rule:evenodd;"
points="89080,61580
88420,61580
88420,60920
89080,60920
89080,61580
" /> 
<circle cx="87750" cy="61250" r="330.5" /> 
<circle cx="86750" cy="61250" r="330.5" /> 
<polyline style="fill-rule:evenodd;"
points="89480,56480
86020,56480
86020,53020
89480,53020
89480,56480
" /> 
<polyline style="fill-rule:evenodd;"
points="81530,50780
80970,50780
80970,50220
81530,50220
81530,50780
" /> 
<circle cx="81250" cy="49500" r="280.5" /> 
<polyline style="fill-rule:evenodd;"
points="81530,56780
80970,56780
80970,56220
81530,56220
81530,56780
" /> 
<circle cx="81250" cy="55500" r="280.5" /> 
<polyline style="fill-rule:evenodd;"
points="81530,52780
80970,52780
80970,52220
81530,52220
81530,52780
" /> 
<circle cx="81250" cy="51500" r="280.5" /> 
<polyline style="fill-rule:evenodd;"
points="81530,54780
80970,54780
80970,54220
81530,54220
81530,54780
" /> 
<circle cx="81250" cy="53500" r="280.5" /> 
<polyline style="fill-rule:evenodd;"
points="88420,64830
88420,64170
89080,64170
89080,64830
88420,64830
" /> 
<circle cx="90750" cy="64500" r="330.5" /> 
<polyline style="fill-rule:evenodd;"
points="86080,63920
86080,64580
85420,64580
85420,63920
86080,63920
" /> 
<circle cx="83750" cy="64250" r="330.5" /> 
<circle cx="85750" cy="76250" r="280.5" /> 
<circle cx="85750" cy="74250" r="280.5" /> 
<circle cx="87750" cy="74250" r="280.5" /> 
<circle cx="87750" cy="76250" r="280.5" /> 
<circle cx="70922" cy="59672" r="240.5" /> 
<circle cx="69578" cy="58328" r="240.5" /> 
<circle cx="74134" cy="72750" r="330.5" /> 
<circle cx="75866" cy="72750" r="330.5" /> 
<circle cx="72402" cy="72750" r="330.5" /> 
<circle cx="77598" cy="72750" r="330.5" /> 
<circle cx="77598" cy="70250" r="330.5" /> 
<circle cx="75866" cy="70250" r="330.5" /> 
<circle cx="74134" cy="70250" r="330.5" /> 
<circle cx="72402" cy="70250" r="330.5" /> 
<circle cx="72402" cy="68636" r="330.5" /> 
<circle cx="74134" cy="68636" r="330.5" /> 
<circle cx="75866" cy="68636" r="330.5" /> 
<circle cx="77598" cy="68636" r="330.5" /> 
<circle cx="77598" cy="75250" r="330.5" /> 
<circle cx="72402" cy="75250" r="330.5" /> 
<polyline style="fill-rule:evenodd;"
points="84919,79770
84919,80730
83959,80730
83959,79770
84919,79770
" /> 
<circle cx="83061" cy="80250" r="480.5" /> 
<polyline style="fill-rule:evenodd;"
points="87919,79770
87919,80730
86959,80730
86959,79770
87919,79770
" /> 
<circle cx="86061" cy="80250" r="480.5" /> 
<polyline style="fill-rule:evenodd;"
points="81919,79770
81919,80730
80959,80730
80959,79770
81919,79770
" /> 
<circle cx="80061" cy="80250" r="480.5" /> 
<polyline style="fill-rule:evenodd;"
points="63169,79770
63169,80730
62209,80730
62209,79770
63169,79770
" /> 
<circle cx="61311" cy="80250" r="480.5" /> 
<polyline style="fill-rule:evenodd;"
points="67608,79770
67608,80730
66648,80730
66648,79770
67608,79770
" /> 
<circle cx="65750" cy="80250" r="480.5" /> 
<circle cx="64372" cy="80250" r="480.5" /> 
<polyline style="fill-rule:evenodd;"
points="70669,79770
70669,80730
69709,80730
69709,79770
70669,79770
" /> 
<circle cx="68811" cy="80250" r="480.5" /> 
<polyline style="fill-rule:evenodd;"
points="63870,62120
64380,62120
64380,62630
63870,62630
63870,62120
" /> 
<circle cx="64125" cy="63375" r="255.5" /> 
<circle cx="64125" cy="67375" r="255.5" /> 
<circle cx="64125" cy="68375" r="255.5" /> 
<circle cx="61125" cy="68375" r="255.5" /> 
<circle cx="61125" cy="67375" r="255.5" /> 
<circle cx="61125" cy="63375" r="255.5" /> 
<circle cx="61125" cy="62375" r="255.5" /> 
</g>
<g style="fill:#808000; fill-opacity:1.0; 
stroke:#808000; stroke-width:593; stroke-opacity:1; 
stroke-linecap:round; stroke-linejoin:round;">
<path d="M70162 50471
L69568 50471
" />
<path d="M70162 53029
L69568 53029
" />
<path d="M71932 50471
L71338 50471
" />
<path d="M71932 53029
L71338 53029
" />
</g>
<g style="fill:#808000; fill-opacity:1.0; 
stroke:#808000; stroke-width:39; stroke-opacity:1; 
stroke-linecap:round; stroke-linejoin:round;">
<polyline style="fill-rule:evenodd;"
points="73142,50230
73142,49270
74102,49270
74102,50230
73142,50230
" /> 
<circle cx="75000" cy="49750" r="480.5" /> 
<circle cx="76378" cy="49750" r="480.5" /> 
<circle cx="90000" cy="80000" r="1161.5" /> 
<circle cx="90000" cy="50000" r="1161.5" /> 
<circle cx="58000" cy="50000" r="1161.5" /> 
<circle cx="58000" cy="80000" r="1161.5" /> 
<polyline style="fill-rule:evenodd;"
points="67280,57780
66720,57780
66720,57220
67280,57220
67280,57780
" /> 
<circle cx="67000" cy="56500" r="280.5" /> 
<circle cx="67000" cy="55500" r="280.5" /> 
<circle cx="67000" cy="54500" r="280.5" /> 
<circle cx="67000" cy="53500" r="280.5" /> 
<circle cx="67000" cy="52500" r="280.5" /> 
</g> 
</svg>
