<?xml version="1.0" standalone="no"?>
 <!DOCTYPE svg PUBLIC "-//W3C//DTD SVG 1.1//EN" 
 "http://www.w3.org/Graphics/SVG/1.1/DTD/svg11.dtd"> 
<svg xmlns="http://www.w3.org/2000/svg" version="1.1" 
    width="41.9989cm" height="29.7002cm" viewBox="0 0 165350 116930 ">
<title>SVG Picture created as motoplygas-B_Cu.svg date 2013/03/09 15:19:02 </title>
  <desc>Picture generated by PCBNEW </desc>
<g style="fill:#000000; fill-opacity:1;stroke:#000000; stroke-opacity:1;
stroke-linecap:round; stroke-linejoin:round; "
 transform="translate(0 0) scale(1 1)">
</g>
<g style="fill:#000000; fill-opacity:0.0; 
stroke:#000000; stroke-width:39; stroke-opacity:1; 
stroke-linecap:round; stroke-linejoin:round;">
<path d="M4000 4000
L161350 4000
L161350 112930
L4000 112930
L4000 4000
" />
<path d="M4700 4700
L160650 4700
L160650 112230
L4700 112230
L4700 4700
" />
<path d="M26470 4000
L26470 4700
" />
<path d="M15383 4552
L15097 4552
" />
<path d="M15240 4552
L15240 4052
L15192 4124
L15145 4171
L15097 4195
" />
<path d="M26470 112930
L26470 112230
" />
<path d="M15383 112782
L15097 112782
" />
<path d="M15240 112782
L15240 112282
L15192 112354
L15145 112401
L15097 112425
" />
<path d="M48940 4000
L48940 4700
" />
<path d="M37567 4100
L37591 4076
L37639 4052
L37758 4052
L37805 4076
L37829 4100
L37853 4148
L37853 4195
L37829 4267
L37543 4552
L37853 4552
" />
<path d="M48940 112930
L48940 112230
" />
<path d="M37567 112330
L37591 112306
L37639 112282
L37758 112282
L37805 112306
L37829 112330
L37853 112378
L37853 112425
L37829 112497
L37543 112782
L37853 112782
" />
<path d="M71410 4000
L71410 4700
" />
<path d="M60013 4052
L60323 4052
L60156 4243
L60228 4243
L60275 4267
L60299 4290
L60323 4338
L60323 4457
L60299 4505
L60275 4529
L60228 4552
L60085 4552
L60037 4529
L60013 4505
" />
<path d="M71410 112930
L71410 112230
" />
<path d="M60013 112282
L60323 112282
L60156 112473
L60228 112473
L60275 112497
L60299 112520
L60323 112568
L60323 112687
L60299 112735
L60275 112759
L60228 112782
L60085 112782
L60037 112759
L60013 112735
" />
<path d="M93880 4000
L93880 4700
" />
<path d="M82745 4219
L82745 4552
" />
<path d="M82626 4029
L82507 4386
L82817 4386
" />
<path d="M93880 112930
L93880 112230
" />
<path d="M82745 112449
L82745 112782
" />
<path d="M82626 112259
L82507 112616
L82817 112616
" />
<path d="M116350 4000
L116350 4700
" />
<path d="M105239 4052
L105001 4052
L104977 4290
L105001 4267
L105049 4243
L105168 4243
L105215 4267
L105239 4290
L105263 4338
L105263 4457
L105239 4505
L105215 4529
L105168 4552
L105049 4552
L105001 4529
L104977 4505
" />
<path d="M116350 112930
L116350 112230
" />
<path d="M105239 112282
L105001 112282
L104977 112520
L105001 112497
L105049 112473
L105168 112473
L105215 112497
L105239 112520
L105263 112568
L105263 112687
L105239 112735
L105215 112759
L105168 112782
L105049 112782
L105001 112759
L104977 112735
" />
<path d="M138820 4000
L138820 4700
" />
<path d="M127685 4052
L127590 4052
L127542 4076
L127519 4100
L127471 4171
L127447 4267
L127447 4457
L127471 4505
L127495 4529
L127542 4552
L127638 4552
L127685 4529
L127709 4505
L127733 4457
L127733 4338
L127709 4290
L127685 4267
L127638 4243
L127542 4243
L127495 4267
L127471 4290
L127447 4338
" />
<path d="M138820 112930
L138820 112230
" />
<path d="M127685 112282
L127590 112282
L127542 112306
L127519 112330
L127471 112401
L127447 112497
L127447 112687
L127471 112735
L127495 112759
L127542 112782
L127638 112782
L127685 112759
L127709 112735
L127733 112687
L127733 112568
L127709 112520
L127685 112497
L127638 112473
L127542 112473
L127495 112497
L127471 112520
L127447 112568
" />
<path d="M149893 4052
L150227 4052
L150012 4552
" />
<path d="M149893 112282
L150227 112282
L150012 112782
" />
<path d="M4000 25780
L4700 25780
" />
<path d="M4231 14950
L4469 14950
" />
<path d="M4184 15092
L4350 14592
L4517 15092
" />
<path d="M161350 25780
L160650 25780
" />
<path d="M160881 14950
L161119 14950
" />
<path d="M160834 15092
L161000 14592
L161167 15092
" />
<path d="M4000 47560
L4700 47560
" />
<path d="M4386 36610
L4457 36634
L4481 36658
L4505 36706
L4505 36777
L4481 36825
L4457 36849
L4410 36872
L4219 36872
L4219 36372
L4386 36372
L4433 36396
L4457 36420
L4481 36468
L4481 36515
L4457 36563
L4433 36587
L4386 36610
L4219 36610
" />
<path d="M161350 47560
L160650 47560
" />
<path d="M161036 36610
L161107 36634
L161131 36658
L161155 36706
L161155 36777
L161131 36825
L161107 36849
L161060 36872
L160869 36872
L160869 36372
L161036 36372
L161083 36396
L161107 36420
L161131 36468
L161131 36515
L161107 36563
L161083 36587
L161036 36610
L160869 36610
" />
<path d="M4000 69340
L4700 69340
" />
<path d="M4505 58605
L4481 58629
L4410 58652
L4362 58652
L4290 58629
L4243 58581
L4219 58533
L4195 58438
L4195 58367
L4219 58271
L4243 58224
L4290 58176
L4362 58152
L4410 58152
L4481 58176
L4505 58200
" />
<path d="M161350 69340
L160650 69340
" />
<path d="M161155 58605
L161131 58629
L161060 58652
L161012 58652
L160940 58629
L160893 58581
L160869 58533
L160845 58438
L160845 58367
L160869 58271
L160893 58224
L160940 58176
L161012 58152
L161060 58152
L161131 58176
L161155 58200
" />
<path d="M4000 91120
L4700 91120
" />
<path d="M4219 80432
L4219 79932
L4338 79932
L4410 79956
L4457 80004
L4481 80051
L4505 80147
L4505 80218
L4481 80313
L4457 80361
L4410 80409
L4338 80432
L4219 80432
" />
<path d="M161350 91120
L160650 91120
" />
<path d="M160869 80432
L160869 79932
L160988 79932
L161060 79956
L161107 80004
L161131 80051
L161155 80147
L161155 80218
L161131 80313
L161107 80361
L161060 80409
L160988 80432
L160869 80432
" />
<path d="M4243 101950
L4410 101950
" />
<path d="M4481 102212
L4243 102212
L4243 101712
L4481 101712
" />
<path d="M160893 101950
L161060 101950
" />
<path d="M161131 102212
L160893 102212
L160893 101712
L161131 101712
" />
<path d="M127800 110673
L127875 110073
L128018 110073
L128100 110101
L128150 110159
L128171 110216
L128186 110330
L128175 110416
L128132 110530
L128097 110587
L128032 110644
L127943 110673
L127800 110673
" />
<path d="M128657 110673
L128696 110359
L128675 110301
L128621 110273
L128507 110273
L128447 110301
" />
<path d="M128661 110644
L128600 110673
L128457 110673
L128404 110644
L128382 110587
L128389 110530
L128425 110473
L128486 110444
L128629 110444
L128689 110416
" />
<path d="M128907 110273
L129136 110273
" />
<path d="M129018 110073
L128954 110587
L128975 110644
L129029 110673
L129086 110673
" />
<path d="M129518 110644
L129457 110673
L129343 110673
L129290 110644
L129268 110587
L129296 110359
L129333 110301
L129393 110273
L129507 110273
L129561 110301
L129582 110359
L129575 110416
L129282 110473
" />
<path d="M129807 110616
L129832 110644
L129800 110673
L129775 110644
L129807 110616
L129800 110673
" />
<path d="M129847 110301
L129871 110330
L129839 110359
L129814 110330
L129847 110301
L129839 110359
" />
<path d="M130571 110673
L130686 110673
L130747 110644
L130778 110616
L130847 110530
L130889 110416
L130918 110187
L130897 110130
L130872 110101
L130818 110073
L130704 110073
L130643 110101
L130611 110130
L130575 110187
L130557 110330
L130579 110387
L130603 110416
L130658 110444
L130772 110444
L130832 110416
L130865 110387
L130900 110330
" />
<path d="M131571 110673
L131621 110273
" />
<path d="M131614 110330
L131646 110301
L131707 110273
L131792 110273
L131846 110301
L131867 110359
L131828 110673
" />
<path d="M131867 110359
L131904 110301
L131964 110273
L132049 110273
L132104 110301
L132124 110359
L132085 110673
" />
<path d="M132628 110673
L132667 110359
L132646 110301
L132592 110273
L132478 110273
L132418 110301
" />
<path d="M132632 110644
L132571 110673
L132428 110673
L132375 110644
L132353 110587
L132360 110530
L132396 110473
L132457 110444
L132600 110444
L132660 110416
" />
<path d="M132914 110673
L132964 110273
" />
<path d="M132950 110387
L132985 110330
L133018 110301
L133078 110273
L133135 110273
" />
<path d="M133781 110130
L133814 110101
L133874 110073
L134017 110073
L134071 110101
L134096 110130
L134117 110187
L134110 110244
L134071 110330
L133685 110673
L134056 110673
" />
<path d="M134502 110073
L134559 110073
L134613 110101
L134638 110130
L134660 110187
L134674 110301
L134656 110444
L134613 110559
L134577 110616
L134545 110644
L134484 110673
L134427 110673
L134374 110644
L134348 110616
L134327 110559
L134313 110444
L134331 110301
L134374 110187
L134409 110130
L134442 110101
L134502 110073
" />
<path d="M135198 110673
L134855 110673
" />
<path d="M135027 110673
L135102 110073
L135034 110159
L134969 110216
L134909 110244
" />
<path d="M135473 110073
L135844 110073
L135616 110301
L135702 110301
L135755 110330
L135780 110359
L135801 110416
L135783 110559
L135748 110616
L135716 110644
L135655 110673
L135483 110673
L135430 110644
L135405 110616
" />
<path d="M119393 111873
L119393 111273
" />
<path d="M119736 111873
L119479 111530
" />
<path d="M119736 111273
L119393 111616
" />
<path d="M119993 111873
L119993 111473
" />
<path d="M119993 111273
L119964 111301
L119993 111330
L120021 111301
L119993 111273
L119993 111330
" />
<path d="M120622 111816
L120593 111844
L120507 111873
L120450 111873
L120365 111844
L120307 111787
L120279 111730
L120250 111616
L120250 111530
L120279 111416
L120307 111359
L120365 111301
L120450 111273
L120507 111273
L120593 111301
L120622 111330
" />
<path d="M121136 111873
L121136 111559
L121107 111501
L121050 111473
L120936 111473
L120879 111501
" />
<path d="M121136 111844
L121079 111873
L120936 111873
L120879 111844
L120850 111787
L120850 111730
L120879 111673
L120936 111644
L121079 111644
L121136 111616
" />
<path d="M121679 111873
L121679 111273
" />
<path d="M121679 111844
L121622 111873
L121508 111873
L121450 111844
L121422 111816
L121393 111759
L121393 111587
L121422 111530
L121450 111501
L121508 111473
L121622 111473
L121679 111501
" />
<path d="M122422 111559
L122622 111559
" />
<path d="M122708 111873
L122422 111873
L122422 111273
L122708 111273
" />
<path d="M122965 111816
L122993 111844
L122965 111873
L122936 111844
L122965 111816
L122965 111873
" />
<path d="M123251 111873
L123251 111273
L123394 111273
L123479 111301
L123537 111359
L123565 111416
L123594 111530
L123594 111616
L123565 111730
L123537 111787
L123479 111844
L123394 111873
L123251 111873
" />
<path d="M123851 111816
L123879 111844
L123851 111873
L123822 111844
L123851 111816
L123851 111873
" />
<path d="M124108 111701
L124394 111701
" />
<path d="M124051 111873
L124251 111273
L124451 111873
" />
<path d="M124651 111816
L124679 111844
L124651 111873
L124622 111844
L124651 111816
L124651 111873
" />
<path d="M152943 110673
L152779 110387
" />
<path d="M152600 110673
L152675 110073
L152903 110073
L152958 110101
L152982 110130
L153004 110187
L152993 110273
L152957 110330
L152925 110359
L152864 110387
L152636 110387
" />
<path d="M153432 110644
L153371 110673
L153257 110673
L153204 110644
L153182 110587
L153210 110359
L153247 110301
L153307 110273
L153421 110273
L153475 110301
L153496 110359
L153489 110416
L153196 110473
" />
<path d="M153707 110273
L153800 110673
L153992 110273
" />
<path d="M154178 110616
L154203 110644
L154171 110673
L154146 110644
L154178 110616
L154171 110673
" />
<path d="M154218 110301
L154242 110330
L154210 110359
L154185 110330
L154218 110301
L154210 110359
" />
<path d="M119364 110644
L119450 110673
L119593 110673
L119650 110644
L119679 110616
L119707 110559
L119707 110501
L119679 110444
L119650 110416
L119593 110387
L119479 110359
L119421 110330
L119393 110301
L119364 110244
L119364 110187
L119393 110130
L119421 110101
L119479 110073
L119621 110073
L119707 110101
" />
<path d="M119964 110673
L119964 110273
" />
<path d="M119964 110073
L119935 110101
L119964 110130
L119992 110101
L119964 110073
L119964 110130
" />
<path d="M120193 110273
L120507 110273
L120193 110673
L120507 110673
" />
<path d="M120964 110644
L120907 110673
L120793 110673
L120736 110644
L120707 110587
L120707 110359
L120736 110301
L120793 110273
L120907 110273
L120964 110301
L120993 110359
L120993 110416
L120707 110473
" />
<path d="M121250 110616
L121278 110644
L121250 110673
L121221 110644
L121250 110616
L121250 110673
" />
<path d="M121250 110301
L121278 110330
L121250 110359
L121221 110330
L121250 110301
L121250 110359
" />
<path d="M121964 110501
L122250 110501
" />
<path d="M121907 110673
L122107 110073
L122307 110673
" />
<path d="M122450 110073
L122821 110073
L122621 110301
L122707 110301
L122764 110330
L122793 110359
L122821 110416
L122821 110559
L122793 110616
L122764 110644
L122707 110673
L122535 110673
L122478 110644
L122450 110616
" />
<path d="M152593 111873
L152593 111273
" />
<path d="M153136 111873
L153136 111273
" />
<path d="M153136 111844
L153079 111873
L152965 111873
L152907 111844
L152879 111816
L152850 111759
L152850 111587
L152879 111530
L152907 111501
L152965 111473
L153079 111473
L153136 111501
" />
<path d="M153422 111816
L153450 111844
L153422 111873
L153393 111844
L153422 111816
L153422 111873
" />
<path d="M153422 111501
L153450 111530
L153422 111559
L153393 111530
L153422 111501
L153422 111559
" />
<path d="M154479 111873
L154136 111873
" />
<path d="M154308 111873
L154308 111273
L154251 111359
L154193 111416
L154136 111444
" />
<path d="M155164 111244
L154650 112016
" />
<path d="M155679 111873
L155336 111873
" />
<path d="M155508 111873
L155508 111273
L155451 111359
L155393 111416
L155336 111444
" />
<path d="M119389 108873
L119732 108873
" />
<path d="M119486 109473
L119561 108873
" />
<path d="M119857 109473
L119907 109073
" />
<path d="M119932 108873
L119900 108901
L119925 108930
L119957 108901
L119932 108873
L119925 108930
" />
<path d="M120107 109073
L120336 109073
" />
<path d="M120218 108873
L120154 109387
L120175 109444
L120229 109473
L120286 109473
" />
<path d="M120572 109473
L120518 109444
L120497 109387
L120561 108873
" />
<path d="M121032 109444
L120971 109473
L120857 109473
L120804 109444
L120782 109387
L120810 109159
L120847 109101
L120907 109073
L121021 109073
L121075 109101
L121096 109159
L121089 109216
L120796 109273
" />
<path d="M121321 109416
L121346 109444
L121314 109473
L121289 109444
L121321 109416
L121314 109473
" />
<path d="M121361 109101
L121385 109130
L121353 109159
L121328 109130
L121361 109101
L121353 109159
" />
<path d="M119593 106759
L119393 106759
" />
<path d="M119393 107073
L119393 106473
L119679 106473
" />
<path d="M119907 107073
L119907 106673
" />
<path d="M119907 106473
L119878 106501
L119907 106530
L119935 106501
L119907 106473
L119907 106530
" />
<path d="M120279 107073
L120221 107044
L120193 106987
L120193 106473
" />
<path d="M120735 107044
L120678 107073
L120564 107073
L120507 107044
L120478 106987
L120478 106759
L120507 106701
L120564 106673
L120678 106673
L120735 106701
L120764 106759
L120764 106816
L120478 106873
" />
<path d="M121021 107016
L121049 107044
L121021 107073
L120992 107044
L121021 107016
L121021 107073
" />
<path d="M121021 106701
L121049 106730
L121021 106759
L120992 106730
L121021 106701
L121021 106759
" />
<path d="M121764 107073
L121764 106673
" />
<path d="M121764 106730
L121792 106701
L121850 106673
L121935 106673
L121992 106701
L122021 106759
L122021 107073
" />
<path d="M122021 106759
L122050 106701
L122107 106673
L122192 106673
L122250 106701
L122278 106759
L122278 107073
" />
<path d="M122650 107073
L122592 107044
L122564 107016
L122535 106959
L122535 106787
L122564 106730
L122592 106701
L122650 106673
L122735 106673
L122792 106701
L122821 106730
L122850 106787
L122850 106959
L122821 107016
L122792 107044
L122735 107073
L122650 107073
" />
<path d="M123021 106673
L123250 106673
" />
<path d="M123107 106473
L123107 106987
L123135 107044
L123193 107073
L123250 107073
" />
<path d="M123536 107073
L123478 107044
L123450 107016
L123421 106959
L123421 106787
L123450 106730
L123478 106701
L123536 106673
L123621 106673
L123678 106701
L123707 106730
L123736 106787
L123736 106959
L123707 107016
L123678 107044
L123621 107073
L123536 107073
" />
<path d="M123993 106673
L123993 107273
" />
<path d="M123993 106701
L124050 106673
L124164 106673
L124221 106701
L124250 106730
L124279 106787
L124279 106959
L124250 107016
L124221 107044
L124164 107073
L124050 107073
L123993 107044
" />
<path d="M124622 107073
L124564 107044
L124536 106987
L124536 106473
" />
<path d="M124793 106673
L124936 107073
" />
<path d="M125078 106673
L124936 107073
L124878 107216
L124850 107244
L124793 107273
" />
<path d="M125564 106673
L125564 107159
L125535 107216
L125507 107244
L125450 107273
L125364 107273
L125307 107244
" />
<path d="M125564 107044
L125507 107073
L125393 107073
L125335 107044
L125307 107016
L125278 106959
L125278 106787
L125307 106730
L125335 106701
L125393 106673
L125507 106673
L125564 106701
" />
<path d="M126107 107073
L126107 106759
L126078 106701
L126021 106673
L125907 106673
L125850 106701
" />
<path d="M126107 107044
L126050 107073
L125907 107073
L125850 107044
L125821 106987
L125821 106930
L125850 106873
L125907 106844
L126050 106844
L126107 106816
" />
<path d="M126364 107044
L126421 107073
L126536 107073
L126593 107044
L126621 106987
L126621 106959
L126593 106901
L126536 106873
L126450 106873
L126393 106844
L126364 106787
L126364 106759
L126393 106701
L126450 106673
L126536 106673
L126593 106701
" />
<path d="M126879 107016
L126907 107044
L126879 107073
L126850 107044
L126879 107016
L126879 107073
" />
<path d="M127165 107073
L127165 106473
" />
<path d="M127222 106844
L127393 107073
" />
<path d="M127393 106673
L127165 106901
" />
<path d="M127651 107073
L127651 106673
" />
<path d="M127651 106473
L127622 106501
L127651 106530
L127679 106501
L127651 106473
L127651 106530
" />
<path d="M128194 107044
L128137 107073
L128023 107073
L127965 107044
L127937 107016
L127908 106959
L127908 106787
L127937 106730
L127965 106701
L128023 106673
L128137 106673
L128194 106701
" />
<path d="M128708 107073
L128708 106759
L128679 106701
L128622 106673
L128508 106673
L128451 106701
" />
<path d="M128708 107044
L128651 107073
L128508 107073
L128451 107044
L128422 106987
L128422 106930
L128451 106873
L128508 106844
L128651 106844
L128708 106816
" />
<path d="M129251 107073
L129251 106473
" />
<path d="M129251 107044
L129194 107073
L129080 107073
L129022 107044
L128994 107016
L128965 106959
L128965 106787
L128994 106730
L129022 106701
L129080 106673
L129194 106673
L129251 106701
" />
<path d="M129394 107130
L129851 107130
" />
<path d="M129994 106673
L129994 107273
" />
<path d="M129994 106701
L130051 106673
L130165 106673
L130222 106701
L130251 106730
L130280 106787
L130280 106959
L130251 107016
L130222 107044
L130165 107073
L130051 107073
L129994 107044
" />
<path d="M130794 107044
L130737 107073
L130623 107073
L130565 107044
L130537 107016
L130508 106959
L130508 106787
L130537 106730
L130565 106701
L130623 106673
L130737 106673
L130794 106701
" />
<path d="M131051 107073
L131051 106473
" />
<path d="M131051 106701
L131108 106673
L131222 106673
L131279 106701
L131308 106730
L131337 106787
L131337 106959
L131308 107016
L131279 107044
L131222 107073
L131108 107073
L131051 107044
" />
<path d="M119364 108244
L119450 108273
L119593 108273
L119650 108244
L119679 108216
L119707 108159
L119707 108101
L119679 108044
L119650 108016
L119593 107987
L119479 107959
L119421 107930
L119393 107901
L119364 107844
L119364 107787
L119393 107730
L119421 107701
L119479 107673
L119621 107673
L119707 107701
" />
<path d="M119964 108273
L119964 107673
" />
<path d="M120221 108273
L120221 107959
L120192 107901
L120135 107873
L120050 107873
L119992 107901
L119964 107930
" />
<path d="M120735 108244
L120678 108273
L120564 108273
L120507 108244
L120478 108187
L120478 107959
L120507 107901
L120564 107873
L120678 107873
L120735 107901
L120764 107959
L120764 108016
L120478 108073
" />
<path d="M121249 108244
L121192 108273
L121078 108273
L121021 108244
L120992 108187
L120992 107959
L121021 107901
L121078 107873
L121192 107873
L121249 107901
L121278 107959
L121278 108016
L120992 108073
" />
<path d="M121449 107873
L121678 107873
" />
<path d="M121535 107673
L121535 108187
L121563 108244
L121621 108273
L121678 108273
" />
<path d="M121878 108216
L121906 108244
L121878 108273
L121849 108244
L121878 108216
L121878 108273
" />
<path d="M121878 107901
L121906 107930
L121878 107959
L121849 107930
L121878 107901
L121878 107959
" />
<path d="M118650 106230
L118650 112230
" />
<path d="M118650 106230
L160650 106230
" />
<path d="M118650 106230
L160650 106230
" />
<path d="M118650 108630
L160650 108630
" />
<path d="M151850 109830
L151850 112230
" />
<path d="M118650 111030
L160650 111030
" />
<path d="M118650 109830
L160650 109830
" />
<path d="M125250 109830
L125250 111030
" />
</g>
<g style="fill:#808000; fill-opacity:0.0; 
stroke:#808000; stroke-width:39; stroke-opacity:1; 
stroke-linecap:round; stroke-linejoin:round;">
</g>
<g style="fill:#808000; fill-opacity:1.0; 
stroke:#808000; stroke-width:39; stroke-opacity:1; 
stroke-linecap:round; stroke-linejoin:round;">
<circle cx="75750" cy="80000" r="480.5" /> 
<circle cx="74096" cy="80000" r="480.5" /> 
<circle cx="75250" cy="61250" r="280.5" /> 
<circle cx="76250" cy="62250" r="280.5" /> 
<circle cx="75250" cy="62250" r="280.5" /> 
<circle cx="76250" cy="63250" r="280.5" /> 
<circle cx="75250" cy="63250" r="280.5" /> 
<polyline style="fill-rule:evenodd;"
points="75970,60970
76530,60970
76530,61530
75970,61530
75970,60970
" /> 
<polyline style="fill-rule:evenodd;"
points="89080,61580
88420,61580
88420,60920
89080,60920
89080,61580
" /> 
<circle cx="87750" cy="61250" r="330.5" /> 
<circle cx="86750" cy="61250" r="330.5" /> 
<polyline style="fill-rule:evenodd;"
points="89480,56480
86020,56480
86020,53020
89480,53020
89480,56480
" /> 
<polyline style="fill-rule:evenodd;"
points="81530,50780
80970,50780
80970,50220
81530,50220
81530,50780
" /> 
<circle cx="81250" cy="49500" r="280.5" /> 
<polyline style="fill-rule:evenodd;"
points="81530,56780
80970,56780
80970,56220
81530,56220
81530,56780
" /> 
<circle cx="81250" cy="55500" r="280.5" /> 
<polyline style="fill-rule:evenodd;"
points="81530,52780
80970,52780
80970,52220
81530,52220
81530,52780
" /> 
<circle cx="81250" cy="51500" r="280.5" /> 
<polyline style="fill-rule:evenodd;"
points="81530,54780
80970,54780
80970,54220
81530,54220
81530,54780
" /> 
<circle cx="81250" cy="53500" r="280.5" /> 
<polyline style="fill-rule:evenodd;"
points="88420,64830
88420,64170
89080,64170
89080,64830
88420,64830
" /> 
<circle cx="90750" cy="64500" r="330.5" /> 
<polyline style="fill-rule:evenodd;"
points="86080,63920
86080,64580
85420,64580
85420,63920
86080,63920
" /> 
<circle cx="83750" cy="64250" r="330.5" /> 
<circle cx="85750" cy="76250" r="280.5" /> 
<circle cx="85750" cy="74250" r="280.5" /> 
<circle cx="87750" cy="74250" r="280.5" /> 
<circle cx="87750" cy="76250" r="280.5" /> 
<circle cx="70922" cy="59672" r="240.5" /> 
<circle cx="69578" cy="58328" r="240.5" /> 
</g>
<g style="fill:#808000; fill-opacity:1.0; 
stroke:#808000; stroke-width:520; stroke-opacity:1; 
stroke-linecap:round; stroke-linejoin:round;">
<path d="M64100 71160
L64100 70640
" />
<path d="M63100 71160
L63100 70640
" />
<path d="M63100 74160
L63100 73640
" />
<path d="M64100 74160
L64100 73640
" />
<path d="M67100 71160
L67100 70640
" />
<path d="M66100 71160
L66100 70640
" />
<path d="M66100 74160
L66100 73640
" />
<path d="M67100 74160
L67100 73640
" />
</g>
<g style="fill:#808000; fill-opacity:1.0; 
stroke:#808000; stroke-width:39; stroke-opacity:1; 
stroke-linecap:round; stroke-linejoin:round;">
<circle cx="74134" cy="72750" r="330.5" /> 
<circle cx="75866" cy="72750" r="330.5" /> 
<circle cx="72402" cy="72750" r="330.5" /> 
<circle cx="77598" cy="72750" r="330.5" /> 
<circle cx="77598" cy="70250" r="330.5" /> 
<circle cx="75866" cy="70250" r="330.5" /> 
<circle cx="74134" cy="70250" r="330.5" /> 
<circle cx="72402" cy="70250" r="330.5" /> 
<circle cx="72402" cy="68636" r="330.5" /> 
<circle cx="74134" cy="68636" r="330.5" /> 
<circle cx="75866" cy="68636" r="330.5" /> 
<circle cx="77598" cy="68636" r="330.5" /> 
<circle cx="77598" cy="75250" r="330.5" /> 
<circle cx="72402" cy="75250" r="330.5" /> 
<polyline style="fill-rule:evenodd;"
points="84919,79770
84919,80730
83959,80730
83959,79770
84919,79770
" /> 
<circle cx="83061" cy="80250" r="480.5" /> 
<polyline style="fill-rule:evenodd;"
points="87919,79770
87919,80730
86959,80730
86959,79770
87919,79770
" /> 
<circle cx="86061" cy="80250" r="480.5" /> 
<polyline style="fill-rule:evenodd;"
points="76331,96730
76331,95770
77291,95770
77291,96730
76331,96730
" /> 
<circle cx="78189" cy="96250" r="480.5" /> 
<polyline style="fill-rule:evenodd;"
points="81919,79770
81919,80730
80959,80730
80959,79770
81919,79770
" /> 
<circle cx="80061" cy="80250" r="480.5" /> 
<polyline style="fill-rule:evenodd;"
points="63169,79770
63169,80730
62209,80730
62209,79770
63169,79770
" /> 
<circle cx="61311" cy="80250" r="480.5" /> 
<polyline style="fill-rule:evenodd;"
points="67608,79770
67608,80730
66648,80730
66648,79770
67608,79770
" /> 
<circle cx="65750" cy="80250" r="480.5" /> 
<circle cx="64372" cy="80250" r="480.5" /> 
<polyline style="fill-rule:evenodd;"
points="70669,79770
70669,80730
69709,80730
69709,79770
70669,79770
" /> 
<circle cx="68811" cy="80250" r="480.5" /> 
<polyline style="fill-rule:evenodd;"
points="63870,62120
64380,62120
64380,62630
63870,62630
63870,62120
" /> 
<circle cx="64125" cy="63375" r="255.5" /> 
<circle cx="64125" cy="67375" r="255.5" /> 
<circle cx="64125" cy="68375" r="255.5" /> 
<circle cx="61125" cy="68375" r="255.5" /> 
<circle cx="61125" cy="67375" r="255.5" /> 
<circle cx="61125" cy="63375" r="255.5" /> 
<circle cx="61125" cy="62375" r="255.5" /> 
</g>
<g style="fill:#808000; fill-opacity:1.0; 
stroke:#808000; stroke-width:593; stroke-opacity:1; 
stroke-linecap:round; stroke-linejoin:round;">
<path d="M70162 50471
L69568 50471
" />
<path d="M70162 53029
L69568 53029
" />
<path d="M71932 50471
L71338 50471
" />
<path d="M71932 53029
L71338 53029
" />
</g>
<g style="fill:#808000; fill-opacity:1.0; 
stroke:#808000; stroke-width:39; stroke-opacity:1; 
stroke-linecap:round; stroke-linejoin:round;">
<polyline style="fill-rule:evenodd;"
points="73142,50230
73142,49270
74102,49270
74102,50230
73142,50230
" /> 
<circle cx="75000" cy="49750" r="480.5" /> 
<circle cx="76378" cy="49750" r="480.5" /> 
<circle cx="90000" cy="80000" r="1161.5" /> 
<circle cx="90000" cy="50000" r="1161.5" /> 
<circle cx="58000" cy="50000" r="1161.5" /> 
<circle cx="58000" cy="80000" r="1161.5" /> 
<polyline style="fill-rule:evenodd;"
points="67280,57780
66720,57780
66720,57220
67280,57220
67280,57780
" /> 
<circle cx="67000" cy="56500" r="280.5" /> 
<circle cx="67000" cy="55500" r="280.5" /> 
<circle cx="67000" cy="54500" r="280.5" /> 
<circle cx="67000" cy="53500" r="280.5" /> 
<circle cx="67000" cy="52500" r="280.5" /> 
</g>
<g style="fill:#C0C0C0; fill-opacity:1.0; 
stroke:#C0C0C0; stroke-width:39; stroke-opacity:1; 
stroke-linecap:round; stroke-linejoin:round;">
<circle cx="63500" cy="75000" r="280.5" /> 
<circle cx="66250" cy="75000" r="280.5" /> 
<circle cx="72000" cy="55250" r="280.5" /> 
<circle cx="70000" cy="78000" r="280.5" /> 
<circle cx="76500" cy="53000" r="280.5" /> 
<circle cx="78500" cy="63250" r="280.5" /> 
<circle cx="75500" cy="53000" r="280.5" /> 
<circle cx="80750" cy="76500" r="280.5" /> 
<circle cx="70250" cy="72250" r="280.5" /> 
<circle cx="68000" cy="55500" r="280.5" /> 
<circle cx="65250" cy="66250" r="280.5" /> 
<circle cx="73500" cy="52000" r="280.5" /> 
<circle cx="75250" cy="60250" r="280.5" /> 
<circle cx="70500" cy="56000" r="280.5" /> 
<circle cx="78250" cy="57750" r="280.5" /> 
</g>
<g style="fill:#00A000; fill-opacity:1.0; 
stroke:#00A000; stroke-width:320; stroke-opacity:1; 
stroke-linecap:round; stroke-linejoin:round;">
<path d="M63500 75000
L66250 75000
" />
</g>
<g style="fill:#00A000; fill-opacity:1.0; 
stroke:#00A000; stroke-width:200; stroke-opacity:1; 
stroke-linecap:round; stroke-linejoin:round;">
<path d="M72000 55250
L72000 55000
" />
<path d="M75000 50750
L75000 49750
" />
<path d="M74500 51250
L75000 50750
" />
<path d="M73250 51250
L74500 51250
" />
<path d="M72750 51750
L73250 51250
" />
<path d="M72750 54250
L72750 51750
" />
<path d="M72000 55000
L72750 54250
" />
</g>
<g style="fill:#00A000; fill-opacity:1.0; 
stroke:#00A000; stroke-width:320; stroke-opacity:1; 
stroke-linecap:round; stroke-linejoin:round;">
<path d="M70000 68500
L68250 70250
" />
<path d="M68250 70250
L68250 76250
" />
<path d="M68250 76250
L70000 78000
" />
<path d="M74000 64500
L70000 68500
" />
<path d="M78250 64500
L74000 64500
" />
<path d="M79500 63250
L78250 64500
" />
<path d="M79500 56000
L79500 63250
" />
<path d="M76500 53000
L79500 56000
" />
<path d="M75500 53000
L79000 56500
" />
<path d="M79000 57000
L79000 62750
" />
<path d="M79000 62750
L78500 63250
" />
<path d="M79000 56500
L79000 57000
" />
<path d="M80750 73000
L80750 76500
" />
<path d="M79250 71500
L80750 73000
" />
<path d="M71000 71500
L79250 71500
" />
<path d="M70250 72250
L71000 71500
" />
</g>
<g style="fill:#00A000; fill-opacity:1.0; 
stroke:#00A000; stroke-width:500; stroke-opacity:1; 
stroke-linecap:round; stroke-linejoin:round;">
<path d="M68500 56000
L70500 56000
" />
<path d="M68000 55500
L68500 56000
" />
<path d="M73500 52000
L78250 56750
" />
<path d="M78250 56750
L78250 57750
" />
<path d="M65250 66250
L68250 66250
" />
<path d="M68250 66250
L74750 59750
" />
<path d="M73500 52000
L73500 52000
" />
<path d="M74750 59500
L74750 59750
" />
<path d="M78250 57750
L76500 57750
" />
<path d="M76500 57750
L74750 59500
" />
<path d="M74750 59750
L75250 60250
" />
<path d="M78250 57750
L72250 57750
" />
<path d="M72250 57750
L70500 56000
" />
</g>
<g style="fill:#00A000; fill-opacity:1.0; 
stroke:#00A000; stroke-width:39; stroke-opacity:1; 
stroke-linecap:round; stroke-linejoin:round;">
<polyline style="fill-rule:evenodd;"
points="91950,81950
91470,81950
91470,80294
91470,79709
91470,50294
91470,49709
91247,49168
90834,48754
90294,48530
89709,48530
89168,48753
88754,49166
88530,49706
88530,50291
88753,50832
89166,51246
89706,51470
90291,51470
90832,51247
91246,50834
91470,50294
91470,79709
91253,79182
91253,64569
91242,64371
91189,64243
91117,64204
91046,64275
91046,64133
91007,64061
90819,63997
90621,64008
90493,64061
90454,64133
90750,64429
91046,64133
91046,64275
90821,64500
91117,64796
91189,64757
91253,64569
91253,79182
91247,79168
91046,78966
91046,64867
90750,64571
90679,64642
90679,64500
90383,64204
90311,64243
90247,64431
90258,64629
90311,64757
90383,64796
90679,64500
90679,64642
90454,64867
90493,64939
90681,65003
90879,64992
91007,64939
91046,64867
91046,78966
90834,78754
90294,78530
89789,78530
89789,56558
89789,56443
89789,52943
89745,52837
89664,52755
89558,52711
89443,52711
85943,52711
85837,52755
85755,52836
85711,52942
85711,53057
85711,56557
85755,56663
85836,56745
85942,56789
86057,56789
89557,56789
89663,56745
89745,56664
89789,56558
89789,78530
89709,78530
89389,78661
89389,64908
89389,64793
89389,64093
89389,61658
89389,61543
89389,60843
89345,60737
89264,60655
89158,60611
89043,60611
88343,60611
88237,60655
88155,60736
88111,60842
88111,60957
88111,60960
88046,61025
88046,60883
88007,60811
87819,60747
87621,60758
87493,60811
87454,60883
87750,61179
88046,60883
88046,61025
87821,61250
88111,61540
88111,61657
88155,61763
88236,61845
88342,61889
88457,61889
89157,61889
89263,61845
89345,61764
89389,61658
89389,64093
89345,63987
89264,63905
89158,63861
89043,63861
88343,63861
88237,63905
88155,63986
88111,64092
88111,64207
88111,64907
88155,65013
88236,65095
88342,65139
88457,65139
89157,65139
89263,65095
89345,65014
89389,64908
89389,78661
89168,78753
88754,79166
88530,79706
88530,80291
88753,80832
89166,81246
89706,81470
90291,81470
90832,81247
91246,80834
91470,80294
91470,81950
88340,81950
88340,76133
88340,74133
88250,73917
88084,73751
88046,73735
88046,61617
87750,61321
87679,61392
87679,61250
87383,60954
87331,60982
87292,60888
87113,60708
86878,60611
86623,60610
86388,60708
86208,60887
86111,61122
86110,61377
86208,61612
86387,61792
86622,61889
86877,61890
87112,61792
87292,61613
87331,61517
87383,61546
87679,61250
87679,61392
87454,61617
87493,61689
87681,61753
87879,61742
88007,61689
88046,61617
88046,73735
87868,73661
87633,73660
87417,73750
87251,73916
87161,74132
87160,74367
87250,74583
87416,74749
87632,74839
87867,74840
88083,74750
88249,74584
88339,74368
88340,74133
88340,76133
88250,75917
88084,75751
87868,75661
87633,75660
87417,75750
87251,75916
87161,76132
87160,76367
87250,76583
87416,76749
87632,76839
87867,76840
88083,76750
88249,76584
88339,76368
88340,76133
88340,81950
88228,81950
88228,80808
88228,80693
88228,79693
88184,79587
88103,79505
87997,79461
87882,79461
86882,79461
86776,79505
86694,79586
86650,79692
86650,79722
86509,79581
86389,79531
86389,64658
86389,64543
86389,63843
86345,63737
86264,63655
86158,63611
86043,63611
85343,63611
85237,63655
85155,63736
85111,63842
85111,63957
85111,64657
85155,64763
85236,64845
85342,64889
85457,64889
86157,64889
86263,64845
86345,64764
86389,64658
86389,79531
86340,79511
86340,74133
86250,73917
86084,73751
85868,73661
85633,73660
85417,73750
85251,73916
85161,74132
85160,74367
85250,74583
85416,74749
85632,74839
85867,74840
86083,74750
86249,74584
86339,74368
86340,74133
86340,79511
86219,79461
86205,79460
86205,76307
86192,76129
86148,76023
86081,75990
86010,76061
86010,75919
85977,75852
85807,75795
85629,75808
85523,75852
85490,75919
85750,76179
86010,75919
86010,76061
85821,76250
86081,76510
86148,76477
86205,76307
86205,79460
86010,79460
86010,76581
85750,76321
85679,76392
85679,76250
85419,75990
85352,76023
85295,76193
85308,76371
85352,76477
85419,76510
85679,76250
85679,76392
85490,76581
85523,76648
85693,76705
85871,76692
85977,76648
86010,76581
86010,79460
85905,79460
85614,79580
85392,79802
85272,80092
85271,80406
85391,80697
85613,80919
85903,81039
86217,81040
86508,80920
86650,80778
86650,80807
86694,80913
86775,80995
86881,81039
86996,81039
87996,81039
88102,80995
88184,80914
88228,80808
88228,81950
85228,81950
85228,80808
85228,80693
85228,79693
85184,79587
85103,79505
84997,79461
84882,79461
84253,79461
84253,64319
84242,64121
84189,63993
84117,63954
84046,64025
84046,63883
84007,63811
83819,63747
83621,63758
83493,63811
83454,63883
83750,64179
84046,63883
84046,64025
83821,64250
84117,64546
84189,64507
84253,64319
84253,79461
84046,79461
84046,64617
83750,64321
83679,64392
83679,64250
83383,63954
83311,63993
83247,64181
83258,64379
83311,64507
83383,64546
83679,64250
83679,64392
83454,64617
83493,64689
83681,64753
83879,64742
84007,64689
84046,64617
84046,79461
83882,79461
83776,79505
83694,79586
83650,79692
83650,79722
83509,79581
83219,79461
82905,79460
82614,79580
82392,79802
82272,80092
82271,80406
82391,80697
82613,80919
82903,81039
83217,81040
83508,80920
83650,80778
83650,80807
83694,80913
83775,80995
83881,81039
83996,81039
84996,81039
85102,80995
85184,80914
85228,80808
85228,81950
82228,81950
82228,80808
82228,80693
82228,79693
82184,79587
82103,79505
81997,79461
81882,79461
81839,79461
81839,56858
81839,56743
81839,56143
81839,54858
81839,54743
81839,54143
81839,52858
81839,52743
81839,52143
81839,50858
81839,50743
81839,50143
81795,50037
81714,49955
81705,49951
81705,49557
81692,49379
81648,49273
81581,49240
81510,49311
81510,49169
81477,49102
81307,49045
81129,49058
81023,49102
80990,49169
81250,49429
81510,49169
81510,49311
81321,49500
81581,49760
81648,49727
81705,49557
81705,49951
81608,49911
81493,49911
81445,49911
81477,49898
81510,49831
81250,49571
81179,49642
81179,49500
80919,49240
80852,49273
80795,49443
80808,49621
80852,49727
80919,49760
81179,49500
81179,49642
80990,49831
81023,49898
81061,49911
80893,49911
80787,49955
80705,50036
80661,50142
80661,50257
80661,50857
80705,50963
80786,51045
80892,51089
81007,51089
81054,51089
81023,51102
80990,51169
81250,51429
81510,51169
81477,51102
81438,51089
81607,51089
81713,51045
81795,50964
81839,50858
81839,52143
81795,52037
81714,51955
81705,51951
81705,51557
81692,51379
81648,51273
81581,51240
81321,51500
81581,51760
81648,51727
81705,51557
81705,51951
81608,51911
81493,51911
81445,51911
81477,51898
81510,51831
81250,51571
81179,51642
81179,51500
80919,51240
80852,51273
80795,51443
80808,51621
80852,51727
80919,51760
81179,51500
81179,51642
80990,51831
81023,51898
81061,51911
80893,51911
80787,51955
80705,52036
80661,52142
80661,52257
80661,52857
80705,52963
80786,53045
80892,53089
81007,53089
81054,53089
81023,53102
80990,53169
81250,53429
81510,53169
81477,53102
81438,53089
81607,53089
81713,53045
81795,52964
81839,52858
81839,54143
81795,54037
81714,53955
81705,53951
81705,53557
81692,53379
81648,53273
81581,53240
81321,53500
81581,53760
81648,53727
81705,53557
81705,53951
81608,53911
81493,53911
81445,53911
81477,53898
81510,53831
81250,53571
81179,53642
81179,53500
80919,53240
80852,53273
80795,53443
80808,53621
80852,53727
80919,53760
81179,53500
81179,53642
80990,53831
81023,53898
81061,53911
80893,53911
80787,53955
80705,54036
80661,54142
80661,54257
80661,54857
80705,54963
80786,55045
80892,55089
81007,55089
81054,55089
81023,55102
80990,55169
81250,55429
81510,55169
81477,55102
81438,55089
81607,55089
81713,55045
81795,54964
81839,54858
81839,56143
81795,56037
81714,55955
81705,55951
81705,55557
81692,55379
81648,55273
81581,55240
81321,55500
81581,55760
81648,55727
81705,55557
81705,55951
81608,55911
81493,55911
81445,55911
81477,55898
81510,55831
81250,55571
81179,55642
81179,55500
80919,55240
80852,55273
80795,55443
80808,55621
80852,55727
80919,55760
81179,55500
81179,55642
80990,55831
81023,55898
81061,55911
80893,55911
80787,55955
80705,56036
80661,56142
80661,56257
80661,56857
80705,56963
80786,57045
80892,57089
81007,57089
81607,57089
81713,57045
81795,56964
81839,56858
81839,79461
81341,79461
81341,76383
81251,76166
81200,76115
81200,73000
81171,72855
81166,72828
81166,72827
81068,72682
79950,71564
79950,63250
79950,56000
79916,55828
79915,55827
79883,55779
79818,55682
79818,55681
77090,52954
77091,52883
77031,52738
77031,49855
77022,49597
76942,49403
76853,49346
76782,49417
76782,49275
76725,49186
76483,49097
76225,49106
76031,49186
75974,49275
76378,49679
76782,49275
76782,49417
76449,49750
76853,50154
76942,50097
77031,49855
77031,52738
77001,52666
76835,52500
76782,52478
76782,50225
76378,49821
75974,50225
76031,50314
76273,50403
76531,50394
76725,50314
76782,50225
76782,52478
76618,52410
76383,52409
76166,52499
76000,52665
75835,52500
75618,52410
75383,52409
75166,52499
75000,52665
74979,52715
74051,51787
74001,51666
73975,51640
74500,51640
74649,51610
74776,51526
75276,51026
75360,50899
75390,50750
75390,50443
75447,50420
75669,50198
75762,49972
75814,50097
75903,50154
76307,49750
75903,49346
75814,49403
75765,49534
75670,49303
75448,49081
75158,48961
74844,48960
74553,49080
74411,49222
74411,49193
74367,49087
74286,49005
74180,48961
74065,48961
73065,48961
72959,49005
72877,49086
72833,49192
72833,49307
72833,50307
72877,50413
72958,50495
73064,50539
73179,50539
74179,50539
74285,50495
74367,50414
74411,50308
74411,50278
74552,50419
74610,50443
74610,50588
74338,50860
73250,50860
73101,50890
72974,50974
72535,51413
72535,50471
72490,50247
72363,50057
72173,49930
71949,49885
71321,49885
71097,49930
70907,50057
70780,50247
70735,50471
70780,50695
70907,50885
71097,51012
71321,51057
71949,51057
72173,51012
72363,50885
72490,50695
72535,50471
72535,51413
72474,51474
72390,51601
72360,51750
72360,52612
72173,52488
71949,52443
71321,52443
71097,52488
70907,52615
70780,52805
70735,53029
70780,53253
70907,53443
71097,53570
71321,53615
71949,53615
72173,53570
72360,53445
72360,54088
71724,54724
71723,54725
71666,54749
71500,54915
71410,55132
71409,55367
71499,55584
71665,55750
71882,55840
72117,55841
72334,55751
72500,55585
72590,55368
72591,55133
72540,55011
73023,54527
73025,54526
73026,54526
73109,54400
73110,54399
73140,54250
73140,52475
73165,52500
73286,52550
77710,56973
77710,57210
76500,57210
76499,57210
72473,57210
71051,55787
71001,55666
70835,55500
70618,55410
70592,55409
70592,53148
70592,52910
70592,50590
70592,50352
70513,50191
70379,50078
70212,50025
69915,50025
69915,50421
70567,50421
70592,50352
70592,50590
70567,50521
69915,50521
69915,50917
70212,50917
70379,50864
70513,50751
70592,50590
70592,52910
70513,52749
70379,52636
70212,52583
69915,52583
69915,52979
70567,52979
70592,52910
70592,53148
70567,53079
69915,53079
69915,53475
70212,53475
70379,53422
70513,53309
70592,53148
70592,55409
70383,55409
70260,55460
69815,55460
69815,53475
69815,53079
69815,52979
69815,52583
69815,50917
69815,50521
69815,50421
69815,50025
69518,50025
69351,50078
69217,50191
69138,50352
69163,50421
69815,50421
69815,50521
69163,50521
69138,50590
69217,50751
69351,50864
69518,50917
69815,50917
69815,52583
69518,52583
69351,52636
69217,52749
69138,52910
69163,52979
69815,52979
69815,53079
69163,53079
69138,53148
69217,53309
69351,53422
69518,53475
69815,53475
69815,55460
68724,55460
68551,55287
68501,55166
68335,55000
68118,54910
67883,54909
67666,54999
67500,55165
67499,55166
67334,55001
67333,55000
67499,54834
67589,54618
67590,54383
67500,54167
67334,54001
67333,54000
67499,53834
67589,53618
67590,53383
67500,53167
67455,53122
67455,52557
67442,52379
67398,52273
67331,52240
67260,52311
67260,52169
67227,52102
67057,52045
66879,52058
66773,52102
66740,52169
67000,52429
67260,52169
67260,52311
67071,52500
67331,52760
67398,52727
67455,52557
67455,53122
67334,53001
67156,52927
67227,52898
67260,52831
67000,52571
66929,52642
66929,52500
66669,52240
66602,52273
66545,52443
66558,52621
66602,52727
66669,52760
66929,52500
66929,52642
66740,52831
66773,52898
66849,52923
66667,53000
66501,53166
66411,53382
66410,53617
66500,53833
66666,53999
66667,53999
66667,54000
66501,54166
66411,54382
66410,54617
66500,54833
66666,54999
66667,54999
66667,55000
66501,55166
66411,55382
66410,55617
66500,55833
66666,55999
66667,55999
66667,56000
66501,56166
66411,56382
66410,56617
66500,56833
66597,56930
66537,56955
66455,57036
66411,57142
66411,57257
66411,57857
66455,57963
66536,58045
66642,58089
66757,58089
67357,58089
67463,58045
67545,57964
67589,57858
67589,57743
67589,57143
67545,57037
67464,56955
67403,56929
67499,56834
67589,56618
67590,56383
67500,56167
67334,56001
67333,56000
67499,55834
67665,56000
67786,56050
68118,56382
68293,56499
68500,56540
70261,56540
70286,56550
71865,58128
71868,58132
72043,58249
72249,58290
72249,58289
72250,58290
75196,58290
74368,59118
74251,59293
74210,59500
74210,59526
71471,62265
71471,59782
71471,59563
71388,59361
71234,59207
71032,59123
70813,59123
70611,59206
70457,59360
70373,59562
70373,59781
70456,59983
70610,60137
70812,60221
71031,60221
71233,60138
71387,59984
71471,59782
71471,62265
70127,63609
70127,58438
70127,58219
70044,58017
69890,57863
69688,57779
69469,57779
69267,57862
69113,58016
69029,58218
69029,58437
69112,58639
69266,58793
69468,58877
69687,58877
69889,58794
70043,58640
70127,58438
70127,63609
68026,65710
65488,65710
65368,65660
65133,65659
64916,65749
64750,65915
64690,66059
64690,63488
64690,63263
64604,63055
64478,62929
64563,62895
64645,62814
64689,62708
64689,62593
64689,62043
64645,61937
64564,61855
64458,61811
64343,61811
63793,61811
63687,61855
63605,61936
63561,62042
63561,62157
63561,62707
63605,62813
63686,62895
63770,62930
63646,63055
63560,63262
63560,63487
63646,63695
63805,63854
64012,63940
64237,63940
64445,63854
64604,63695
64690,63488
64690,66059
64660,66132
64659,66367
64749,66584
64915,66750
65132,66840
65367,66841
65489,66790
68250,66790
68456,66749
68457,66749
68632,66632
74728,60535
74749,60584
74915,60750
74751,60916
74661,61132
74660,61367
74750,61583
74916,61749
74917,61749
74917,61750
74751,61916
74661,62132
74660,62367
74750,62583
74916,62749
75093,62822
75023,62852
74990,62919
75250,63179
75510,62919
75477,62852
75400,62826
75583,62750
75749,62584
75749,62582
75750,62583
75916,62749
75917,62749
75917,62750
75751,62916
75677,63093
75648,63023
75581,62990
75321,63250
75581,63510
75648,63477
75673,63400
75750,63583
75916,63749
76132,63839
76367,63840
76583,63750
76749,63584
76839,63368
76840,63133
76750,62917
76584,62751
76583,62750
76749,62584
76839,62368
76840,62133
76750,61917
76652,61819
76713,61795
76795,61714
76839,61608
76839,61493
76839,60893
76795,60787
76714,60705
76608,60661
76493,60661
76308,60661
76193,60661
75893,60661
75787,60705
75705,60786
75679,60846
75584,60751
75750,60585
75840,60368
75841,60133
75751,59916
75585,59750
75463,59699
75388,59624
76723,58290
78011,58290
78132,58340
78367,58341
78550,58265
78550,62564
78454,62659
78383,62659
78166,62749
78000,62915
77910,63132
77909,63367
77999,63584
78165,63750
78305,63808
78063,64050
75510,64050
75510,63581
75250,63321
75179,63392
75179,63250
74919,62990
74852,63023
74795,63193
74808,63371
74852,63477
74919,63510
75179,63250
75179,63392
74990,63581
75023,63648
75193,63705
75371,63692
75477,63648
75510,63581
75510,64050
74000,64050
73828,64084
73779,64116
73681,64182
69683,68180
69681,68182
67932,69932
67834,70077
67800,70250
67800,76250
67834,76423
67932,76568
69409,78046
69409,78117
69499,78334
69665,78500
69882,78590
70117,78591
70334,78501
70500,78335
70590,78118
70591,77883
70501,77666
70335,77500
70118,77410
70046,77409
68700,76063
68700,70436
70318,68819
70318,68818
70319,68816
74186,64950
78250,64950
78422,64916
78423,64916
78568,64818
79818,63569
79818,63568
79883,63471
79915,63423
79916,63422
79949,63251
79950,63250
79950,71564
79568,71182
79423,71084
79250,71050
78238,71050
78238,70123
78238,68509
78140,68274
77961,68094
77726,67997
77471,67996
77236,68094
77056,68273
76959,68508
76958,68763
77056,68998
77235,69178
77470,69275
77725,69276
77960,69178
78140,68999
78237,68764
78238,68509
78238,70123
78140,69888
77961,69708
77726,69611
77471,69610
77236,69708
77056,69887
76959,70122
76958,70377
77056,70612
77235,70792
77470,70889
77725,70890
77960,70792
78140,70613
78237,70378
78238,70123
78238,71050
76506,71050
76506,70123
76506,68509
76408,68274
76229,68094
75994,67997
75739,67996
75504,68094
75324,68273
75227,68508
75226,68763
75324,68998
75503,69178
75738,69275
75993,69276
76228,69178
76408,68999
76505,68764
76506,68509
76506,70123
76408,69888
76229,69708
75994,69611
75739,69610
75504,69708
75324,69887
75227,70122
75226,70377
75324,70612
75503,70792
75738,70889
75993,70890
76228,70792
76408,70613
76505,70378
76506,70123
76506,71050
74774,71050
74774,70123
74676,69888
74637,69848
74637,68705
74626,68507
74573,68379
74501,68340
74430,68411
74430,68269
74391,68197
74203,68133
74005,68144
73877,68197
73838,68269
74134,68565
74430,68269
74430,68411
74205,68636
74501,68932
74573,68893
74637,68705
74637,69848
74497,69708
74430,69680
74430,69003
74134,68707
74063,68778
74063,68636
73767,68340
73695,68379
73631,68567
73642,68765
73695,68893
73767,68932
74063,68636
74063,68778
73838,69003
73877,69075
74065,69139
74263,69128
74391,69075
74430,69003
74430,69680
74262,69611
74007,69610
73772,69708
73592,69887
73495,70122
73494,70377
73592,70612
73771,70792
74006,70889
74261,70890
74496,70792
74676,70613
74773,70378
74774,70123
74774,71050
73042,71050
73042,70123
73042,68509
72944,68274
72765,68094
72530,67997
72275,67996
72040,68094
71860,68273
71763,68508
71762,68763
71860,68998
72039,69178
72274,69275
72529,69276
72764,69178
72944,68999
73041,68764
73042,68509
73042,70123
72944,69888
72765,69708
72530,69611
72275,69610
72040,69708
71860,69887
71763,70122
71762,70377
71860,70612
72039,70792
72274,70889
72529,70890
72764,70792
72944,70613
73041,70378
73042,70123
73042,71050
71000,71050
70828,71084
70779,71116
70681,71182
70204,71659
70133,71659
69916,71749
69750,71915
69660,72132
69659,72367
69749,72584
69915,72750
70132,72840
70367,72841
70584,72751
70750,72585
70840,72368
70840,72296
71186,71950
79064,71950
80300,73186
80300,76115
80250,76165
80160,76382
80159,76617
80249,76834
80415,77000
80632,77090
80867,77091
81084,77001
81250,76835
81340,76618
81341,76383
81341,79461
80882,79461
80776,79505
80694,79586
80650,79692
80650,79722
80509,79581
80219,79461
79905,79460
79614,79580
79392,79802
79272,80092
79271,80406
79391,80697
79613,80919
79903,81039
80217,81040
80508,80920
80650,80778
80650,80807
80694,80913
80775,80995
80881,81039
80996,81039
81996,81039
82102,80995
82184,80914
82228,80808
82228,81950
79050,81950
79050,73950
78238,73950
78238,72623
78140,72388
77961,72208
77726,72111
77471,72110
77236,72208
77056,72387
76959,72622
76958,72877
77056,73112
77235,73292
77470,73389
77725,73390
77960,73292
78140,73113
78237,72878
78238,72623
78238,73950
76506,73950
76506,72623
76408,72388
76229,72208
75994,72111
75739,72110
75504,72208
75324,72387
75227,72622
75226,72877
75324,73112
75503,73292
75738,73389
75993,73390
76228,73292
76408,73113
76505,72878
76506,72623
76506,73950
74774,73950
74774,72623
74676,72388
74497,72208
74262,72111
74007,72110
73772,72208
73592,72387
73495,72622
73494,72877
73592,73112
73771,73292
74006,73389
74261,73390
74496,73292
74676,73113
74773,72878
74774,72623
74774,73950
73042,73950
73042,72623
72944,72388
72765,72208
72530,72111
72275,72110
72040,72208
71860,72387
71763,72622
71762,72877
71860,73112
72039,73292
72274,73389
72529,73390
72764,73292
72944,73113
73041,72878
73042,72623
73042,73950
70950,73950
70950,79625
70934,79587
70853,79505
70747,79461
70632,79461
69632,79461
69526,79505
69444,79586
69400,79692
69400,79807
69400,79963
69375,79903
69286,79846
69215,79917
69215,79775
69158,79686
68916,79597
68658,79606
68464,79686
68407,79775
68811,80179
69215,79775
69215,79917
68882,80250
69286,80654
69375,80597
69400,80529
69400,80807
69444,80913
69525,80995
69631,81039
69746,81039
70746,81039
70852,80995
70934,80914
70950,80875
70950,81950
69215,81950
69215,80725
68811,80321
68740,80392
68740,80250
68336,79846
68247,79903
68158,80145
68167,80403
68247,80597
68336,80654
68740,80250
68740,80392
68407,80725
68464,80814
68706,80903
68964,80894
69158,80814
69215,80725
69215,81950
67917,81950
67917,80808
67917,80693
67917,79693
67873,79587
67792,79505
67686,79461
67650,79461
67650,74175
67650,73625
67650,71175
67650,70625
67608,70415
67489,70236
67310,70117
67100,70075
66890,70117
66711,70236
66592,70415
66550,70625
66550,71175
66592,71385
66711,71564
66890,71683
67100,71725
67310,71683
67489,71564
67608,71385
67650,71175
67650,73625
67608,73415
67489,73236
67310,73117
67100,73075
66890,73117
66711,73236
66600,73402
66510,73267
66510,71210
66510,70950
66510,70850
66510,70590
66460,70437
66355,70315
66213,70247
66150,70271
66150,70850
66510,70850
66510,70950
66150,70950
66150,71529
66213,71553
66355,71485
66460,71363
66510,71210
66510,73267
66489,73236
66310,73117
66100,73075
66050,73085
66050,71529
66050,70950
66050,70850
66050,70271
65987,70247
65845,70315
65740,70437
65690,70590
65690,70850
66050,70850
66050,70950
65690,70950
65690,71210
65740,71363
65845,71485
65987,71553
66050,71529
66050,73085
65890,73117
65711,73236
65592,73415
65550,73625
65550,74175
65592,74385
65701,74550
64690,74550
64690,68488
64690,68263
64604,68055
64445,67896
64394,67874
64445,67854
64604,67695
64690,67488
64690,67263
64604,67055
64445,66896
64238,66810
64013,66810
63805,66896
63646,67055
63560,67262
63560,67487
63646,67695
63805,67854
63855,67875
63805,67896
63646,68055
63560,68262
63560,68487
63646,68695
63805,68854
64012,68940
64237,68940
64445,68854
64604,68695
64690,68488
64690,74550
64498,74550
64608,74385
64650,74175
64650,73625
64650,71175
64650,70625
64608,70415
64489,70236
64310,70117
64100,70075
63890,70117
63711,70236
63592,70415
63550,70625
63550,71175
63592,71385
63711,71564
63890,71683
64100,71725
64310,71683
64489,71564
64608,71385
64650,71175
64650,73625
64608,73415
64489,73236
64310,73117
64100,73075
63890,73117
63711,73236
63600,73402
63510,73267
63510,71210
63510,70950
63510,70850
63510,70590
63460,70437
63355,70315
63213,70247
63150,70271
63150,70850
63510,70850
63510,70950
63150,70950
63150,71529
63213,71553
63355,71485
63460,71363
63510,71210
63510,73267
63489,73236
63310,73117
63100,73075
63050,73085
63050,71529
63050,70950
63050,70850
63050,70271
62987,70247
62845,70315
62740,70437
62690,70590
62690,70850
63050,70850
63050,70950
62690,70950
62690,71210
62740,71363
62845,71485
62987,71553
63050,71529
63050,73085
62890,73117
62711,73236
62592,73415
62550,73625
62550,74175
62592,74385
62711,74564
62890,74683
62984,74701
62910,74882
62909,75117
62999,75334
63165,75500
63382,75590
63617,75591
63834,75501
63885,75450
65865,75450
65915,75500
66132,75590
66367,75591
66584,75501
66750,75335
66840,75118
66841,74883
66751,74666
66585,74500
66543,74482
66600,74397
66711,74564
66890,74683
67100,74725
67310,74683
67489,74564
67608,74385
67650,74175
67650,79461
67571,79461
66571,79461
66465,79505
66383,79586
66339,79692
66339,79722
66198,79581
65908,79461
65594,79460
65303,79580
65081,79802
65061,79849
65042,79803
64820,79581
64530,79461
64216,79460
63925,79580
63703,79802
63583,80092
63582,80406
63702,80697
63924,80919
64214,81039
64528,81040
64819,80920
65041,80698
65060,80650
65080,80697
65302,80919
65592,81039
65906,81040
66197,80920
66339,80778
66339,80807
66383,80913
66464,80995
66570,81039
66685,81039
67685,81039
67791,80995
67873,80914
67917,80808
67917,81950
63478,81950
63478,80808
63478,80693
63478,79693
63434,79587
63353,79505
63247,79461
63132,79461
62132,79461
62026,79505
61944,79586
61900,79692
61900,79722
61759,79581
61690,79552
61690,68488
61690,68263
61604,68055
61445,67896
61394,67874
61445,67854
61604,67695
61690,67488
61690,67263
61690,63488
61690,63263
61604,63055
61445,62896
61394,62874
61445,62854
61604,62695
61690,62488
61690,62263
61604,62055
61445,61896
61238,61810
61013,61810
60805,61896
60646,62055
60560,62262
60560,62487
60646,62695
60805,62854
60855,62875
60805,62896
60646,63055
60560,63262
60560,63487
60646,63695
60805,63854
61012,63940
61237,63940
61445,63854
61604,63695
61690,63488
61690,67263
61604,67055
61445,66896
61238,66810
61013,66810
60805,66896
60646,67055
60560,67262
60560,67487
60646,67695
60805,67854
60855,67875
60805,67896
60646,68055
60560,68262
60560,68487
60646,68695
60805,68854
61012,68940
61237,68940
61445,68854
61604,68695
61690,68488
61690,79552
61469,79461
61155,79460
60864,79580
60642,79802
60522,80092
60521,80406
60641,80697
60863,80919
61153,81039
61467,81040
61758,80920
61900,80778
61900,80807
61944,80913
62025,80995
62131,81039
62246,81039
63246,81039
63352,80995
63434,80914
63478,80808
63478,81950
59470,81950
59470,80294
59470,79709
59470,50294
59470,49709
59247,49168
58834,48754
58294,48530
57709,48530
57168,48753
56754,49166
56530,49706
56530,50291
56753,50832
57166,51246
57706,51470
58291,51470
58832,51247
59246,50834
59470,50294
59470,79709
59247,79168
58834,78754
58294,78530
57709,78530
57168,78753
56754,79166
56530,79706
56530,80291
56753,80832
57166,81246
57706,81470
58291,81470
58832,81247
59246,80834
59470,80294
59470,81950
56050,81950
56050,48050
91950,48050
91950,81950
" /> 
</g>
<g style="fill:#00A000; fill-opacity:0.0; 
stroke:#00A000; stroke-width:100; stroke-opacity:1; 
stroke-linecap:round; stroke-linejoin:round;">
<polyline fill="none;"
points="91950,81950
91470,81950
91470,80294
91470,79709
91470,50294
91470,49709
91247,49168
90834,48754
90294,48530
89709,48530
89168,48753
88754,49166
88530,49706
88530,50291
88753,50832
89166,51246
89706,51470
90291,51470
90832,51247
91246,50834
91470,50294
91470,79709
91253,79182
91253,64569
91242,64371
91189,64243
91117,64204
91046,64275
91046,64133
91007,64061
90819,63997
90621,64008
90493,64061
90454,64133
90750,64429
91046,64133
91046,64275
90821,64500
91117,64796
91189,64757
91253,64569
91253,79182
91247,79168
91046,78966
91046,64867
90750,64571
90679,64642
90679,64500
90383,64204
90311,64243
90247,64431
90258,64629
90311,64757
90383,64796
90679,64500
90679,64642
90454,64867
90493,64939
90681,65003
90879,64992
91007,64939
91046,64867
91046,78966
90834,78754
90294,78530
89789,78530
89789,56558
89789,56443
89789,52943
89745,52837
89664,52755
89558,52711
89443,52711
85943,52711
85837,52755
85755,52836
85711,52942
85711,53057
85711,56557
85755,56663
85836,56745
85942,56789
86057,56789
89557,56789
89663,56745
89745,56664
89789,56558
89789,78530
89709,78530
89389,78661
89389,64908
89389,64793
89389,64093
89389,61658
89389,61543
89389,60843
89345,60737
89264,60655
89158,60611
89043,60611
88343,60611
88237,60655
88155,60736
88111,60842
88111,60957
88111,60960
88046,61025
88046,60883
88007,60811
87819,60747
87621,60758
87493,60811
87454,60883
87750,61179
88046,60883
88046,61025
87821,61250
88111,61540
88111,61657
88155,61763
88236,61845
88342,61889
88457,61889
89157,61889
89263,61845
89345,61764
89389,61658
89389,64093
89345,63987
89264,63905
89158,63861
89043,63861
88343,63861
88237,63905
88155,63986
88111,64092
88111,64207
88111,64907
88155,65013
88236,65095
88342,65139
88457,65139
89157,65139
89263,65095
89345,65014
89389,64908
89389,78661
89168,78753
88754,79166
88530,79706
88530,80291
88753,80832
89166,81246
89706,81470
90291,81470
90832,81247
91246,80834
91470,80294
91470,81950
88340,81950
88340,76133
88340,74133
88250,73917
88084,73751
88046,73735
88046,61617
87750,61321
87679,61392
87679,61250
87383,60954
87331,60982
87292,60888
87113,60708
86878,60611
86623,60610
86388,60708
86208,60887
86111,61122
86110,61377
86208,61612
86387,61792
86622,61889
86877,61890
87112,61792
87292,61613
87331,61517
87383,61546
87679,61250
87679,61392
87454,61617
87493,61689
87681,61753
87879,61742
88007,61689
88046,61617
88046,73735
87868,73661
87633,73660
87417,73750
87251,73916
87161,74132
87160,74367
87250,74583
87416,74749
87632,74839
87867,74840
88083,74750
88249,74584
88339,74368
88340,74133
88340,76133
88250,75917
88084,75751
87868,75661
87633,75660
87417,75750
87251,75916
87161,76132
87160,76367
87250,76583
87416,76749
87632,76839
87867,76840
88083,76750
88249,76584
88339,76368
88340,76133
88340,81950
88228,81950
88228,80808
88228,80693
88228,79693
88184,79587
88103,79505
87997,79461
87882,79461
86882,79461
86776,79505
86694,79586
86650,79692
86650,79722
86509,79581
86389,79531
86389,64658
86389,64543
86389,63843
86345,63737
86264,63655
86158,63611
86043,63611
85343,63611
85237,63655
85155,63736
85111,63842
85111,63957
85111,64657
85155,64763
85236,64845
85342,64889
85457,64889
86157,64889
86263,64845
86345,64764
86389,64658
86389,79531
86340,79511
86340,74133
86250,73917
86084,73751
85868,73661
85633,73660
85417,73750
85251,73916
85161,74132
85160,74367
85250,74583
85416,74749
85632,74839
85867,74840
86083,74750
86249,74584
86339,74368
86340,74133
86340,79511
86219,79461
86205,79460
86205,76307
86192,76129
86148,76023
86081,75990
86010,76061
86010,75919
85977,75852
85807,75795
85629,75808
85523,75852
85490,75919
85750,76179
86010,75919
86010,76061
85821,76250
86081,76510
86148,76477
86205,76307
86205,79460
86010,79460
86010,76581
85750,76321
85679,76392
85679,76250
85419,75990
85352,76023
85295,76193
85308,76371
85352,76477
85419,76510
85679,76250
85679,76392
85490,76581
85523,76648
85693,76705
85871,76692
85977,76648
86010,76581
86010,79460
85905,79460
85614,79580
85392,79802
85272,80092
85271,80406
85391,80697
85613,80919
85903,81039
86217,81040
86508,80920
86650,80778
86650,80807
86694,80913
86775,80995
86881,81039
86996,81039
87996,81039
88102,80995
88184,80914
88228,80808
88228,81950
85228,81950
85228,80808
85228,80693
85228,79693
85184,79587
85103,79505
84997,79461
84882,79461
84253,79461
84253,64319
84242,64121
84189,63993
84117,63954
84046,64025
84046,63883
84007,63811
83819,63747
83621,63758
83493,63811
83454,63883
83750,64179
84046,63883
84046,64025
83821,64250
84117,64546
84189,64507
84253,64319
84253,79461
84046,79461
84046,64617
83750,64321
83679,64392
83679,64250
83383,63954
83311,63993
83247,64181
83258,64379
83311,64507
83383,64546
83679,64250
83679,64392
83454,64617
83493,64689
83681,64753
83879,64742
84007,64689
84046,64617
84046,79461
83882,79461
83776,79505
83694,79586
83650,79692
83650,79722
83509,79581
83219,79461
82905,79460
82614,79580
82392,79802
82272,80092
82271,80406
82391,80697
82613,80919
82903,81039
83217,81040
83508,80920
83650,80778
83650,80807
83694,80913
83775,80995
83881,81039
83996,81039
84996,81039
85102,80995
85184,80914
85228,80808
85228,81950
82228,81950
82228,80808
82228,80693
82228,79693
82184,79587
82103,79505
81997,79461
81882,79461
81839,79461
81839,56858
81839,56743
81839,56143
81839,54858
81839,54743
81839,54143
81839,52858
81839,52743
81839,52143
81839,50858
81839,50743
81839,50143
81795,50037
81714,49955
81705,49951
81705,49557
81692,49379
81648,49273
81581,49240
81510,49311
81510,49169
81477,49102
81307,49045
81129,49058
81023,49102
80990,49169
81250,49429
81510,49169
81510,49311
81321,49500
81581,49760
81648,49727
81705,49557
81705,49951
81608,49911
81493,49911
81445,49911
81477,49898
81510,49831
81250,49571
81179,49642
81179,49500
80919,49240
80852,49273
80795,49443
80808,49621
80852,49727
80919,49760
81179,49500
81179,49642
80990,49831
81023,49898
81061,49911
80893,49911
80787,49955
80705,50036
80661,50142
80661,50257
80661,50857
80705,50963
80786,51045
80892,51089
81007,51089
81054,51089
81023,51102
80990,51169
81250,51429
81510,51169
81477,51102
81438,51089
81607,51089
81713,51045
81795,50964
81839,50858
81839,52143
81795,52037
81714,51955
81705,51951
81705,51557
81692,51379
81648,51273
81581,51240
81321,51500
81581,51760
81648,51727
81705,51557
81705,51951
81608,51911
81493,51911
81445,51911
81477,51898
81510,51831
81250,51571
81179,51642
81179,51500
80919,51240
80852,51273
80795,51443
80808,51621
80852,51727
80919,51760
81179,51500
81179,51642
80990,51831
81023,51898
81061,51911
80893,51911
80787,51955
80705,52036
80661,52142
80661,52257
80661,52857
80705,52963
80786,53045
80892,53089
81007,53089
81054,53089
81023,53102
80990,53169
81250,53429
81510,53169
81477,53102
81438,53089
81607,53089
81713,53045
81795,52964
81839,52858
81839,54143
81795,54037
81714,53955
81705,53951
81705,53557
81692,53379
81648,53273
81581,53240
81321,53500
81581,53760
81648,53727
81705,53557
81705,53951
81608,53911
81493,53911
81445,53911
81477,53898
81510,53831
81250,53571
81179,53642
81179,53500
80919,53240
80852,53273
80795,53443
80808,53621
80852,53727
80919,53760
81179,53500
81179,53642
80990,53831
81023,53898
81061,53911
80893,53911
80787,53955
80705,54036
80661,54142
80661,54257
80661,54857
80705,54963
80786,55045
80892,55089
81007,55089
81054,55089
81023,55102
80990,55169
81250,55429
81510,55169
81477,55102
81438,55089
81607,55089
81713,55045
81795,54964
81839,54858
81839,56143
81795,56037
81714,55955
81705,55951
81705,55557
81692,55379
81648,55273
81581,55240
81321,55500
81581,55760
81648,55727
81705,55557
81705,55951
81608,55911
81493,55911
81445,55911
81477,55898
81510,55831
81250,55571
81179,55642
81179,55500
80919,55240
80852,55273
80795,55443
80808,55621
80852,55727
80919,55760
81179,55500
81179,55642
80990,55831
81023,55898
81061,55911
80893,55911
80787,55955
80705,56036
80661,56142
80661,56257
80661,56857
80705,56963
80786,57045
80892,57089
81007,57089
81607,57089
81713,57045
81795,56964
81839,56858
81839,79461
81341,79461
81341,76383
81251,76166
81200,76115
81200,73000
81171,72855
81166,72828
81166,72827
81068,72682
79950,71564
79950,63250
79950,56000
79916,55828
79915,55827
79883,55779
79818,55682
79818,55681
77090,52954
77091,52883
77031,52738
77031,49855
77022,49597
76942,49403
76853,49346
76782,49417
76782,49275
76725,49186
76483,49097
76225,49106
76031,49186
75974,49275
76378,49679
76782,49275
76782,49417
76449,49750
76853,50154
76942,50097
77031,49855
77031,52738
77001,52666
76835,52500
76782,52478
76782,50225
76378,49821
75974,50225
76031,50314
76273,50403
76531,50394
76725,50314
76782,50225
76782,52478
76618,52410
76383,52409
76166,52499
76000,52665
75835,52500
75618,52410
75383,52409
75166,52499
75000,52665
74979,52715
74051,51787
74001,51666
73975,51640
74500,51640
74649,51610
74776,51526
75276,51026
75360,50899
75390,50750
75390,50443
75447,50420
75669,50198
75762,49972
75814,50097
75903,50154
76307,49750
75903,49346
75814,49403
75765,49534
75670,49303
75448,49081
75158,48961
74844,48960
74553,49080
74411,49222
74411,49193
74367,49087
74286,49005
74180,48961
74065,48961
73065,48961
72959,49005
72877,49086
72833,49192
72833,49307
72833,50307
72877,50413
72958,50495
73064,50539
73179,50539
74179,50539
74285,50495
74367,50414
74411,50308
74411,50278
74552,50419
74610,50443
74610,50588
74338,50860
73250,50860
73101,50890
72974,50974
72535,51413
72535,50471
72490,50247
72363,50057
72173,49930
71949,49885
71321,49885
71097,49930
70907,50057
70780,50247
70735,50471
70780,50695
70907,50885
71097,51012
71321,51057
71949,51057
72173,51012
72363,50885
72490,50695
72535,50471
72535,51413
72474,51474
72390,51601
72360,51750
72360,52612
72173,52488
71949,52443
71321,52443
71097,52488
70907,52615
70780,52805
70735,53029
70780,53253
70907,53443
71097,53570
71321,53615
71949,53615
72173,53570
72360,53445
72360,54088
71724,54724
71723,54725
71666,54749
71500,54915
71410,55132
71409,55367
71499,55584
71665,55750
71882,55840
72117,55841
72334,55751
72500,55585
72590,55368
72591,55133
72540,55011
73023,54527
73025,54526
73026,54526
73109,54400
73110,54399
73140,54250
73140,52475
73165,52500
73286,52550
77710,56973
77710,57210
76500,57210
76499,57210
72473,57210
71051,55787
71001,55666
70835,55500
70618,55410
70592,55409
70592,53148
70592,52910
70592,50590
70592,50352
70513,50191
70379,50078
70212,50025
69915,50025
69915,50421
70567,50421
70592,50352
70592,50590
70567,50521
69915,50521
69915,50917
70212,50917
70379,50864
70513,50751
70592,50590
70592,52910
70513,52749
70379,52636
70212,52583
69915,52583
69915,52979
70567,52979
70592,52910
70592,53148
70567,53079
69915,53079
69915,53475
70212,53475
70379,53422
70513,53309
70592,53148
70592,55409
70383,55409
70260,55460
69815,55460
69815,53475
69815,53079
69815,52979
69815,52583
69815,50917
69815,50521
69815,50421
69815,50025
69518,50025
69351,50078
69217,50191
69138,50352
69163,50421
69815,50421
69815,50521
69163,50521
69138,50590
69217,50751
69351,50864
69518,50917
69815,50917
69815,52583
69518,52583
69351,52636
69217,52749
69138,52910
69163,52979
69815,52979
69815,53079
69163,53079
69138,53148
69217,53309
69351,53422
69518,53475
69815,53475
69815,55460
68724,55460
68551,55287
68501,55166
68335,55000
68118,54910
67883,54909
67666,54999
67500,55165
67499,55166
67334,55001
67333,55000
67499,54834
67589,54618
67590,54383
67500,54167
67334,54001
67333,54000
67499,53834
67589,53618
67590,53383
67500,53167
67455,53122
67455,52557
67442,52379
67398,52273
67331,52240
67260,52311
67260,52169
67227,52102
67057,52045
66879,52058
66773,52102
66740,52169
67000,52429
67260,52169
67260,52311
67071,52500
67331,52760
67398,52727
67455,52557
67455,53122
67334,53001
67156,52927
67227,52898
67260,52831
67000,52571
66929,52642
66929,52500
66669,52240
66602,52273
66545,52443
66558,52621
66602,52727
66669,52760
66929,52500
66929,52642
66740,52831
66773,52898
66849,52923
66667,53000
66501,53166
66411,53382
66410,53617
66500,53833
66666,53999
66667,53999
66667,54000
66501,54166
66411,54382
66410,54617
66500,54833
66666,54999
66667,54999
66667,55000
66501,55166
66411,55382
66410,55617
66500,55833
66666,55999
66667,55999
66667,56000
66501,56166
66411,56382
66410,56617
66500,56833
66597,56930
66537,56955
66455,57036
66411,57142
66411,57257
66411,57857
66455,57963
66536,58045
66642,58089
66757,58089
67357,58089
67463,58045
67545,57964
67589,57858
67589,57743
67589,57143
67545,57037
67464,56955
67403,56929
67499,56834
67589,56618
67590,56383
67500,56167
67334,56001
67333,56000
67499,55834
67665,56000
67786,56050
68118,56382
68293,56499
68500,56540
70261,56540
70286,56550
71865,58128
71868,58132
72043,58249
72249,58290
72249,58289
72250,58290
75196,58290
74368,59118
74251,59293
74210,59500
74210,59526
71471,62265
71471,59782
71471,59563
71388,59361
71234,59207
71032,59123
70813,59123
70611,59206
70457,59360
70373,59562
70373,59781
70456,59983
70610,60137
70812,60221
71031,60221
71233,60138
71387,59984
71471,59782
71471,62265
70127,63609
70127,58438
70127,58219
70044,58017
69890,57863
69688,57779
69469,57779
69267,57862
69113,58016
69029,58218
69029,58437
69112,58639
69266,58793
69468,58877
69687,58877
69889,58794
70043,58640
70127,58438
70127,63609
68026,65710
65488,65710
65368,65660
65133,65659
64916,65749
64750,65915
64690,66059
64690,63488
64690,63263
64604,63055
64478,62929
64563,62895
64645,62814
64689,62708
64689,62593
64689,62043
64645,61937
64564,61855
64458,61811
64343,61811
63793,61811
63687,61855
63605,61936
63561,62042
63561,62157
63561,62707
63605,62813
63686,62895
63770,62930
63646,63055
63560,63262
63560,63487
63646,63695
63805,63854
64012,63940
64237,63940
64445,63854
64604,63695
64690,63488
64690,66059
64660,66132
64659,66367
64749,66584
64915,66750
65132,66840
65367,66841
65489,66790
68250,66790
68456,66749
68457,66749
68632,66632
74728,60535
74749,60584
74915,60750
74751,60916
74661,61132
74660,61367
74750,61583
74916,61749
74917,61749
74917,61750
74751,61916
74661,62132
74660,62367
74750,62583
74916,62749
75093,62822
75023,62852
74990,62919
75250,63179
75510,62919
75477,62852
75400,62826
75583,62750
75749,62584
75749,62582
75750,62583
75916,62749
75917,62749
75917,62750
75751,62916
75677,63093
75648,63023
75581,62990
75321,63250
75581,63510
75648,63477
75673,63400
75750,63583
75916,63749
76132,63839
76367,63840
76583,63750
76749,63584
76839,63368
76840,63133
76750,62917
76584,62751
76583,62750
76749,62584
76839,62368
76840,62133
76750,61917
76652,61819
76713,61795
76795,61714
76839,61608
76839,61493
76839,60893
76795,60787
76714,60705
76608,60661
76493,60661
76308,60661
76193,60661
75893,60661
75787,60705
75705,60786
75679,60846
75584,60751
75750,60585
75840,60368
75841,60133
75751,59916
75585,59750
75463,59699
75388,59624
76723,58290
78011,58290
78132,58340
78367,58341
78550,58265
78550,62564
78454,62659
78383,62659
78166,62749
78000,62915
77910,63132
77909,63367
77999,63584
78165,63750
78305,63808
78063,64050
75510,64050
75510,63581
75250,63321
75179,63392
75179,63250
74919,62990
74852,63023
74795,63193
74808,63371
74852,63477
74919,63510
75179,63250
75179,63392
74990,63581
75023,63648
75193,63705
75371,63692
75477,63648
75510,63581
75510,64050
74000,64050
73828,64084
73779,64116
73681,64182
69683,68180
69681,68182
67932,69932
67834,70077
67800,70250
67800,76250
67834,76423
67932,76568
69409,78046
69409,78117
69499,78334
69665,78500
69882,78590
70117,78591
70334,78501
70500,78335
70590,78118
70591,77883
70501,77666
70335,77500
70118,77410
70046,77409
68700,76063
68700,70436
70318,68819
70318,68818
70319,68816
74186,64950
78250,64950
78422,64916
78423,64916
78568,64818
79818,63569
79818,63568
79883,63471
79915,63423
79916,63422
79949,63251
79950,63250
79950,71564
79568,71182
79423,71084
79250,71050
78238,71050
78238,70123
78238,68509
78140,68274
77961,68094
77726,67997
77471,67996
77236,68094
77056,68273
76959,68508
76958,68763
77056,68998
77235,69178
77470,69275
77725,69276
77960,69178
78140,68999
78237,68764
78238,68509
78238,70123
78140,69888
77961,69708
77726,69611
77471,69610
77236,69708
77056,69887
76959,70122
76958,70377
77056,70612
77235,70792
77470,70889
77725,70890
77960,70792
78140,70613
78237,70378
78238,70123
78238,71050
76506,71050
76506,70123
76506,68509
76408,68274
76229,68094
75994,67997
75739,67996
75504,68094
75324,68273
75227,68508
75226,68763
75324,68998
75503,69178
75738,69275
75993,69276
76228,69178
76408,68999
76505,68764
76506,68509
76506,70123
76408,69888
76229,69708
75994,69611
75739,69610
75504,69708
75324,69887
75227,70122
75226,70377
75324,70612
75503,70792
75738,70889
75993,70890
76228,70792
76408,70613
76505,70378
76506,70123
76506,71050
74774,71050
74774,70123
74676,69888
74637,69848
74637,68705
74626,68507
74573,68379
74501,68340
74430,68411
74430,68269
74391,68197
74203,68133
74005,68144
73877,68197
73838,68269
74134,68565
74430,68269
74430,68411
74205,68636
74501,68932
74573,68893
74637,68705
74637,69848
74497,69708
74430,69680
74430,69003
74134,68707
74063,68778
74063,68636
73767,68340
73695,68379
73631,68567
73642,68765
73695,68893
73767,68932
74063,68636
74063,68778
73838,69003
73877,69075
74065,69139
74263,69128
74391,69075
74430,69003
74430,69680
74262,69611
74007,69610
73772,69708
73592,69887
73495,70122
73494,70377
73592,70612
73771,70792
74006,70889
74261,70890
74496,70792
74676,70613
74773,70378
74774,70123
74774,71050
73042,71050
73042,70123
73042,68509
72944,68274
72765,68094
72530,67997
72275,67996
72040,68094
71860,68273
71763,68508
71762,68763
71860,68998
72039,69178
72274,69275
72529,69276
72764,69178
72944,68999
73041,68764
73042,68509
73042,70123
72944,69888
72765,69708
72530,69611
72275,69610
72040,69708
71860,69887
71763,70122
71762,70377
71860,70612
72039,70792
72274,70889
72529,70890
72764,70792
72944,70613
73041,70378
73042,70123
73042,71050
71000,71050
70828,71084
70779,71116
70681,71182
70204,71659
70133,71659
69916,71749
69750,71915
69660,72132
69659,72367
69749,72584
69915,72750
70132,72840
70367,72841
70584,72751
70750,72585
70840,72368
70840,72296
71186,71950
79064,71950
80300,73186
80300,76115
80250,76165
80160,76382
80159,76617
80249,76834
80415,77000
80632,77090
80867,77091
81084,77001
81250,76835
81340,76618
81341,76383
81341,79461
80882,79461
80776,79505
80694,79586
80650,79692
80650,79722
80509,79581
80219,79461
79905,79460
79614,79580
79392,79802
79272,80092
79271,80406
79391,80697
79613,80919
79903,81039
80217,81040
80508,80920
80650,80778
80650,80807
80694,80913
80775,80995
80881,81039
80996,81039
81996,81039
82102,80995
82184,80914
82228,80808
82228,81950
79050,81950
79050,73950
78238,73950
78238,72623
78140,72388
77961,72208
77726,72111
77471,72110
77236,72208
77056,72387
76959,72622
76958,72877
77056,73112
77235,73292
77470,73389
77725,73390
77960,73292
78140,73113
78237,72878
78238,72623
78238,73950
76506,73950
76506,72623
76408,72388
76229,72208
75994,72111
75739,72110
75504,72208
75324,72387
75227,72622
75226,72877
75324,73112
75503,73292
75738,73389
75993,73390
76228,73292
76408,73113
76505,72878
76506,72623
76506,73950
74774,73950
74774,72623
74676,72388
74497,72208
74262,72111
74007,72110
73772,72208
73592,72387
73495,72622
73494,72877
73592,73112
73771,73292
74006,73389
74261,73390
74496,73292
74676,73113
74773,72878
74774,72623
74774,73950
73042,73950
73042,72623
72944,72388
72765,72208
72530,72111
72275,72110
72040,72208
71860,72387
71763,72622
71762,72877
71860,73112
72039,73292
72274,73389
72529,73390
72764,73292
72944,73113
73041,72878
73042,72623
73042,73950
70950,73950
70950,79625
70934,79587
70853,79505
70747,79461
70632,79461
69632,79461
69526,79505
69444,79586
69400,79692
69400,79807
69400,79963
69375,79903
69286,79846
69215,79917
69215,79775
69158,79686
68916,79597
68658,79606
68464,79686
68407,79775
68811,80179
69215,79775
69215,79917
68882,80250
69286,80654
69375,80597
69400,80529
69400,80807
69444,80913
69525,80995
69631,81039
69746,81039
70746,81039
70852,80995
70934,80914
70950,80875
70950,81950
69215,81950
69215,80725
68811,80321
68740,80392
68740,80250
68336,79846
68247,79903
68158,80145
68167,80403
68247,80597
68336,80654
68740,80250
68740,80392
68407,80725
68464,80814
68706,80903
68964,80894
69158,80814
69215,80725
69215,81950
67917,81950
67917,80808
67917,80693
67917,79693
67873,79587
67792,79505
67686,79461
67650,79461
67650,74175
67650,73625
67650,71175
67650,70625
67608,70415
67489,70236
67310,70117
67100,70075
66890,70117
66711,70236
66592,70415
66550,70625
66550,71175
66592,71385
66711,71564
66890,71683
67100,71725
67310,71683
67489,71564
67608,71385
67650,71175
67650,73625
67608,73415
67489,73236
67310,73117
67100,73075
66890,73117
66711,73236
66600,73402
66510,73267
66510,71210
66510,70950
66510,70850
66510,70590
66460,70437
66355,70315
66213,70247
66150,70271
66150,70850
66510,70850
66510,70950
66150,70950
66150,71529
66213,71553
66355,71485
66460,71363
66510,71210
66510,73267
66489,73236
66310,73117
66100,73075
66050,73085
66050,71529
66050,70950
66050,70850
66050,70271
65987,70247
65845,70315
65740,70437
65690,70590
65690,70850
66050,70850
66050,70950
65690,70950
65690,71210
65740,71363
65845,71485
65987,71553
66050,71529
66050,73085
65890,73117
65711,73236
65592,73415
65550,73625
65550,74175
65592,74385
65701,74550
64690,74550
64690,68488
64690,68263
64604,68055
64445,67896
64394,67874
64445,67854
64604,67695
64690,67488
64690,67263
64604,67055
64445,66896
64238,66810
64013,66810
63805,66896
63646,67055
63560,67262
63560,67487
63646,67695
63805,67854
63855,67875
63805,67896
63646,68055
63560,68262
63560,68487
63646,68695
63805,68854
64012,68940
64237,68940
64445,68854
64604,68695
64690,68488
64690,74550
64498,74550
64608,74385
64650,74175
64650,73625
64650,71175
64650,70625
64608,70415
64489,70236
64310,70117
64100,70075
63890,70117
63711,70236
63592,70415
63550,70625
63550,71175
63592,71385
63711,71564
63890,71683
64100,71725
64310,71683
64489,71564
64608,71385
64650,71175
64650,73625
64608,73415
64489,73236
64310,73117
64100,73075
63890,73117
63711,73236
63600,73402
63510,73267
63510,71210
63510,70950
63510,70850
63510,70590
63460,70437
63355,70315
63213,70247
63150,70271
63150,70850
63510,70850
63510,70950
63150,70950
63150,71529
63213,71553
63355,71485
63460,71363
63510,71210
63510,73267
63489,73236
63310,73117
63100,73075
63050,73085
63050,71529
63050,70950
63050,70850
63050,70271
62987,70247
62845,70315
62740,70437
62690,70590
62690,70850
63050,70850
63050,70950
62690,70950
62690,71210
62740,71363
62845,71485
62987,71553
63050,71529
63050,73085
62890,73117
62711,73236
62592,73415
62550,73625
62550,74175
62592,74385
62711,74564
62890,74683
62984,74701
62910,74882
62909,75117
62999,75334
63165,75500
63382,75590
63617,75591
63834,75501
63885,75450
65865,75450
65915,75500
66132,75590
66367,75591
66584,75501
66750,75335
66840,75118
66841,74883
66751,74666
66585,74500
66543,74482
66600,74397
66711,74564
66890,74683
67100,74725
67310,74683
67489,74564
67608,74385
67650,74175
67650,79461
67571,79461
66571,79461
66465,79505
66383,79586
66339,79692
66339,79722
66198,79581
65908,79461
65594,79460
65303,79580
65081,79802
65061,79849
65042,79803
64820,79581
64530,79461
64216,79460
63925,79580
63703,79802
63583,80092
63582,80406
63702,80697
63924,80919
64214,81039
64528,81040
64819,80920
65041,80698
65060,80650
65080,80697
65302,80919
65592,81039
65906,81040
66197,80920
66339,80778
66339,80807
66383,80913
66464,80995
66570,81039
66685,81039
67685,81039
67791,80995
67873,80914
67917,80808
67917,81950
63478,81950
63478,80808
63478,80693
63478,79693
63434,79587
63353,79505
63247,79461
63132,79461
62132,79461
62026,79505
61944,79586
61900,79692
61900,79722
61759,79581
61690,79552
61690,68488
61690,68263
61604,68055
61445,67896
61394,67874
61445,67854
61604,67695
61690,67488
61690,67263
61690,63488
61690,63263
61604,63055
61445,62896
61394,62874
61445,62854
61604,62695
61690,62488
61690,62263
61604,62055
61445,61896
61238,61810
61013,61810
60805,61896
60646,62055
60560,62262
60560,62487
60646,62695
60805,62854
60855,62875
60805,62896
60646,63055
60560,63262
60560,63487
60646,63695
60805,63854
61012,63940
61237,63940
61445,63854
61604,63695
61690,63488
61690,67263
61604,67055
61445,66896
61238,66810
61013,66810
60805,66896
60646,67055
60560,67262
60560,67487
60646,67695
60805,67854
60855,67875
60805,67896
60646,68055
60560,68262
60560,68487
60646,68695
60805,68854
61012,68940
61237,68940
61445,68854
61604,68695
61690,68488
61690,79552
61469,79461
61155,79460
60864,79580
60642,79802
60522,80092
60521,80406
60641,80697
60863,80919
61153,81039
61467,81040
61758,80920
61900,80778
61900,80807
61944,80913
62025,80995
62131,81039
62246,81039
63246,81039
63352,80995
63434,80914
63478,80808
63478,81950
59470,81950
59470,80294
59470,79709
59470,50294
59470,49709
59247,49168
58834,48754
58294,48530
57709,48530
57168,48753
56754,49166
56530,49706
56530,50291
56753,50832
57166,51246
57706,51470
58291,51470
58832,51247
59246,50834
59470,50294
59470,79709
59247,79168
58834,78754
58294,78530
57709,78530
57168,78753
56754,79166
56530,79706
56530,80291
56753,80832
57166,81246
57706,81470
58291,81470
58832,81247
59246,80834
59470,80294
59470,81950
56050,81950
56050,48050
91950,48050
91950,81950
" /> 
</g>
<g style="fill:#FFFFFF; fill-opacity:0.0; 
stroke:#FFFFFF; stroke-width:39; stroke-opacity:1; 
stroke-linecap:round; stroke-linejoin:round;">
</g>
<g style="fill:#FFFFFF; fill-opacity:1.0; 
stroke:#FFFFFF; stroke-width:39; stroke-opacity:1; 
stroke-linecap:round; stroke-linejoin:round;">
<circle cx="63500" cy="75000" r="105.5" /> 
<circle cx="66250" cy="75000" r="105.5" /> 
<circle cx="72000" cy="55250" r="105.5" /> 
<circle cx="70000" cy="78000" r="105.5" /> 
<circle cx="76500" cy="53000" r="105.5" /> 
<circle cx="78500" cy="63250" r="105.5" /> 
<circle cx="75500" cy="53000" r="105.5" /> 
<circle cx="80750" cy="76500" r="105.5" /> 
<circle cx="70250" cy="72250" r="105.5" /> 
<circle cx="68000" cy="55500" r="105.5" /> 
<circle cx="65250" cy="66250" r="105.5" /> 
<circle cx="73500" cy="52000" r="105.5" /> 
<circle cx="75250" cy="60250" r="105.5" /> 
<circle cx="70500" cy="56000" r="105.5" /> 
<circle cx="78250" cy="57750" r="105.5" /> 
<circle cx="75750" cy="80000" r="230.5" /> 
<circle cx="74096" cy="80000" r="230.5" /> 
<circle cx="76250" cy="61250" r="180.5" /> 
<circle cx="75250" cy="61250" r="80.5" /> 
<circle cx="76250" cy="62250" r="80.5" /> 
<circle cx="75250" cy="62250" r="80.5" /> 
<circle cx="76250" cy="63250" r="80.5" /> 
<circle cx="75250" cy="63250" r="80.5" /> 
<circle cx="76250" cy="61250" r="98.5" /> 
<circle cx="88750" cy="61250" r="205.5" /> 
<circle cx="87750" cy="61250" r="205.5" /> 
<circle cx="86750" cy="61250" r="205.5" /> 
<circle cx="87750" cy="54750" r="580.5" /> 
<circle cx="81250" cy="50500" r="180.5" /> 
<circle cx="81250" cy="49500" r="180.5" /> 
<circle cx="81250" cy="56500" r="180.5" /> 
<circle cx="81250" cy="55500" r="180.5" /> 
<circle cx="81250" cy="52500" r="180.5" /> 
<circle cx="81250" cy="51500" r="180.5" /> 
<circle cx="81250" cy="54500" r="180.5" /> 
<circle cx="81250" cy="53500" r="180.5" /> 
<circle cx="88750" cy="64500" r="180.5" /> 
<circle cx="90750" cy="64500" r="180.5" /> 
<circle cx="85750" cy="64250" r="180.5" /> 
<circle cx="83750" cy="64250" r="180.5" /> 
<circle cx="85750" cy="76250" r="80.5" /> 
<circle cx="85750" cy="74250" r="80.5" /> 
<circle cx="87750" cy="74250" r="80.5" /> 
<circle cx="87750" cy="76250" r="80.5" /> 
<circle cx="70922" cy="59672" r="140.5" /> 
<circle cx="69578" cy="58328" r="140.5" /> 
<circle cx="64100" cy="70900" r="140.5" /> 
<circle cx="63100" cy="70900" r="140.5" /> 
<circle cx="63100" cy="73900" r="140.5" /> 
<circle cx="64100" cy="73900" r="140.5" /> 
<circle cx="67100" cy="70900" r="140.5" /> 
<circle cx="66100" cy="70900" r="140.5" /> 
<circle cx="66100" cy="73900" r="140.5" /> 
<circle cx="67100" cy="73900" r="140.5" /> 
<circle cx="74134" cy="72750" r="98.5" /> 
<circle cx="75866" cy="72750" r="98.5" /> 
<circle cx="72402" cy="72750" r="98.5" /> 
<circle cx="77598" cy="72750" r="98.5" /> 
<circle cx="77598" cy="70250" r="98.5" /> 
<circle cx="75866" cy="70250" r="98.5" /> 
<circle cx="74134" cy="70250" r="98.5" /> 
<circle cx="72402" cy="70250" r="98.5" /> 
<circle cx="72402" cy="68636" r="98.5" /> 
<circle cx="74134" cy="68636" r="98.5" /> 
<circle cx="75866" cy="68636" r="98.5" /> 
<circle cx="77598" cy="68636" r="98.5" /> 
<circle cx="77598" cy="75250" r="98.5" /> 
<circle cx="72402" cy="75250" r="98.5" /> 
<circle cx="84439" cy="80250" r="221.5" /> 
<circle cx="83061" cy="80250" r="221.5" /> 
<circle cx="87439" cy="80250" r="221.5" /> 
<circle cx="86061" cy="80250" r="221.5" /> 
<circle cx="76811" cy="96250" r="221.5" /> 
<circle cx="78189" cy="96250" r="221.5" /> 
<circle cx="81439" cy="80250" r="221.5" /> 
<circle cx="80061" cy="80250" r="221.5" /> 
<circle cx="62689" cy="80250" r="221.5" /> 
<circle cx="61311" cy="80250" r="221.5" /> 
<circle cx="67128" cy="80250" r="221.5" /> 
<circle cx="65750" cy="80250" r="221.5" /> 
<circle cx="64372" cy="80250" r="221.5" /> 
<circle cx="70189" cy="80250" r="221.5" /> 
<circle cx="68811" cy="80250" r="221.5" /> 
<circle cx="64125" cy="62375" r="140.5" /> 
<circle cx="64125" cy="63375" r="140.5" /> 
<circle cx="64125" cy="67375" r="140.5" /> 
<circle cx="64125" cy="68375" r="140.5" /> 
<circle cx="61125" cy="68375" r="140.5" /> 
<circle cx="61125" cy="67375" r="140.5" /> 
<circle cx="61125" cy="63375" r="140.5" /> 
<circle cx="61125" cy="62375" r="140.5" /> 
<circle cx="69865" cy="50471" r="177" /> 
<circle cx="69865" cy="53029" r="177" /> 
<circle cx="71635" cy="50471" r="177" /> 
<circle cx="71635" cy="53029" r="177" /> 
<circle cx="73622" cy="49750" r="221.5" /> 
<circle cx="75000" cy="49750" r="221.5" /> 
<circle cx="76378" cy="49750" r="221.5" /> 
<circle cx="90000" cy="80000" r="571" /> 
<circle cx="90000" cy="50000" r="571" /> 
<circle cx="58000" cy="50000" r="571" /> 
<circle cx="58000" cy="80000" r="571" /> 
<circle cx="67000" cy="57500" r="180.5" /> 
<circle cx="67000" cy="56500" r="180.5" /> 
<circle cx="67000" cy="55500" r="180.5" /> 
<circle cx="67000" cy="54500" r="180.5" /> 
<circle cx="67000" cy="53500" r="180.5" /> 
<circle cx="67000" cy="52500" r="180.5" /> 
</g> 
</svg>
